M48
; DRILL file {KiCad 7.0.8} date Thu Mar 26 12:22:10 2026
; FORMAT={-:-/ absolute / inch / decimal}
; #@! TF.CreationDate,2026-03-26T12:22:10-04:00
; #@! TF.GenerationSoftware,Kicad,Pcbnew,7.0.8
; #@! TF.FileFunction,Plated,1,2,PTH
FMAT,2
INCH
; #@! TA.AperFunction,Plated,PTH,ViaDrill
T1C0.0157
; #@! TA.AperFunction,Plated,PTH,ComponentDrill
T2C0.0197
; #@! TA.AperFunction,Plated,PTH,ComponentDrill
T3C0.0217
; #@! TA.AperFunction,Plated,PTH,ComponentDrill
T4C0.0315
; #@! TA.AperFunction,Plated,PTH,ComponentDrill
T5C0.0394
%
G90
G05
T1
X3.4961Y-2.7717
X3.4961Y-2.8898
X3.4961Y-3.2362
X3.4961Y-3.3228
X3.5039Y-2.0866
X3.5039Y-2.2047
X3.6457Y-2.9291
X3.7244Y-2.1575
X3.7244Y-2.8189
X3.7244Y-3.2362
X3.7244Y-3.3228
X3.748Y-2.5197
X3.937Y-2.2126
X4.2283Y-2.5512
X4.2677Y-2.3228
X4.2677Y-2.4016
X4.2835Y-2.7402
X4.2913Y-3.3307
X4.2992Y-2.0866
X4.2992Y-3.0079
X4.2992Y-3.126
X4.3701Y-2.8898
X4.4094Y-3.3307
X4.4173Y-2.0866
T4
X3.5748Y-2.3925
X3.5748Y-2.5846
T5
X3.548Y-3.0024
X3.548Y-3.1024
X3.648Y-3.0024
X3.648Y-3.1024
X3.748Y-3.0024
X3.748Y-3.1024
X3.848Y-3.0024
X3.848Y-3.1024
X4.0236Y-2.9528
X4.0236Y-3.0528
X4.0236Y-3.1528
X4.1236Y-2.9528
X4.1236Y-3.0528
X4.1236Y-3.1528
T2
G00X3.8543Y-2.0679
M15
G01X3.8543Y-2.0423
M16
G05
G00X4.1299Y-2.0679
M15
G01X4.1299Y-2.0423
M16
G05
T3
G00X3.9006Y-2.1614
M15
G01X3.8868Y-2.1614
M16
G05
G00X4.0974Y-2.1614
M15
G01X4.0837Y-2.1614
M16
G05
T0
M30
