%TF.GenerationSoftware,KiCad,Pcbnew,7.0.8*%
%TF.CreationDate,2026-03-26T12:22:10-04:00*%
%TF.ProjectId,ReceiverPCB,52656365-6976-4657-9250-43422e6b6963,rev?*%
%TF.SameCoordinates,Original*%
%TF.FileFunction,Soldermask,Top*%
%TF.FilePolarity,Negative*%
%FSLAX46Y46*%
G04 Gerber Fmt 4.6, Leading zero omitted, Abs format (unit mm)*
G04 Created by KiCad (PCBNEW 7.0.8) date 2026-03-26 12:22:10*
%MOMM*%
%LPD*%
G01*
G04 APERTURE LIST*
G04 Aperture macros list*
%AMRoundRect*
0 Rectangle with rounded corners*
0 $1 Rounding radius*
0 $2 $3 $4 $5 $6 $7 $8 $9 X,Y pos of 4 corners*
0 Add a 4 corners polygon primitive as box body*
4,1,4,$2,$3,$4,$5,$6,$7,$8,$9,$2,$3,0*
0 Add four circle primitives for the rounded corners*
1,1,$1+$1,$2,$3*
1,1,$1+$1,$4,$5*
1,1,$1+$1,$6,$7*
1,1,$1+$1,$8,$9*
0 Add four rect primitives between the rounded corners*
20,1,$1+$1,$2,$3,$4,$5,0*
20,1,$1+$1,$4,$5,$6,$7,0*
20,1,$1+$1,$6,$7,$8,$9,0*
20,1,$1+$1,$8,$9,$2,$3,0*%
G04 Aperture macros list end*
%ADD10C,0.010000*%
%ADD11RoundRect,0.250000X0.250000X0.475000X-0.250000X0.475000X-0.250000X-0.475000X0.250000X-0.475000X0*%
%ADD12RoundRect,0.250000X-0.250000X-0.475000X0.250000X-0.475000X0.250000X0.475000X-0.250000X0.475000X0*%
%ADD13RoundRect,0.102000X0.200000X0.675000X-0.200000X0.675000X-0.200000X-0.675000X0.200000X-0.675000X0*%
%ADD14RoundRect,0.102000X0.750000X0.775000X-0.750000X0.775000X-0.750000X-0.775000X0.750000X-0.775000X0*%
%ADD15O,1.504000X1.154000*%
%ADD16R,1.700000X1.700000*%
%ADD17O,1.700000X1.700000*%
%ADD18RoundRect,0.250000X-0.262500X-0.450000X0.262500X-0.450000X0.262500X0.450000X-0.262500X0.450000X0*%
%ADD19C,1.500000*%
%ADD20R,1.600000X0.550000*%
%ADD21R,0.550000X1.600000*%
G04 APERTURE END LIST*
%TO.C,J2*%
D10*
X104876000Y-51326000D02*
X104908000Y-51328000D01*
X104939000Y-51332000D01*
X104970000Y-51338000D01*
X105000000Y-51345000D01*
X105030000Y-51354000D01*
X105060000Y-51365000D01*
X105089000Y-51377000D01*
X105117000Y-51390000D01*
X105145000Y-51405000D01*
X105172000Y-51422000D01*
X105198000Y-51440000D01*
X105223000Y-51459000D01*
X105246000Y-51479000D01*
X105269000Y-51501000D01*
X105291000Y-51524000D01*
X105311000Y-51547000D01*
X105330000Y-51572000D01*
X105348000Y-51598000D01*
X105365000Y-51625000D01*
X105380000Y-51653000D01*
X105393000Y-51681000D01*
X105405000Y-51710000D01*
X105416000Y-51740000D01*
X105425000Y-51770000D01*
X105432000Y-51800000D01*
X105438000Y-51831000D01*
X105442000Y-51862000D01*
X105444000Y-51894000D01*
X105445000Y-51925000D01*
X105445000Y-52475000D01*
X105444000Y-52506000D01*
X105442000Y-52538000D01*
X105438000Y-52569000D01*
X105432000Y-52600000D01*
X105425000Y-52630000D01*
X105416000Y-52660000D01*
X105405000Y-52690000D01*
X105393000Y-52719000D01*
X105380000Y-52747000D01*
X105365000Y-52775000D01*
X105348000Y-52802000D01*
X105330000Y-52828000D01*
X105311000Y-52853000D01*
X105291000Y-52876000D01*
X105269000Y-52899000D01*
X105246000Y-52921000D01*
X105223000Y-52941000D01*
X105198000Y-52960000D01*
X105172000Y-52978000D01*
X105145000Y-52995000D01*
X105117000Y-53010000D01*
X105089000Y-53023000D01*
X105060000Y-53035000D01*
X105030000Y-53046000D01*
X105000000Y-53055000D01*
X104970000Y-53062000D01*
X104939000Y-53068000D01*
X104908000Y-53072000D01*
X104876000Y-53074000D01*
X104845000Y-53075000D01*
X103600000Y-53075000D01*
X103600000Y-51325000D01*
X104845000Y-51325000D01*
X104876000Y-51326000D01*
G36*
X104876000Y-51326000D02*
G01*
X104908000Y-51328000D01*
X104939000Y-51332000D01*
X104970000Y-51338000D01*
X105000000Y-51345000D01*
X105030000Y-51354000D01*
X105060000Y-51365000D01*
X105089000Y-51377000D01*
X105117000Y-51390000D01*
X105145000Y-51405000D01*
X105172000Y-51422000D01*
X105198000Y-51440000D01*
X105223000Y-51459000D01*
X105246000Y-51479000D01*
X105269000Y-51501000D01*
X105291000Y-51524000D01*
X105311000Y-51547000D01*
X105330000Y-51572000D01*
X105348000Y-51598000D01*
X105365000Y-51625000D01*
X105380000Y-51653000D01*
X105393000Y-51681000D01*
X105405000Y-51710000D01*
X105416000Y-51740000D01*
X105425000Y-51770000D01*
X105432000Y-51800000D01*
X105438000Y-51831000D01*
X105442000Y-51862000D01*
X105444000Y-51894000D01*
X105445000Y-51925000D01*
X105445000Y-52475000D01*
X105444000Y-52506000D01*
X105442000Y-52538000D01*
X105438000Y-52569000D01*
X105432000Y-52600000D01*
X105425000Y-52630000D01*
X105416000Y-52660000D01*
X105405000Y-52690000D01*
X105393000Y-52719000D01*
X105380000Y-52747000D01*
X105365000Y-52775000D01*
X105348000Y-52802000D01*
X105330000Y-52828000D01*
X105311000Y-52853000D01*
X105291000Y-52876000D01*
X105269000Y-52899000D01*
X105246000Y-52921000D01*
X105223000Y-52941000D01*
X105198000Y-52960000D01*
X105172000Y-52978000D01*
X105145000Y-52995000D01*
X105117000Y-53010000D01*
X105089000Y-53023000D01*
X105060000Y-53035000D01*
X105030000Y-53046000D01*
X105000000Y-53055000D01*
X104970000Y-53062000D01*
X104939000Y-53068000D01*
X104908000Y-53072000D01*
X104876000Y-53074000D01*
X104845000Y-53075000D01*
X103600000Y-53075000D01*
X103600000Y-51325000D01*
X104845000Y-51325000D01*
X104876000Y-51326000D01*
G37*
X99200000Y-53075000D02*
X97955000Y-53075000D01*
X97924000Y-53074000D01*
X97892000Y-53072000D01*
X97861000Y-53068000D01*
X97830000Y-53062000D01*
X97800000Y-53055000D01*
X97770000Y-53046000D01*
X97740000Y-53035000D01*
X97711000Y-53023000D01*
X97683000Y-53010000D01*
X97655000Y-52995000D01*
X97628000Y-52978000D01*
X97602000Y-52960000D01*
X97577000Y-52941000D01*
X97554000Y-52921000D01*
X97531000Y-52899000D01*
X97509000Y-52876000D01*
X97489000Y-52853000D01*
X97470000Y-52828000D01*
X97452000Y-52802000D01*
X97435000Y-52775000D01*
X97420000Y-52747000D01*
X97407000Y-52719000D01*
X97395000Y-52690000D01*
X97384000Y-52660000D01*
X97375000Y-52630000D01*
X97368000Y-52600000D01*
X97362000Y-52569000D01*
X97358000Y-52538000D01*
X97356000Y-52506000D01*
X97355000Y-52475000D01*
X97355000Y-51925000D01*
X97356000Y-51894000D01*
X97358000Y-51862000D01*
X97362000Y-51831000D01*
X97368000Y-51800000D01*
X97375000Y-51770000D01*
X97384000Y-51740000D01*
X97395000Y-51710000D01*
X97407000Y-51681000D01*
X97420000Y-51653000D01*
X97435000Y-51625000D01*
X97452000Y-51598000D01*
X97470000Y-51572000D01*
X97489000Y-51547000D01*
X97509000Y-51524000D01*
X97531000Y-51501000D01*
X97554000Y-51479000D01*
X97577000Y-51459000D01*
X97602000Y-51440000D01*
X97628000Y-51422000D01*
X97655000Y-51405000D01*
X97683000Y-51390000D01*
X97711000Y-51377000D01*
X97740000Y-51365000D01*
X97770000Y-51354000D01*
X97800000Y-51345000D01*
X97830000Y-51338000D01*
X97861000Y-51332000D01*
X97892000Y-51328000D01*
X97924000Y-51326000D01*
X97955000Y-51325000D01*
X99200000Y-51325000D01*
X99200000Y-53075000D01*
G36*
X99200000Y-53075000D02*
G01*
X97955000Y-53075000D01*
X97924000Y-53074000D01*
X97892000Y-53072000D01*
X97861000Y-53068000D01*
X97830000Y-53062000D01*
X97800000Y-53055000D01*
X97770000Y-53046000D01*
X97740000Y-53035000D01*
X97711000Y-53023000D01*
X97683000Y-53010000D01*
X97655000Y-52995000D01*
X97628000Y-52978000D01*
X97602000Y-52960000D01*
X97577000Y-52941000D01*
X97554000Y-52921000D01*
X97531000Y-52899000D01*
X97509000Y-52876000D01*
X97489000Y-52853000D01*
X97470000Y-52828000D01*
X97452000Y-52802000D01*
X97435000Y-52775000D01*
X97420000Y-52747000D01*
X97407000Y-52719000D01*
X97395000Y-52690000D01*
X97384000Y-52660000D01*
X97375000Y-52630000D01*
X97368000Y-52600000D01*
X97362000Y-52569000D01*
X97358000Y-52538000D01*
X97356000Y-52506000D01*
X97355000Y-52475000D01*
X97355000Y-51925000D01*
X97356000Y-51894000D01*
X97358000Y-51862000D01*
X97362000Y-51831000D01*
X97368000Y-51800000D01*
X97375000Y-51770000D01*
X97384000Y-51740000D01*
X97395000Y-51710000D01*
X97407000Y-51681000D01*
X97420000Y-51653000D01*
X97435000Y-51625000D01*
X97452000Y-51598000D01*
X97470000Y-51572000D01*
X97489000Y-51547000D01*
X97509000Y-51524000D01*
X97531000Y-51501000D01*
X97554000Y-51479000D01*
X97577000Y-51459000D01*
X97602000Y-51440000D01*
X97628000Y-51422000D01*
X97655000Y-51405000D01*
X97683000Y-51390000D01*
X97711000Y-51377000D01*
X97740000Y-51365000D01*
X97770000Y-51354000D01*
X97800000Y-51345000D01*
X97830000Y-51338000D01*
X97861000Y-51332000D01*
X97892000Y-51328000D01*
X97924000Y-51326000D01*
X97955000Y-51325000D01*
X99200000Y-51325000D01*
X99200000Y-53075000D01*
G37*
%TD*%
D11*
%TO.C,C5*%
X110350000Y-71800000D03*
X108450000Y-71800000D03*
%TD*%
%TO.C,C2*%
X110350000Y-62400000D03*
X108450000Y-62400000D03*
%TD*%
D12*
%TO.C,C3*%
X91050000Y-54800000D03*
X92950000Y-54800000D03*
%TD*%
%TO.C,C1*%
X108450000Y-57600000D03*
X110350000Y-57600000D03*
%TD*%
D13*
%TO.C,J2*%
X102700000Y-54875000D03*
X102050000Y-54875000D03*
X101400000Y-54875000D03*
X100750000Y-54875000D03*
X100100000Y-54875000D03*
D14*
X100400000Y-52200000D03*
X102400000Y-52200000D03*
D15*
X103900000Y-54900000D03*
X98900000Y-54900000D03*
%TD*%
D11*
%TO.C,C4*%
X92950000Y-71600000D03*
X91050000Y-71600000D03*
%TD*%
D16*
%TO.C,J3*%
X97740000Y-78800000D03*
D17*
X97740000Y-76260000D03*
X95200000Y-78800000D03*
X95200000Y-76260000D03*
X92660000Y-78800000D03*
X92660000Y-76260000D03*
X90120000Y-78800000D03*
X90120000Y-76260000D03*
%TD*%
D18*
%TO.C,R1*%
X108487500Y-67200000D03*
X110312500Y-67200000D03*
%TD*%
D19*
%TO.C,Y1*%
X90800000Y-65650000D03*
X90800000Y-60770000D03*
%TD*%
D16*
%TO.C,J1*%
X102200000Y-75000000D03*
D17*
X104740000Y-75000000D03*
X102200000Y-77540000D03*
X104740000Y-77540000D03*
X102200000Y-80080000D03*
X104740000Y-80080000D03*
%TD*%
D20*
%TO.C,U1*%
X96950000Y-61600000D03*
X96950000Y-62400000D03*
X96950000Y-63200000D03*
X96950000Y-64000000D03*
X96950000Y-64800000D03*
X96950000Y-65600000D03*
X96950000Y-66400000D03*
X96950000Y-67200000D03*
D21*
X98400000Y-68650000D03*
X99200000Y-68650000D03*
X100000000Y-68650000D03*
X100800000Y-68650000D03*
X101600000Y-68650000D03*
X102400000Y-68650000D03*
X103200000Y-68650000D03*
X104000000Y-68650000D03*
D20*
X105450000Y-67200000D03*
X105450000Y-66400000D03*
X105450000Y-65600000D03*
X105450000Y-64800000D03*
X105450000Y-64000000D03*
X105450000Y-63200000D03*
X105450000Y-62400000D03*
X105450000Y-61600000D03*
D21*
X104000000Y-60150000D03*
X103200000Y-60150000D03*
X102400000Y-60150000D03*
X101600000Y-60150000D03*
X100800000Y-60150000D03*
X100000000Y-60150000D03*
X99200000Y-60150000D03*
X98400000Y-60150000D03*
%TD*%
M02*
