%TF.GenerationSoftware,KiCad,Pcbnew,7.0.8*%
%TF.CreationDate,2026-03-26T12:22:10-04:00*%
%TF.ProjectId,ReceiverPCB,52656365-6976-4657-9250-43422e6b6963,rev?*%
%TF.SameCoordinates,Original*%
%TF.FileFunction,Copper,L2,Bot*%
%TF.FilePolarity,Positive*%
%FSLAX46Y46*%
G04 Gerber Fmt 4.6, Leading zero omitted, Abs format (unit mm)*
G04 Created by KiCad (PCBNEW 7.0.8) date 2026-03-26 12:22:10*
%MOMM*%
%LPD*%
G01*
G04 APERTURE LIST*
G04 Aperture macros list*
%AMFreePoly0*
4,1,181,1.203536,0.778536,1.205000,0.775000,1.205000,-0.775000,1.203536,-0.778536,1.200000,-0.780000,0.055000,-0.780000,0.054904,-0.779960,0.054808,-0.779996,0.028808,-0.778996,0.028714,-0.778953,0.028617,-0.778985,0.002617,-0.776985,0.002525,-0.776938,0.002427,-0.776967,-0.023573,-0.773967,-0.023748,-0.773869,-0.023945,-0.773910,-0.049944,-0.768910,-0.050045,-0.768842,-0.050167,-0.768862,
-0.075167,-0.762862,-0.075226,-0.762818,-0.075300,-0.762828,-0.101300,-0.755828,-0.101501,-0.755673,-0.101756,-0.755682,-0.125756,-0.746682,-0.125827,-0.746615,-0.125923,-0.746615,-0.149923,-0.736615,-0.149989,-0.736548,-0.150083,-0.736545,-0.174083,-0.725545,-0.174235,-0.725380,-0.174460,-0.725353,-0.197460,-0.712353,-0.197546,-0.712242,-0.197684,-0.712218,-0.241684,-0.684218,-0.241812,-0.684034,
-0.242030,-0.683977,-0.263030,-0.667977,-0.263101,-0.667853,-0.263238,-0.667810,-0.283238,-0.650810,-0.283303,-0.650681,-0.283438,-0.650630,-0.302439,-0.632630,-0.302498,-0.632497,-0.302629,-0.632439,-0.320630,-0.613439,-0.320681,-0.613303,-0.320810,-0.613238,-0.337810,-0.593238,-0.337853,-0.593101,-0.337977,-0.593030,-0.353977,-0.572030,-0.354034,-0.571813,-0.354218,-0.571685,-0.382218,-0.527684,
-0.382241,-0.527547,-0.382353,-0.527461,-0.395353,-0.504460,-0.395380,-0.504235,-0.395545,-0.504083,-0.406545,-0.480083,-0.406548,-0.479989,-0.406615,-0.479923,-0.416615,-0.455923,-0.416615,-0.455827,-0.416682,-0.455756,-0.425682,-0.431756,-0.425673,-0.431501,-0.425828,-0.431300,-0.432828,-0.405300,-0.432818,-0.405226,-0.432862,-0.405167,-0.438862,-0.380167,-0.438842,-0.380045,-0.438910,-0.379944,
-0.443910,-0.353944,-0.443869,-0.353748,-0.443967,-0.353574,-0.446967,-0.327573,-0.446938,-0.327474,-0.446985,-0.327384,-0.448985,-0.301383,-0.448953,-0.301285,-0.448996,-0.301192,-0.449996,-0.275192,-0.449960,-0.275095,-0.450000,-0.275000,-0.450000,0.275000,-0.449960,0.275095,-0.449996,0.275192,-0.448996,0.301192,-0.448953,0.301285,-0.448985,0.301383,-0.446985,0.327384,-0.446938,0.327474,
-0.446967,0.327573,-0.443967,0.353574,-0.443869,0.353748,-0.443910,0.353944,-0.438910,0.379944,-0.438842,0.380045,-0.438862,0.380167,-0.432862,0.405167,-0.432818,0.405226,-0.432828,0.405300,-0.425828,0.431300,-0.425673,0.431501,-0.425682,0.431756,-0.416682,0.455756,-0.416615,0.455827,-0.416615,0.455923,-0.406615,0.479923,-0.406548,0.479989,-0.406545,0.480083,-0.395545,0.504083,
-0.395380,0.504235,-0.395353,0.504460,-0.382353,0.527461,-0.382241,0.527547,-0.382218,0.527684,-0.354218,0.571685,-0.354034,0.571813,-0.353977,0.572030,-0.337977,0.593030,-0.337853,0.593101,-0.337810,0.593238,-0.320810,0.613238,-0.320681,0.613303,-0.320630,0.613439,-0.302629,0.632439,-0.302498,0.632497,-0.302439,0.632630,-0.283438,0.650630,-0.283303,0.650681,-0.283238,0.650810,
-0.263238,0.667810,-0.263101,0.667853,-0.263030,0.667977,-0.242030,0.683977,-0.241812,0.684034,-0.241684,0.684218,-0.197684,0.712218,-0.197546,0.712242,-0.197460,0.712353,-0.174460,0.725353,-0.174235,0.725380,-0.174083,0.725545,-0.150083,0.736545,-0.149989,0.736548,-0.149923,0.736615,-0.125923,0.746615,-0.125827,0.746615,-0.125756,0.746682,-0.101756,0.755682,-0.101501,0.755673,
-0.101300,0.755828,-0.075300,0.762828,-0.075226,0.762818,-0.075167,0.762862,-0.050167,0.768862,-0.050045,0.768842,-0.049944,0.768910,-0.023945,0.773910,-0.023748,0.773869,-0.023573,0.773967,0.002427,0.776967,0.002525,0.776938,0.002617,0.776985,0.028617,0.778985,0.028714,0.778953,0.028808,0.778996,0.054808,0.779996,0.054904,0.779960,0.055000,0.780000,1.200000,0.780000,
1.203536,0.778536,1.203536,0.778536,$1*%
%AMFreePoly1*
4,1,181,-0.054904,0.779960,-0.054808,0.779996,-0.028808,0.778996,-0.028714,0.778953,-0.028617,0.778985,-0.002616,0.776985,-0.002525,0.776938,-0.002427,0.776967,0.023574,0.773967,0.023748,0.773869,0.023944,0.773910,0.049944,0.768910,0.050045,0.768842,0.050167,0.768862,0.075167,0.762862,0.075226,0.762818,0.075300,0.762828,0.101300,0.755828,0.101501,0.755673,0.101756,0.755682,
0.125756,0.746682,0.125827,0.746615,0.125923,0.746615,0.149923,0.736615,0.149989,0.736548,0.150083,0.736545,0.174083,0.725545,0.174235,0.725380,0.174460,0.725353,0.197461,0.712353,0.197547,0.712241,0.197684,0.712218,0.241685,0.684218,0.241813,0.684034,0.242030,0.683977,0.263030,0.667977,0.263101,0.667853,0.263238,0.667810,0.283238,0.650810,0.283303,0.650681,
0.283439,0.650630,0.302439,0.632629,0.302497,0.632498,0.302630,0.632439,0.320630,0.613438,0.320681,0.613303,0.320810,0.613238,0.337810,0.593238,0.337853,0.593101,0.337977,0.593030,0.353977,0.572030,0.354034,0.571812,0.354218,0.571684,0.382218,0.527684,0.382242,0.527546,0.382353,0.527460,0.395353,0.504460,0.395380,0.504235,0.395545,0.504083,0.406545,0.480083,
0.406548,0.479989,0.406615,0.479923,0.416615,0.455923,0.416615,0.455827,0.416682,0.455756,0.425682,0.431756,0.425673,0.431501,0.425828,0.431300,0.432828,0.405300,0.432818,0.405226,0.432862,0.405167,0.438862,0.380167,0.438842,0.380045,0.438910,0.379944,0.443910,0.353945,0.443869,0.353748,0.443967,0.353573,0.446967,0.327573,0.446938,0.327474,0.446985,0.327383,
0.448985,0.301383,0.448953,0.301285,0.448996,0.301192,0.449996,0.275192,0.449960,0.275095,0.450000,0.275000,0.450000,-0.275000,0.449960,-0.275095,0.449996,-0.275192,0.448996,-0.301192,0.448953,-0.301285,0.448985,-0.301383,0.446985,-0.327383,0.446938,-0.327474,0.446967,-0.327573,0.443967,-0.353573,0.443869,-0.353748,0.443910,-0.353945,0.438910,-0.379944,0.438842,-0.380045,
0.438862,-0.380167,0.432862,-0.405167,0.432818,-0.405226,0.432828,-0.405300,0.425828,-0.431300,0.425673,-0.431501,0.425682,-0.431756,0.416682,-0.455756,0.416615,-0.455827,0.416615,-0.455923,0.406615,-0.479923,0.406548,-0.479989,0.406545,-0.480083,0.395545,-0.504083,0.395380,-0.504235,0.395353,-0.504460,0.382353,-0.527460,0.382242,-0.527546,0.382218,-0.527684,0.354218,-0.571684,
0.354034,-0.571812,0.353977,-0.572030,0.337977,-0.593030,0.337853,-0.593101,0.337810,-0.593238,0.320810,-0.613238,0.320681,-0.613303,0.320630,-0.613438,0.302630,-0.632439,0.302497,-0.632498,0.302439,-0.632629,0.283439,-0.650630,0.283303,-0.650681,0.283238,-0.650810,0.263238,-0.667810,0.263101,-0.667853,0.263030,-0.667977,0.242030,-0.683977,0.241813,-0.684034,0.241685,-0.684218,
0.197684,-0.712218,0.197547,-0.712241,0.197461,-0.712353,0.174460,-0.725353,0.174235,-0.725380,0.174083,-0.725545,0.150083,-0.736545,0.149989,-0.736548,0.149923,-0.736615,0.125923,-0.746615,0.125827,-0.746615,0.125756,-0.746682,0.101756,-0.755682,0.101501,-0.755673,0.101300,-0.755828,0.075300,-0.762828,0.075226,-0.762818,0.075167,-0.762862,0.050167,-0.768862,0.050045,-0.768842,
0.049944,-0.768910,0.023944,-0.773910,0.023748,-0.773869,0.023574,-0.773967,-0.002427,-0.776967,-0.002525,-0.776938,-0.002616,-0.776985,-0.028617,-0.778985,-0.028714,-0.778953,-0.028808,-0.778996,-0.054808,-0.779996,-0.054904,-0.779960,-0.055000,-0.780000,-1.200000,-0.780000,-1.203536,-0.778536,-1.205000,-0.775000,-1.205000,0.775000,-1.203536,0.778536,-1.200000,0.780000,-0.055000,0.780000,
-0.054904,0.779960,-0.054904,0.779960,$1*%
G04 Aperture macros list end*
%TA.AperFunction,ComponentPad*%
%ADD10FreePoly0,180.000000*%
%TD*%
%TA.AperFunction,ComponentPad*%
%ADD11FreePoly1,180.000000*%
%TD*%
%TA.AperFunction,ComponentPad*%
%ADD12O,1.300000X0.950000*%
%TD*%
%TA.AperFunction,ComponentPad*%
%ADD13R,1.700000X1.700000*%
%TD*%
%TA.AperFunction,ComponentPad*%
%ADD14O,1.700000X1.700000*%
%TD*%
%TA.AperFunction,ComponentPad*%
%ADD15C,1.500000*%
%TD*%
%TA.AperFunction,ViaPad*%
%ADD16C,0.800000*%
%TD*%
G04 APERTURE END LIST*
D10*
%TO.P,J2,SH1,SHIELD*%
%TO.N,GND*%
X104900000Y-52200000D03*
D11*
%TO.P,J2,SH4,SHIELD*%
X97900000Y-52200000D03*
D12*
%TO.P,J2,SH5,SHIELD*%
X103900000Y-54900000D03*
%TO.P,J2,SH6,SHIELD*%
X98900000Y-54900000D03*
%TD*%
D13*
%TO.P,J3,1,Pin_1*%
%TO.N,5V*%
X97740000Y-78800000D03*
D14*
%TO.P,J3,2,Pin_2*%
%TO.N,PING*%
X97740000Y-76260000D03*
%TO.P,J3,3,Pin_3*%
%TO.N,DATA*%
X95200000Y-78800000D03*
%TO.P,J3,4,Pin_4*%
%TO.N,5V*%
X95200000Y-76260000D03*
%TO.P,J3,5,Pin_5*%
%TO.N,DATA*%
X92660000Y-78800000D03*
%TO.P,J3,6,Pin_6*%
%TO.N,GND*%
X92660000Y-76260000D03*
%TO.P,J3,7,Pin_7*%
X90120000Y-78800000D03*
%TO.P,J3,8,Pin_8*%
%TO.N,unconnected-(J3-Pin_8-Pad8)*%
X90120000Y-76260000D03*
%TD*%
D15*
%TO.P,Y1,1,1*%
%TO.N,Net-(U1-XTAL2{slash}PB7)*%
X90800000Y-65650000D03*
%TO.P,Y1,2,2*%
%TO.N,Net-(U1-XTAL1{slash}PB6)*%
X90800000Y-60770000D03*
%TD*%
D13*
%TO.P,J1,1,MISO*%
%TO.N,Net-(J1-MISO)*%
X102200000Y-75000000D03*
D14*
%TO.P,J1,2,VCC*%
%TO.N,5V*%
X104740000Y-75000000D03*
%TO.P,J1,3,SCK*%
%TO.N,Net-(J1-SCK)*%
X102200000Y-77540000D03*
%TO.P,J1,4,MOSI*%
%TO.N,Net-(J1-MOSI)*%
X104740000Y-77540000D03*
%TO.P,J1,5,~{RST}*%
%TO.N,Net-(J1-~{RST})*%
X102200000Y-80080000D03*
%TO.P,J1,6,GND*%
%TO.N,GND*%
X104740000Y-80080000D03*
%TD*%
D16*
%TO.N,GND*%
X109200000Y-53000000D03*
X95200000Y-64000000D03*
X109000000Y-84600000D03*
X112200000Y-53000000D03*
X112000000Y-84600000D03*
X94600000Y-71600000D03*
X92600000Y-74400000D03*
X88800000Y-73400000D03*
X88800000Y-84400000D03*
X94600000Y-54800000D03*
X108800000Y-69600000D03*
X107400000Y-64800000D03*
X108400000Y-59000000D03*
X109200000Y-76400000D03*
X88800000Y-82200000D03*
X94600000Y-84400000D03*
X100000000Y-56200000D03*
X108400000Y-61000000D03*
X88800000Y-70400000D03*
X89000000Y-56000000D03*
X89000000Y-53000000D03*
X109200000Y-79400000D03*
X111000000Y-73400000D03*
X94600000Y-82200000D03*
%TD*%
%TA.AperFunction,Conductor*%
%TO.N,GND*%
G36*
X97484507Y-50820185D02*
G01*
X97530262Y-50872989D01*
X97540206Y-50942147D01*
X97533703Y-50967691D01*
X97532955Y-50969704D01*
X97491152Y-51025689D01*
X97477681Y-51034493D01*
X97477319Y-51034698D01*
X97470775Y-51038398D01*
X97465766Y-51039565D01*
X97443756Y-51053570D01*
X97440981Y-51055236D01*
X97425112Y-51064205D01*
X97414880Y-51071944D01*
X97407401Y-51076704D01*
X97407372Y-51076724D01*
X97387300Y-51089496D01*
X97386533Y-51089984D01*
X97381883Y-51091323D01*
X97371045Y-51099581D01*
X97366758Y-51102570D01*
X97361258Y-51106070D01*
X97352268Y-51113885D01*
X97352003Y-51114087D01*
X97345641Y-51118934D01*
X97340815Y-51120780D01*
X97321295Y-51137371D01*
X97318716Y-51139446D01*
X97298550Y-51154809D01*
X97280361Y-51172042D01*
X97277873Y-51174275D01*
X97258618Y-51190639D01*
X97241279Y-51208945D01*
X97238908Y-51211316D01*
X97220627Y-51228634D01*
X97204275Y-51247875D01*
X97202042Y-51250363D01*
X97184799Y-51268563D01*
X97169457Y-51288702D01*
X97167381Y-51291281D01*
X97155900Y-51304788D01*
X97148946Y-51315625D01*
X97144127Y-51321950D01*
X97143905Y-51322241D01*
X97139959Y-51325150D01*
X97137021Y-51329767D01*
X97137016Y-51329770D01*
X97132571Y-51336756D01*
X97129585Y-51341038D01*
X97125657Y-51346193D01*
X97120007Y-51356496D01*
X97119033Y-51358030D01*
X97118520Y-51358837D01*
X97104252Y-51381255D01*
X97104240Y-51381275D01*
X97101958Y-51384861D01*
X97098095Y-51388238D01*
X97085261Y-51410943D01*
X97083594Y-51413719D01*
X97073797Y-51429114D01*
X97068406Y-51440758D01*
X97064465Y-51447729D01*
X97060990Y-51451102D01*
X97055361Y-51463384D01*
X97052972Y-51468062D01*
X97046050Y-51480307D01*
X97030523Y-51517572D01*
X97026160Y-51527093D01*
X97024570Y-51528922D01*
X97021969Y-51535859D01*
X97020280Y-51539919D01*
X97018788Y-51543174D01*
X97017157Y-51548693D01*
X97013564Y-51558274D01*
X97003062Y-51583481D01*
X97000116Y-51594141D01*
X96998533Y-51598362D01*
X96996005Y-51601725D01*
X96993544Y-51610861D01*
X96991732Y-51616498D01*
X96990523Y-51619720D01*
X96988415Y-51629897D01*
X96988263Y-51630459D01*
X96986354Y-51633574D01*
X96977579Y-51670130D01*
X96974165Y-51682814D01*
X96972590Y-51685390D01*
X96970815Y-51694620D01*
X96969800Y-51699025D01*
X96969408Y-51700480D01*
X96968944Y-51704351D01*
X96967504Y-51711834D01*
X96966909Y-51714591D01*
X96958904Y-51747942D01*
X96956685Y-51767168D01*
X96955979Y-51771767D01*
X96952912Y-51787712D01*
X96950109Y-51824148D01*
X96948585Y-51837364D01*
X96947779Y-51839266D01*
X96947578Y-51844504D01*
X96947215Y-51849224D01*
X96946965Y-51851386D01*
X96947119Y-51856423D01*
X96946612Y-51869604D01*
X96945585Y-51882955D01*
X96944858Y-51884872D01*
X96944858Y-51890022D01*
X96944675Y-51894779D01*
X96944513Y-51896885D01*
X96944858Y-51901875D01*
X96944858Y-51915173D01*
X96943853Y-51941258D01*
X96944602Y-51949744D01*
X96944858Y-51950000D01*
X97650000Y-51950000D01*
X97650000Y-52450000D01*
X96944858Y-52450000D01*
X96943767Y-52451090D01*
X96943583Y-52451716D01*
X96944858Y-52484814D01*
X96944858Y-52498211D01*
X96944285Y-52500160D01*
X96944675Y-52505224D01*
X96944858Y-52509982D01*
X96944858Y-52512084D01*
X96945585Y-52517045D01*
X96946614Y-52530423D01*
X96947122Y-52543631D01*
X96946620Y-52545619D01*
X96947216Y-52550783D01*
X96947579Y-52555503D01*
X96947663Y-52557706D01*
X96948589Y-52562676D01*
X96950107Y-52575827D01*
X96952912Y-52612284D01*
X96955980Y-52628237D01*
X96956687Y-52632838D01*
X96958905Y-52652061D01*
X96966909Y-52685409D01*
X96967506Y-52688173D01*
X96968960Y-52695735D01*
X96968809Y-52697298D01*
X96969801Y-52700979D01*
X96970817Y-52705389D01*
X96971742Y-52710204D01*
X96974171Y-52717209D01*
X96977584Y-52729886D01*
X96985023Y-52760881D01*
X96988286Y-52769633D01*
X96988470Y-52770315D01*
X96988376Y-52774552D01*
X96991713Y-52783451D01*
X96993528Y-52789101D01*
X96994412Y-52792384D01*
X96998575Y-52801752D01*
X97000408Y-52806639D01*
X97001686Y-52810413D01*
X97002292Y-52812408D01*
X97001455Y-52812661D01*
X97013564Y-52841726D01*
X97017174Y-52851352D01*
X97017344Y-52853674D01*
X97020277Y-52860073D01*
X97021968Y-52864137D01*
X97023303Y-52867699D01*
X97026159Y-52872905D01*
X97030519Y-52882417D01*
X97046048Y-52919689D01*
X97052968Y-52931930D01*
X97055356Y-52936607D01*
X97058025Y-52942431D01*
X97064445Y-52952233D01*
X97064689Y-52952664D01*
X97068429Y-52959281D01*
X97069594Y-52964281D01*
X97083604Y-52986295D01*
X97085271Y-52989072D01*
X97094255Y-53004964D01*
X97101970Y-53015157D01*
X97104035Y-53018401D01*
X97104061Y-53018445D01*
X97118942Y-53041827D01*
X97119977Y-53043453D01*
X97121322Y-53048115D01*
X97129583Y-53058959D01*
X97132571Y-53063244D01*
X97136073Y-53068748D01*
X97143794Y-53077612D01*
X97144274Y-53078241D01*
X97148978Y-53084415D01*
X97150823Y-53089236D01*
X97167376Y-53108712D01*
X97169452Y-53111291D01*
X97184800Y-53131436D01*
X97202051Y-53149647D01*
X97204282Y-53152134D01*
X97220626Y-53171362D01*
X97238899Y-53188676D01*
X97241267Y-53191044D01*
X97258618Y-53209359D01*
X97277874Y-53225725D01*
X97280363Y-53227959D01*
X97298552Y-53245191D01*
X97318715Y-53260552D01*
X97321296Y-53262629D01*
X97334843Y-53274143D01*
X97345660Y-53281080D01*
X97351998Y-53285908D01*
X97352513Y-53286301D01*
X97355350Y-53290170D01*
X97366760Y-53297431D01*
X97371048Y-53300421D01*
X97376238Y-53304375D01*
X97386562Y-53310033D01*
X97387188Y-53310431D01*
X97407235Y-53323188D01*
X97407242Y-53323194D01*
X97414909Y-53328072D01*
X97418290Y-53331939D01*
X97440978Y-53344762D01*
X97443759Y-53346431D01*
X97459139Y-53356218D01*
X97470773Y-53361601D01*
X97477767Y-53365554D01*
X97481141Y-53369028D01*
X97493418Y-53374655D01*
X97498095Y-53377044D01*
X97510328Y-53383958D01*
X97547566Y-53399473D01*
X97557122Y-53403853D01*
X97558943Y-53405435D01*
X97565850Y-53408025D01*
X97569919Y-53409718D01*
X97573196Y-53411220D01*
X97578702Y-53412844D01*
X97588269Y-53416433D01*
X97613502Y-53426946D01*
X97624146Y-53429886D01*
X97647167Y-53438518D01*
X97648618Y-53438849D01*
X97650000Y-53437835D01*
X97650000Y-52549624D01*
X97664505Y-52622545D01*
X97719760Y-52705240D01*
X97802455Y-52760495D01*
X97900000Y-52779898D01*
X97997545Y-52760495D01*
X98080240Y-52705240D01*
X98135495Y-52622545D01*
X98150000Y-52549624D01*
X98150000Y-53485142D01*
X99130851Y-53485142D01*
X99145184Y-53483859D01*
X99145158Y-53483610D01*
X99153972Y-53482662D01*
X99293286Y-53447111D01*
X99297105Y-53445530D01*
X99297120Y-53445522D01*
X99391999Y-53393706D01*
X99497211Y-53295714D01*
X99570555Y-53172045D01*
X99571581Y-53169569D01*
X99572051Y-53168432D01*
X99602516Y-53064752D01*
X99602516Y-53064751D01*
X99603858Y-53027292D01*
X99610142Y-53008417D01*
X99610142Y-52450000D01*
X98150000Y-52450000D01*
X98150000Y-51950000D01*
X99610142Y-51950000D01*
X99610142Y-51394383D01*
X99608826Y-51379685D01*
X99608598Y-51379710D01*
X99607646Y-51370886D01*
X99572057Y-51231582D01*
X99571646Y-51230590D01*
X99570521Y-51227874D01*
X99570521Y-51227873D01*
X99518750Y-51133062D01*
X99518749Y-51133061D01*
X99420775Y-51027838D01*
X99413871Y-51022276D01*
X99415829Y-51019845D01*
X99378740Y-50980017D01*
X99366326Y-50911259D01*
X99393056Y-50846705D01*
X99450444Y-50806850D01*
X99489617Y-50800500D01*
X103313897Y-50800500D01*
X103380936Y-50820185D01*
X103426691Y-50872989D01*
X103436635Y-50942147D01*
X103407610Y-51005703D01*
X103398395Y-51015253D01*
X103302841Y-51104220D01*
X103229481Y-51227867D01*
X103229477Y-51227876D01*
X103228356Y-51230584D01*
X103227944Y-51231576D01*
X103227709Y-51232241D01*
X103227120Y-51234065D01*
X103210319Y-51281693D01*
X103208802Y-51292238D01*
X103205039Y-51309529D01*
X103197482Y-51335251D01*
X103196139Y-51372716D01*
X103189858Y-51391577D01*
X103189858Y-51950000D01*
X104650000Y-51950000D01*
X104650000Y-52450000D01*
X103189858Y-52450000D01*
X103189858Y-53005600D01*
X103191179Y-53020338D01*
X103191405Y-53020314D01*
X103192354Y-53029132D01*
X103227948Y-53168431D01*
X103228417Y-53169564D01*
X103229443Y-53172043D01*
X103281251Y-53266939D01*
X103379224Y-53372161D01*
X103379229Y-53372165D01*
X103502878Y-53445523D01*
X103502888Y-53445527D01*
X103506710Y-53447111D01*
X103610247Y-53477516D01*
X103647708Y-53478858D01*
X103666582Y-53485142D01*
X104650000Y-53485142D01*
X104650000Y-52549624D01*
X104664505Y-52622545D01*
X104719760Y-52705240D01*
X104802455Y-52760495D01*
X104900000Y-52779898D01*
X104997545Y-52760495D01*
X105080240Y-52705240D01*
X105135495Y-52622545D01*
X105150000Y-52549624D01*
X105150000Y-53437885D01*
X105151543Y-53439000D01*
X105177060Y-53429432D01*
X105181715Y-53427894D01*
X105184165Y-53427190D01*
X105184351Y-53427839D01*
X105211732Y-53416431D01*
X105221343Y-53412828D01*
X105223667Y-53412657D01*
X105230071Y-53409723D01*
X105234137Y-53408031D01*
X105237701Y-53406694D01*
X105242911Y-53403837D01*
X105252420Y-53399479D01*
X105289694Y-53383948D01*
X105301931Y-53377031D01*
X105306615Y-53374639D01*
X105312419Y-53371978D01*
X105322145Y-53365605D01*
X105323187Y-53365014D01*
X105329268Y-53361578D01*
X105334270Y-53360412D01*
X105356291Y-53346398D01*
X105359070Y-53344730D01*
X105374981Y-53335735D01*
X105385256Y-53327966D01*
X105387918Y-53326274D01*
X105412217Y-53310809D01*
X105413419Y-53310045D01*
X105418087Y-53308697D01*
X105428955Y-53300418D01*
X105433248Y-53297425D01*
X105438753Y-53293921D01*
X105447690Y-53286145D01*
X105448999Y-53285148D01*
X105454388Y-53281042D01*
X105459215Y-53279194D01*
X105471462Y-53268785D01*
X105471507Y-53268764D01*
X105478856Y-53262514D01*
X105481453Y-53260424D01*
X105501439Y-53245198D01*
X105519645Y-53227950D01*
X105522134Y-53225716D01*
X105541364Y-53209370D01*
X105558643Y-53191133D01*
X105561023Y-53188754D01*
X105567967Y-53182177D01*
X105567990Y-53182150D01*
X105579362Y-53171375D01*
X105595730Y-53152118D01*
X105597964Y-53149630D01*
X105615187Y-53131449D01*
X105630546Y-53111290D01*
X105632624Y-53108708D01*
X105644115Y-53095189D01*
X105651060Y-53084364D01*
X105655999Y-53077883D01*
X105656285Y-53077508D01*
X105660156Y-53074670D01*
X105667429Y-53063242D01*
X105670422Y-53058950D01*
X105674345Y-53053799D01*
X105679981Y-53043520D01*
X105680380Y-53042891D01*
X105692804Y-53023368D01*
X105692820Y-53023344D01*
X105698045Y-53015133D01*
X105701919Y-53011744D01*
X105714766Y-52989014D01*
X105716434Y-52986234D01*
X105726218Y-52970857D01*
X105731596Y-52959236D01*
X105735662Y-52952042D01*
X105735894Y-52951636D01*
X105739216Y-52948448D01*
X105744654Y-52936584D01*
X105747043Y-52931905D01*
X105753957Y-52919672D01*
X105769471Y-52882436D01*
X105773829Y-52872930D01*
X105775420Y-52871098D01*
X105778029Y-52864141D01*
X105779723Y-52860069D01*
X105781211Y-52856821D01*
X105782833Y-52851333D01*
X105786434Y-52841725D01*
X105796925Y-52816547D01*
X105799870Y-52805895D01*
X105801424Y-52801749D01*
X105803983Y-52798341D01*
X105806471Y-52789101D01*
X105808288Y-52783445D01*
X105809472Y-52780287D01*
X105811558Y-52770207D01*
X105811705Y-52769662D01*
X105813620Y-52766530D01*
X105822414Y-52729890D01*
X105825829Y-52717209D01*
X105827405Y-52714629D01*
X105829179Y-52705409D01*
X105830197Y-52700993D01*
X105830585Y-52699550D01*
X105831051Y-52695672D01*
X105832496Y-52688158D01*
X105833093Y-52685395D01*
X105841092Y-52652066D01*
X105843311Y-52632841D01*
X105844019Y-52628236D01*
X105847088Y-52612274D01*
X105849895Y-52575810D01*
X105851409Y-52562683D01*
X105852218Y-52560771D01*
X105852421Y-52555497D01*
X105852784Y-52550768D01*
X105853031Y-52548622D01*
X105852879Y-52543603D01*
X105853386Y-52530419D01*
X105854416Y-52517042D01*
X105855142Y-52515127D01*
X105855142Y-52509983D01*
X105855325Y-52505226D01*
X105855484Y-52503148D01*
X105855142Y-52498156D01*
X105855142Y-52484811D01*
X105856143Y-52458789D01*
X105855393Y-52450251D01*
X105855142Y-52450000D01*
X105150000Y-52450000D01*
X105150000Y-51950000D01*
X105855142Y-51950000D01*
X105856253Y-51948888D01*
X105856418Y-51948328D01*
X105855142Y-51915180D01*
X105855142Y-51901861D01*
X105855719Y-51899894D01*
X105855325Y-51894764D01*
X105855142Y-51890007D01*
X105855142Y-51887910D01*
X105854415Y-51882948D01*
X105853386Y-51869569D01*
X105852881Y-51856459D01*
X105853386Y-51854453D01*
X105852784Y-51849233D01*
X105852421Y-51844503D01*
X105852337Y-51842322D01*
X105851412Y-51837343D01*
X105849895Y-51824190D01*
X105847088Y-51787722D01*
X105844020Y-51771769D01*
X105843312Y-51767163D01*
X105841093Y-51747936D01*
X105833091Y-51714596D01*
X105832494Y-51711835D01*
X105831055Y-51704349D01*
X105831206Y-51702766D01*
X105830199Y-51699025D01*
X105829182Y-51694609D01*
X105828262Y-51689825D01*
X105825839Y-51682829D01*
X105822419Y-51670131D01*
X105814985Y-51639157D01*
X105811705Y-51630340D01*
X105811547Y-51629753D01*
X105811643Y-51625503D01*
X105808285Y-51616548D01*
X105806469Y-51610895D01*
X105805593Y-51607644D01*
X105801440Y-51598293D01*
X105799467Y-51593032D01*
X105797974Y-51588539D01*
X105797287Y-51586172D01*
X105797975Y-51585972D01*
X105786430Y-51558263D01*
X105782851Y-51548719D01*
X105782679Y-51546380D01*
X105779721Y-51539926D01*
X105778030Y-51535860D01*
X105776703Y-51532321D01*
X105773845Y-51527104D01*
X105769474Y-51517568D01*
X105753959Y-51480331D01*
X105747047Y-51468103D01*
X105744659Y-51463425D01*
X105742008Y-51457640D01*
X105735609Y-51447864D01*
X105735543Y-51447747D01*
X105731629Y-51440822D01*
X105730460Y-51435807D01*
X105716429Y-51413758D01*
X105714761Y-51410978D01*
X105705795Y-51395114D01*
X105698050Y-51384873D01*
X105694920Y-51379954D01*
X105680357Y-51357071D01*
X105680020Y-51356540D01*
X105678680Y-51351889D01*
X105670416Y-51341041D01*
X105667425Y-51336752D01*
X105663936Y-51331270D01*
X105656232Y-51322422D01*
X105655708Y-51321735D01*
X105651078Y-51315657D01*
X105649230Y-51310828D01*
X105632629Y-51291296D01*
X105630552Y-51288715D01*
X105615188Y-51268548D01*
X105597962Y-51250368D01*
X105595726Y-51247876D01*
X105579361Y-51228620D01*
X105561054Y-51211277D01*
X105558687Y-51208910D01*
X105541371Y-51190635D01*
X105522130Y-51174280D01*
X105519642Y-51172047D01*
X105501445Y-51154806D01*
X105481293Y-51139454D01*
X105478713Y-51137377D01*
X105465260Y-51125943D01*
X105454413Y-51118976D01*
X105450676Y-51116129D01*
X105447648Y-51113820D01*
X105444774Y-51109909D01*
X105433243Y-51102572D01*
X105428954Y-51099581D01*
X105423831Y-51095678D01*
X105413510Y-51090013D01*
X105412180Y-51089168D01*
X105405996Y-51085231D01*
X105388433Y-51074053D01*
X105388389Y-51074027D01*
X105385151Y-51071966D01*
X105381775Y-51068103D01*
X105359063Y-51055264D01*
X105356287Y-51053598D01*
X105340901Y-51043806D01*
X105329249Y-51038411D01*
X105322900Y-51034822D01*
X105322260Y-51034459D01*
X105273622Y-50984298D01*
X105267049Y-50969549D01*
X105266289Y-50967493D01*
X105261508Y-50897787D01*
X105295173Y-50836562D01*
X105356594Y-50803257D01*
X105382597Y-50800500D01*
X113275500Y-50800500D01*
X113342539Y-50820185D01*
X113388294Y-50872989D01*
X113399500Y-50924500D01*
X113399500Y-85513406D01*
X113379815Y-85580445D01*
X113327011Y-85626200D01*
X113275500Y-85637406D01*
X86524500Y-85637406D01*
X86457461Y-85617721D01*
X86411706Y-85564917D01*
X86400500Y-85513406D01*
X86400500Y-76260000D01*
X88764341Y-76260000D01*
X88784936Y-76495403D01*
X88784938Y-76495413D01*
X88846094Y-76723655D01*
X88846096Y-76723659D01*
X88846097Y-76723663D01*
X88925801Y-76894588D01*
X88945965Y-76937830D01*
X88945967Y-76937834D01*
X89037088Y-77067967D01*
X89081505Y-77131401D01*
X89248599Y-77298495D01*
X89415439Y-77415318D01*
X89434594Y-77428730D01*
X89478219Y-77483307D01*
X89485413Y-77552805D01*
X89453890Y-77615160D01*
X89434595Y-77631880D01*
X89248922Y-77761890D01*
X89248920Y-77761891D01*
X89081891Y-77928920D01*
X89081886Y-77928926D01*
X88946400Y-78122420D01*
X88946399Y-78122422D01*
X88846570Y-78336507D01*
X88846567Y-78336513D01*
X88789364Y-78549999D01*
X88789364Y-78550000D01*
X89686314Y-78550000D01*
X89660507Y-78590156D01*
X89620000Y-78728111D01*
X89620000Y-78871889D01*
X89660507Y-79009844D01*
X89686314Y-79050000D01*
X88789364Y-79050000D01*
X88846567Y-79263486D01*
X88846570Y-79263492D01*
X88946399Y-79477578D01*
X89081894Y-79671082D01*
X89248917Y-79838105D01*
X89442421Y-79973600D01*
X89656507Y-80073429D01*
X89656516Y-80073433D01*
X89870000Y-80130634D01*
X89870000Y-79235501D01*
X89977685Y-79284680D01*
X90084237Y-79300000D01*
X90155763Y-79300000D01*
X90262315Y-79284680D01*
X90370000Y-79235501D01*
X90370000Y-80130633D01*
X90583483Y-80073433D01*
X90583492Y-80073429D01*
X90797578Y-79973600D01*
X90991082Y-79838105D01*
X91158105Y-79671082D01*
X91288119Y-79485405D01*
X91342696Y-79441781D01*
X91412195Y-79434588D01*
X91474549Y-79466110D01*
X91491269Y-79485405D01*
X91621505Y-79671401D01*
X91788599Y-79838495D01*
X91885384Y-79906265D01*
X91982165Y-79974032D01*
X91982167Y-79974033D01*
X91982170Y-79974035D01*
X92196337Y-80073903D01*
X92196343Y-80073904D01*
X92196344Y-80073905D01*
X92251285Y-80088626D01*
X92424592Y-80135063D01*
X92601034Y-80150500D01*
X92659999Y-80155659D01*
X92660000Y-80155659D01*
X92660001Y-80155659D01*
X92718966Y-80150500D01*
X92895408Y-80135063D01*
X93123663Y-80073903D01*
X93337830Y-79974035D01*
X93531401Y-79838495D01*
X93698495Y-79671401D01*
X93828425Y-79485842D01*
X93883002Y-79442217D01*
X93952500Y-79435023D01*
X94014855Y-79466546D01*
X94031575Y-79485842D01*
X94161281Y-79671082D01*
X94161505Y-79671401D01*
X94328599Y-79838495D01*
X94425384Y-79906265D01*
X94522165Y-79974032D01*
X94522167Y-79974033D01*
X94522170Y-79974035D01*
X94736337Y-80073903D01*
X94736343Y-80073904D01*
X94736344Y-80073905D01*
X94791285Y-80088626D01*
X94964592Y-80135063D01*
X95141034Y-80150500D01*
X95199999Y-80155659D01*
X95200000Y-80155659D01*
X95200001Y-80155659D01*
X95258966Y-80150500D01*
X95435408Y-80135063D01*
X95663663Y-80073903D01*
X95877830Y-79974035D01*
X96071401Y-79838495D01*
X96193329Y-79716566D01*
X96254648Y-79683084D01*
X96324340Y-79688068D01*
X96380274Y-79729939D01*
X96397189Y-79760917D01*
X96446202Y-79892328D01*
X96446206Y-79892335D01*
X96532452Y-80007544D01*
X96532455Y-80007547D01*
X96647664Y-80093793D01*
X96647671Y-80093797D01*
X96782517Y-80144091D01*
X96782516Y-80144091D01*
X96789444Y-80144835D01*
X96842127Y-80150500D01*
X98637872Y-80150499D01*
X98697483Y-80144091D01*
X98832331Y-80093796D01*
X98850760Y-80080000D01*
X100844341Y-80080000D01*
X100864936Y-80315403D01*
X100864938Y-80315413D01*
X100926094Y-80543655D01*
X100926096Y-80543659D01*
X100926097Y-80543663D01*
X101009155Y-80721781D01*
X101025965Y-80757830D01*
X101025967Y-80757834D01*
X101134281Y-80912521D01*
X101161505Y-80951401D01*
X101328599Y-81118495D01*
X101425384Y-81186265D01*
X101522165Y-81254032D01*
X101522167Y-81254033D01*
X101522170Y-81254035D01*
X101736337Y-81353903D01*
X101964592Y-81415063D01*
X102152918Y-81431539D01*
X102199999Y-81435659D01*
X102200000Y-81435659D01*
X102200001Y-81435659D01*
X102239234Y-81432226D01*
X102435408Y-81415063D01*
X102663663Y-81353903D01*
X102877830Y-81254035D01*
X103071401Y-81118495D01*
X103238495Y-80951401D01*
X103368730Y-80765405D01*
X103423307Y-80721781D01*
X103492805Y-80714587D01*
X103555160Y-80746110D01*
X103571879Y-80765405D01*
X103701890Y-80951078D01*
X103868917Y-81118105D01*
X104062421Y-81253600D01*
X104276507Y-81353429D01*
X104276516Y-81353433D01*
X104490000Y-81410634D01*
X104490000Y-80515501D01*
X104597685Y-80564680D01*
X104704237Y-80580000D01*
X104775763Y-80580000D01*
X104882315Y-80564680D01*
X104990000Y-80515501D01*
X104990000Y-81410633D01*
X105203483Y-81353433D01*
X105203492Y-81353429D01*
X105417578Y-81253600D01*
X105611082Y-81118105D01*
X105778105Y-80951082D01*
X105913600Y-80757578D01*
X106013429Y-80543492D01*
X106013432Y-80543486D01*
X106070636Y-80330000D01*
X105173686Y-80330000D01*
X105199493Y-80289844D01*
X105240000Y-80151889D01*
X105240000Y-80008111D01*
X105199493Y-79870156D01*
X105173686Y-79830000D01*
X106070636Y-79830000D01*
X106070635Y-79829999D01*
X106013432Y-79616513D01*
X106013429Y-79616507D01*
X105913600Y-79402422D01*
X105913599Y-79402420D01*
X105778113Y-79208926D01*
X105778108Y-79208920D01*
X105611078Y-79041890D01*
X105425405Y-78911879D01*
X105381780Y-78857302D01*
X105374588Y-78787804D01*
X105406110Y-78725449D01*
X105425406Y-78708730D01*
X105425842Y-78708425D01*
X105611401Y-78578495D01*
X105778495Y-78411401D01*
X105914035Y-78217830D01*
X106013903Y-78003663D01*
X106075063Y-77775408D01*
X106095659Y-77540000D01*
X106075063Y-77304592D01*
X106013903Y-77076337D01*
X105914035Y-76862171D01*
X105908425Y-76854158D01*
X105778494Y-76668597D01*
X105611402Y-76501506D01*
X105611396Y-76501501D01*
X105425842Y-76371575D01*
X105382217Y-76316998D01*
X105375023Y-76247500D01*
X105406546Y-76185145D01*
X105425842Y-76168425D01*
X105448026Y-76152891D01*
X105611401Y-76038495D01*
X105778495Y-75871401D01*
X105914035Y-75677830D01*
X106013903Y-75463663D01*
X106075063Y-75235408D01*
X106095659Y-75000000D01*
X106075063Y-74764592D01*
X106013903Y-74536337D01*
X105914035Y-74322171D01*
X105778495Y-74128599D01*
X105778494Y-74128597D01*
X105611402Y-73961506D01*
X105611395Y-73961501D01*
X105417834Y-73825967D01*
X105417830Y-73825965D01*
X105417828Y-73825964D01*
X105203663Y-73726097D01*
X105203659Y-73726096D01*
X105203655Y-73726094D01*
X104975413Y-73664938D01*
X104975403Y-73664936D01*
X104740001Y-73644341D01*
X104739999Y-73644341D01*
X104504596Y-73664936D01*
X104504586Y-73664938D01*
X104276344Y-73726094D01*
X104276335Y-73726098D01*
X104062171Y-73825964D01*
X104062169Y-73825965D01*
X103868600Y-73961503D01*
X103746673Y-74083430D01*
X103685350Y-74116914D01*
X103615658Y-74111930D01*
X103559725Y-74070058D01*
X103542810Y-74039081D01*
X103493797Y-73907671D01*
X103493793Y-73907664D01*
X103407547Y-73792455D01*
X103407544Y-73792452D01*
X103292335Y-73706206D01*
X103292328Y-73706202D01*
X103157482Y-73655908D01*
X103157483Y-73655908D01*
X103097883Y-73649501D01*
X103097881Y-73649500D01*
X103097873Y-73649500D01*
X103097864Y-73649500D01*
X101302129Y-73649500D01*
X101302123Y-73649501D01*
X101242516Y-73655908D01*
X101107671Y-73706202D01*
X101107664Y-73706206D01*
X100992455Y-73792452D01*
X100992452Y-73792455D01*
X100906206Y-73907664D01*
X100906202Y-73907671D01*
X100855908Y-74042517D01*
X100849501Y-74102116D01*
X100849500Y-74102135D01*
X100849500Y-75897870D01*
X100849501Y-75897876D01*
X100855908Y-75957483D01*
X100906202Y-76092328D01*
X100906206Y-76092335D01*
X100992452Y-76207544D01*
X100992455Y-76207547D01*
X101107664Y-76293793D01*
X101107671Y-76293797D01*
X101239081Y-76342810D01*
X101295015Y-76384681D01*
X101319432Y-76450145D01*
X101304580Y-76518418D01*
X101283430Y-76546673D01*
X101161503Y-76668600D01*
X101025965Y-76862169D01*
X101025964Y-76862171D01*
X100926098Y-77076335D01*
X100926094Y-77076344D01*
X100864938Y-77304586D01*
X100864936Y-77304596D01*
X100844341Y-77539999D01*
X100844341Y-77540000D01*
X100864936Y-77775403D01*
X100864938Y-77775413D01*
X100926094Y-78003655D01*
X100926096Y-78003659D01*
X100926097Y-78003663D01*
X100986620Y-78133454D01*
X101025965Y-78217830D01*
X101025967Y-78217834D01*
X101109068Y-78336513D01*
X101161501Y-78411396D01*
X101161506Y-78411402D01*
X101328597Y-78578493D01*
X101328603Y-78578498D01*
X101514158Y-78708425D01*
X101557783Y-78763002D01*
X101564977Y-78832500D01*
X101533454Y-78894855D01*
X101514158Y-78911575D01*
X101328597Y-79041505D01*
X101161505Y-79208597D01*
X101025965Y-79402169D01*
X101025964Y-79402171D01*
X100926098Y-79616335D01*
X100926094Y-79616344D01*
X100864938Y-79844586D01*
X100864936Y-79844596D01*
X100844341Y-80079999D01*
X100844341Y-80080000D01*
X98850760Y-80080000D01*
X98947546Y-80007546D01*
X99033796Y-79892331D01*
X99084091Y-79757483D01*
X99090500Y-79697873D01*
X99090499Y-77902128D01*
X99084091Y-77842517D01*
X99082810Y-77839083D01*
X99033797Y-77707671D01*
X99033793Y-77707664D01*
X98947547Y-77592455D01*
X98947544Y-77592452D01*
X98832335Y-77506206D01*
X98832328Y-77506202D01*
X98700917Y-77457189D01*
X98644983Y-77415318D01*
X98620566Y-77349853D01*
X98635418Y-77281580D01*
X98656563Y-77253332D01*
X98778495Y-77131401D01*
X98914035Y-76937830D01*
X99013903Y-76723663D01*
X99075063Y-76495408D01*
X99095659Y-76260000D01*
X99075063Y-76024592D01*
X99013903Y-75796337D01*
X98914035Y-75582171D01*
X98908731Y-75574595D01*
X98778494Y-75388597D01*
X98611402Y-75221506D01*
X98611395Y-75221501D01*
X98417834Y-75085967D01*
X98417830Y-75085965D01*
X98417828Y-75085964D01*
X98203663Y-74986097D01*
X98203659Y-74986096D01*
X98203655Y-74986094D01*
X97975413Y-74924938D01*
X97975403Y-74924936D01*
X97740001Y-74904341D01*
X97739999Y-74904341D01*
X97504596Y-74924936D01*
X97504586Y-74924938D01*
X97276344Y-74986094D01*
X97276335Y-74986098D01*
X97062171Y-75085964D01*
X97062169Y-75085965D01*
X96868597Y-75221505D01*
X96701505Y-75388597D01*
X96571575Y-75574158D01*
X96516998Y-75617783D01*
X96447500Y-75624977D01*
X96385145Y-75593454D01*
X96368425Y-75574158D01*
X96238494Y-75388597D01*
X96071402Y-75221506D01*
X96071395Y-75221501D01*
X95877834Y-75085967D01*
X95877830Y-75085965D01*
X95877828Y-75085964D01*
X95663663Y-74986097D01*
X95663659Y-74986096D01*
X95663655Y-74986094D01*
X95435413Y-74924938D01*
X95435403Y-74924936D01*
X95200001Y-74904341D01*
X95199999Y-74904341D01*
X94964596Y-74924936D01*
X94964586Y-74924938D01*
X94736344Y-74986094D01*
X94736335Y-74986098D01*
X94522171Y-75085964D01*
X94522169Y-75085965D01*
X94328597Y-75221505D01*
X94161508Y-75388594D01*
X94031269Y-75574595D01*
X93976692Y-75618219D01*
X93907193Y-75625412D01*
X93844839Y-75593890D01*
X93828119Y-75574594D01*
X93698113Y-75388926D01*
X93698108Y-75388920D01*
X93531082Y-75221894D01*
X93337578Y-75086399D01*
X93123492Y-74986570D01*
X93123486Y-74986567D01*
X92910000Y-74929364D01*
X92910000Y-75824498D01*
X92802315Y-75775320D01*
X92695763Y-75760000D01*
X92624237Y-75760000D01*
X92517685Y-75775320D01*
X92410000Y-75824498D01*
X92410000Y-74929364D01*
X92409999Y-74929364D01*
X92196513Y-74986567D01*
X92196507Y-74986570D01*
X91982422Y-75086399D01*
X91982420Y-75086400D01*
X91788926Y-75221886D01*
X91788920Y-75221891D01*
X91621891Y-75388920D01*
X91621890Y-75388922D01*
X91491880Y-75574595D01*
X91437303Y-75618219D01*
X91367804Y-75625412D01*
X91305450Y-75593890D01*
X91288730Y-75574594D01*
X91158494Y-75388597D01*
X90991402Y-75221506D01*
X90991395Y-75221501D01*
X90797834Y-75085967D01*
X90797830Y-75085965D01*
X90797828Y-75085964D01*
X90583663Y-74986097D01*
X90583659Y-74986096D01*
X90583655Y-74986094D01*
X90355413Y-74924938D01*
X90355403Y-74924936D01*
X90120001Y-74904341D01*
X90119999Y-74904341D01*
X89884596Y-74924936D01*
X89884586Y-74924938D01*
X89656344Y-74986094D01*
X89656335Y-74986098D01*
X89442171Y-75085964D01*
X89442169Y-75085965D01*
X89248597Y-75221505D01*
X89081505Y-75388597D01*
X88945965Y-75582169D01*
X88945964Y-75582171D01*
X88846098Y-75796335D01*
X88846094Y-75796344D01*
X88784938Y-76024586D01*
X88784936Y-76024596D01*
X88764341Y-76259999D01*
X88764341Y-76260000D01*
X86400500Y-76260000D01*
X86400500Y-65650002D01*
X89544723Y-65650002D01*
X89563793Y-65867975D01*
X89563793Y-65867979D01*
X89620422Y-66079322D01*
X89620424Y-66079326D01*
X89620425Y-66079330D01*
X89666661Y-66178484D01*
X89712897Y-66277638D01*
X89712898Y-66277639D01*
X89838402Y-66456877D01*
X89993123Y-66611598D01*
X90172361Y-66737102D01*
X90370670Y-66829575D01*
X90582023Y-66886207D01*
X90764926Y-66902208D01*
X90799998Y-66905277D01*
X90800000Y-66905277D01*
X90800002Y-66905277D01*
X90828254Y-66902805D01*
X91017977Y-66886207D01*
X91229330Y-66829575D01*
X91427639Y-66737102D01*
X91606877Y-66611598D01*
X91761598Y-66456877D01*
X91887102Y-66277639D01*
X91979575Y-66079330D01*
X92036207Y-65867977D01*
X92055277Y-65650000D01*
X92036207Y-65432023D01*
X91979575Y-65220670D01*
X91887102Y-65022362D01*
X91887100Y-65022359D01*
X91887099Y-65022357D01*
X91761599Y-64843124D01*
X91761596Y-64843121D01*
X91606877Y-64688402D01*
X91427639Y-64562898D01*
X91427640Y-64562898D01*
X91427638Y-64562897D01*
X91328484Y-64516661D01*
X91229330Y-64470425D01*
X91229326Y-64470424D01*
X91229322Y-64470422D01*
X91017977Y-64413793D01*
X90800002Y-64394723D01*
X90799998Y-64394723D01*
X90654682Y-64407436D01*
X90582023Y-64413793D01*
X90582020Y-64413793D01*
X90370677Y-64470422D01*
X90370668Y-64470426D01*
X90172361Y-64562898D01*
X90172357Y-64562900D01*
X89993121Y-64688402D01*
X89838402Y-64843121D01*
X89712900Y-65022357D01*
X89712898Y-65022361D01*
X89620426Y-65220668D01*
X89620422Y-65220677D01*
X89563793Y-65432020D01*
X89563793Y-65432024D01*
X89544723Y-65649997D01*
X89544723Y-65650002D01*
X86400500Y-65650002D01*
X86400500Y-60770002D01*
X89544723Y-60770002D01*
X89563793Y-60987975D01*
X89563793Y-60987979D01*
X89620422Y-61199322D01*
X89620424Y-61199326D01*
X89620425Y-61199330D01*
X89666661Y-61298484D01*
X89712897Y-61397638D01*
X89712898Y-61397639D01*
X89838402Y-61576877D01*
X89993123Y-61731598D01*
X90172361Y-61857102D01*
X90370670Y-61949575D01*
X90582023Y-62006207D01*
X90764926Y-62022208D01*
X90799998Y-62025277D01*
X90800000Y-62025277D01*
X90800002Y-62025277D01*
X90828254Y-62022805D01*
X91017977Y-62006207D01*
X91229330Y-61949575D01*
X91427639Y-61857102D01*
X91606877Y-61731598D01*
X91761598Y-61576877D01*
X91887102Y-61397639D01*
X91979575Y-61199330D01*
X92036207Y-60987977D01*
X92055277Y-60770000D01*
X92036207Y-60552023D01*
X91979575Y-60340670D01*
X91887102Y-60142362D01*
X91887100Y-60142359D01*
X91887099Y-60142357D01*
X91761599Y-59963124D01*
X91761596Y-59963121D01*
X91606877Y-59808402D01*
X91427639Y-59682898D01*
X91427640Y-59682898D01*
X91427638Y-59682897D01*
X91328484Y-59636661D01*
X91229330Y-59590425D01*
X91229326Y-59590424D01*
X91229322Y-59590422D01*
X91017977Y-59533793D01*
X90800002Y-59514723D01*
X90799998Y-59514723D01*
X90654682Y-59527436D01*
X90582023Y-59533793D01*
X90582020Y-59533793D01*
X90370677Y-59590422D01*
X90370668Y-59590426D01*
X90172361Y-59682898D01*
X90172357Y-59682900D01*
X89993121Y-59808402D01*
X89838402Y-59963121D01*
X89712900Y-60142357D01*
X89712898Y-60142361D01*
X89620426Y-60340668D01*
X89620422Y-60340677D01*
X89563793Y-60552020D01*
X89563793Y-60552024D01*
X89544723Y-60769997D01*
X89544723Y-60770002D01*
X86400500Y-60770002D01*
X86400500Y-55150000D01*
X97777869Y-55150000D01*
X97845122Y-55331591D01*
X97845126Y-55331598D01*
X97950019Y-55499883D01*
X98086633Y-55643601D01*
X98086635Y-55643602D01*
X98249390Y-55756884D01*
X98431615Y-55835082D01*
X98625852Y-55875000D01*
X98650000Y-55875000D01*
X98650000Y-55165469D01*
X98697912Y-55175000D01*
X99102088Y-55175000D01*
X99150000Y-55165469D01*
X99150000Y-55872400D01*
X99272279Y-55859967D01*
X99461471Y-55800607D01*
X99461486Y-55800600D01*
X99634856Y-55704372D01*
X99634861Y-55704369D01*
X99785315Y-55575208D01*
X99785317Y-55575207D01*
X99906693Y-55418402D01*
X99906695Y-55418398D01*
X99994022Y-55240370D01*
X100017420Y-55150000D01*
X102777869Y-55150000D01*
X102845122Y-55331591D01*
X102845126Y-55331598D01*
X102950019Y-55499883D01*
X103086633Y-55643601D01*
X103086635Y-55643602D01*
X103249390Y-55756884D01*
X103431615Y-55835082D01*
X103625852Y-55875000D01*
X103650000Y-55875000D01*
X103650000Y-55165469D01*
X103697912Y-55175000D01*
X104102088Y-55175000D01*
X104150000Y-55165469D01*
X104150000Y-55872400D01*
X104272279Y-55859967D01*
X104461471Y-55800607D01*
X104461486Y-55800600D01*
X104634856Y-55704372D01*
X104634861Y-55704369D01*
X104785315Y-55575208D01*
X104785317Y-55575207D01*
X104906693Y-55418402D01*
X104906695Y-55418398D01*
X104994022Y-55240370D01*
X105017420Y-55150000D01*
X104195837Y-55150000D01*
X104273264Y-55098264D01*
X104334045Y-55007300D01*
X104355388Y-54900000D01*
X104334045Y-54792700D01*
X104273264Y-54701736D01*
X104195837Y-54650000D01*
X105022130Y-54650000D01*
X105022130Y-54649999D01*
X104954877Y-54468408D01*
X104954873Y-54468401D01*
X104849980Y-54300116D01*
X104713366Y-54156398D01*
X104713364Y-54156397D01*
X104550609Y-54043115D01*
X104368384Y-53964917D01*
X104174148Y-53925000D01*
X104150000Y-53925000D01*
X104150000Y-54634530D01*
X104102088Y-54625000D01*
X103697912Y-54625000D01*
X103650000Y-54634530D01*
X103650000Y-53927598D01*
X103649999Y-53927597D01*
X103527722Y-53940032D01*
X103527720Y-53940033D01*
X103338528Y-53999392D01*
X103338513Y-53999399D01*
X103165143Y-54095627D01*
X103165138Y-54095630D01*
X103014684Y-54224791D01*
X103014682Y-54224792D01*
X102893306Y-54381597D01*
X102893304Y-54381601D01*
X102805977Y-54559629D01*
X102782579Y-54649999D01*
X102782580Y-54650000D01*
X103604163Y-54650000D01*
X103526736Y-54701736D01*
X103465955Y-54792700D01*
X103444612Y-54900000D01*
X103465955Y-55007300D01*
X103526736Y-55098264D01*
X103604163Y-55150000D01*
X102777869Y-55150000D01*
X100017420Y-55150000D01*
X99195837Y-55150000D01*
X99273264Y-55098264D01*
X99334045Y-55007300D01*
X99355388Y-54900000D01*
X99334045Y-54792700D01*
X99273264Y-54701736D01*
X99195837Y-54650000D01*
X100022130Y-54650000D01*
X100022130Y-54649999D01*
X99954877Y-54468408D01*
X99954873Y-54468401D01*
X99849980Y-54300116D01*
X99713366Y-54156398D01*
X99713364Y-54156397D01*
X99550609Y-54043115D01*
X99368384Y-53964917D01*
X99174148Y-53925000D01*
X99150000Y-53925000D01*
X99150000Y-54634530D01*
X99102088Y-54625000D01*
X98697912Y-54625000D01*
X98650000Y-54634530D01*
X98650000Y-53927598D01*
X98649999Y-53927597D01*
X98527722Y-53940032D01*
X98527720Y-53940033D01*
X98338528Y-53999392D01*
X98338513Y-53999399D01*
X98165143Y-54095627D01*
X98165138Y-54095630D01*
X98014684Y-54224791D01*
X98014682Y-54224792D01*
X97893306Y-54381597D01*
X97893304Y-54381601D01*
X97805977Y-54559629D01*
X97782579Y-54649999D01*
X97782580Y-54650000D01*
X98604163Y-54650000D01*
X98526736Y-54701736D01*
X98465955Y-54792700D01*
X98444612Y-54900000D01*
X98465955Y-55007300D01*
X98526736Y-55098264D01*
X98604163Y-55150000D01*
X97777869Y-55150000D01*
X86400500Y-55150000D01*
X86400500Y-50924500D01*
X86420185Y-50857461D01*
X86472989Y-50811706D01*
X86524500Y-50800500D01*
X97417468Y-50800500D01*
X97484507Y-50820185D01*
G37*
%TD.AperFunction*%
%TD*%
M02*
