%TF.GenerationSoftware,KiCad,Pcbnew,7.0.8*%
%TF.CreationDate,2026-03-26T12:22:10-04:00*%
%TF.ProjectId,ReceiverPCB,52656365-6976-4657-9250-43422e6b6963,rev?*%
%TF.SameCoordinates,Original*%
%TF.FileFunction,Copper,L1,Top*%
%TF.FilePolarity,Positive*%
%FSLAX46Y46*%
G04 Gerber Fmt 4.6, Leading zero omitted, Abs format (unit mm)*
G04 Created by KiCad (PCBNEW 7.0.8) date 2026-03-26 12:22:10*
%MOMM*%
%LPD*%
G01*
G04 APERTURE LIST*
G04 Aperture macros list*
%AMRoundRect*
0 Rectangle with rounded corners*
0 $1 Rounding radius*
0 $2 $3 $4 $5 $6 $7 $8 $9 X,Y pos of 4 corners*
0 Add a 4 corners polygon primitive as box body*
4,1,4,$2,$3,$4,$5,$6,$7,$8,$9,$2,$3,0*
0 Add four circle primitives for the rounded corners*
1,1,$1+$1,$2,$3*
1,1,$1+$1,$4,$5*
1,1,$1+$1,$6,$7*
1,1,$1+$1,$8,$9*
0 Add four rect primitives between the rounded corners*
20,1,$1+$1,$2,$3,$4,$5,0*
20,1,$1+$1,$4,$5,$6,$7,0*
20,1,$1+$1,$6,$7,$8,$9,0*
20,1,$1+$1,$8,$9,$2,$3,0*%
%AMFreePoly0*
4,1,181,1.203536,0.778536,1.205000,0.775000,1.205000,-0.775000,1.203536,-0.778536,1.200000,-0.780000,0.055000,-0.780000,0.054904,-0.779960,0.054808,-0.779996,0.028808,-0.778996,0.028714,-0.778953,0.028617,-0.778985,0.002617,-0.776985,0.002525,-0.776938,0.002427,-0.776967,-0.023573,-0.773967,-0.023748,-0.773869,-0.023945,-0.773910,-0.049944,-0.768910,-0.050045,-0.768842,-0.050167,-0.768862,
-0.075167,-0.762862,-0.075226,-0.762818,-0.075300,-0.762828,-0.101300,-0.755828,-0.101501,-0.755673,-0.101756,-0.755682,-0.125756,-0.746682,-0.125827,-0.746615,-0.125923,-0.746615,-0.149923,-0.736615,-0.149989,-0.736548,-0.150083,-0.736545,-0.174083,-0.725545,-0.174235,-0.725380,-0.174460,-0.725353,-0.197460,-0.712353,-0.197546,-0.712242,-0.197684,-0.712218,-0.241684,-0.684218,-0.241812,-0.684034,
-0.242030,-0.683977,-0.263030,-0.667977,-0.263101,-0.667853,-0.263238,-0.667810,-0.283238,-0.650810,-0.283303,-0.650681,-0.283438,-0.650630,-0.302439,-0.632630,-0.302498,-0.632497,-0.302629,-0.632439,-0.320630,-0.613439,-0.320681,-0.613303,-0.320810,-0.613238,-0.337810,-0.593238,-0.337853,-0.593101,-0.337977,-0.593030,-0.353977,-0.572030,-0.354034,-0.571813,-0.354218,-0.571685,-0.382218,-0.527684,
-0.382241,-0.527547,-0.382353,-0.527461,-0.395353,-0.504460,-0.395380,-0.504235,-0.395545,-0.504083,-0.406545,-0.480083,-0.406548,-0.479989,-0.406615,-0.479923,-0.416615,-0.455923,-0.416615,-0.455827,-0.416682,-0.455756,-0.425682,-0.431756,-0.425673,-0.431501,-0.425828,-0.431300,-0.432828,-0.405300,-0.432818,-0.405226,-0.432862,-0.405167,-0.438862,-0.380167,-0.438842,-0.380045,-0.438910,-0.379944,
-0.443910,-0.353944,-0.443869,-0.353748,-0.443967,-0.353574,-0.446967,-0.327573,-0.446938,-0.327474,-0.446985,-0.327384,-0.448985,-0.301383,-0.448953,-0.301285,-0.448996,-0.301192,-0.449996,-0.275192,-0.449960,-0.275095,-0.450000,-0.275000,-0.450000,0.275000,-0.449960,0.275095,-0.449996,0.275192,-0.448996,0.301192,-0.448953,0.301285,-0.448985,0.301383,-0.446985,0.327384,-0.446938,0.327474,
-0.446967,0.327573,-0.443967,0.353574,-0.443869,0.353748,-0.443910,0.353944,-0.438910,0.379944,-0.438842,0.380045,-0.438862,0.380167,-0.432862,0.405167,-0.432818,0.405226,-0.432828,0.405300,-0.425828,0.431300,-0.425673,0.431501,-0.425682,0.431756,-0.416682,0.455756,-0.416615,0.455827,-0.416615,0.455923,-0.406615,0.479923,-0.406548,0.479989,-0.406545,0.480083,-0.395545,0.504083,
-0.395380,0.504235,-0.395353,0.504460,-0.382353,0.527461,-0.382241,0.527547,-0.382218,0.527684,-0.354218,0.571685,-0.354034,0.571813,-0.353977,0.572030,-0.337977,0.593030,-0.337853,0.593101,-0.337810,0.593238,-0.320810,0.613238,-0.320681,0.613303,-0.320630,0.613439,-0.302629,0.632439,-0.302498,0.632497,-0.302439,0.632630,-0.283438,0.650630,-0.283303,0.650681,-0.283238,0.650810,
-0.263238,0.667810,-0.263101,0.667853,-0.263030,0.667977,-0.242030,0.683977,-0.241812,0.684034,-0.241684,0.684218,-0.197684,0.712218,-0.197546,0.712242,-0.197460,0.712353,-0.174460,0.725353,-0.174235,0.725380,-0.174083,0.725545,-0.150083,0.736545,-0.149989,0.736548,-0.149923,0.736615,-0.125923,0.746615,-0.125827,0.746615,-0.125756,0.746682,-0.101756,0.755682,-0.101501,0.755673,
-0.101300,0.755828,-0.075300,0.762828,-0.075226,0.762818,-0.075167,0.762862,-0.050167,0.768862,-0.050045,0.768842,-0.049944,0.768910,-0.023945,0.773910,-0.023748,0.773869,-0.023573,0.773967,0.002427,0.776967,0.002525,0.776938,0.002617,0.776985,0.028617,0.778985,0.028714,0.778953,0.028808,0.778996,0.054808,0.779996,0.054904,0.779960,0.055000,0.780000,1.200000,0.780000,
1.203536,0.778536,1.203536,0.778536,$1*%
%AMFreePoly1*
4,1,181,-0.054904,0.779960,-0.054808,0.779996,-0.028808,0.778996,-0.028714,0.778953,-0.028617,0.778985,-0.002616,0.776985,-0.002525,0.776938,-0.002427,0.776967,0.023574,0.773967,0.023748,0.773869,0.023944,0.773910,0.049944,0.768910,0.050045,0.768842,0.050167,0.768862,0.075167,0.762862,0.075226,0.762818,0.075300,0.762828,0.101300,0.755828,0.101501,0.755673,0.101756,0.755682,
0.125756,0.746682,0.125827,0.746615,0.125923,0.746615,0.149923,0.736615,0.149989,0.736548,0.150083,0.736545,0.174083,0.725545,0.174235,0.725380,0.174460,0.725353,0.197461,0.712353,0.197547,0.712241,0.197684,0.712218,0.241685,0.684218,0.241813,0.684034,0.242030,0.683977,0.263030,0.667977,0.263101,0.667853,0.263238,0.667810,0.283238,0.650810,0.283303,0.650681,
0.283439,0.650630,0.302439,0.632629,0.302497,0.632498,0.302630,0.632439,0.320630,0.613438,0.320681,0.613303,0.320810,0.613238,0.337810,0.593238,0.337853,0.593101,0.337977,0.593030,0.353977,0.572030,0.354034,0.571812,0.354218,0.571684,0.382218,0.527684,0.382242,0.527546,0.382353,0.527460,0.395353,0.504460,0.395380,0.504235,0.395545,0.504083,0.406545,0.480083,
0.406548,0.479989,0.406615,0.479923,0.416615,0.455923,0.416615,0.455827,0.416682,0.455756,0.425682,0.431756,0.425673,0.431501,0.425828,0.431300,0.432828,0.405300,0.432818,0.405226,0.432862,0.405167,0.438862,0.380167,0.438842,0.380045,0.438910,0.379944,0.443910,0.353945,0.443869,0.353748,0.443967,0.353573,0.446967,0.327573,0.446938,0.327474,0.446985,0.327383,
0.448985,0.301383,0.448953,0.301285,0.448996,0.301192,0.449996,0.275192,0.449960,0.275095,0.450000,0.275000,0.450000,-0.275000,0.449960,-0.275095,0.449996,-0.275192,0.448996,-0.301192,0.448953,-0.301285,0.448985,-0.301383,0.446985,-0.327383,0.446938,-0.327474,0.446967,-0.327573,0.443967,-0.353573,0.443869,-0.353748,0.443910,-0.353945,0.438910,-0.379944,0.438842,-0.380045,
0.438862,-0.380167,0.432862,-0.405167,0.432818,-0.405226,0.432828,-0.405300,0.425828,-0.431300,0.425673,-0.431501,0.425682,-0.431756,0.416682,-0.455756,0.416615,-0.455827,0.416615,-0.455923,0.406615,-0.479923,0.406548,-0.479989,0.406545,-0.480083,0.395545,-0.504083,0.395380,-0.504235,0.395353,-0.504460,0.382353,-0.527460,0.382242,-0.527546,0.382218,-0.527684,0.354218,-0.571684,
0.354034,-0.571812,0.353977,-0.572030,0.337977,-0.593030,0.337853,-0.593101,0.337810,-0.593238,0.320810,-0.613238,0.320681,-0.613303,0.320630,-0.613438,0.302630,-0.632439,0.302497,-0.632498,0.302439,-0.632629,0.283439,-0.650630,0.283303,-0.650681,0.283238,-0.650810,0.263238,-0.667810,0.263101,-0.667853,0.263030,-0.667977,0.242030,-0.683977,0.241813,-0.684034,0.241685,-0.684218,
0.197684,-0.712218,0.197547,-0.712241,0.197461,-0.712353,0.174460,-0.725353,0.174235,-0.725380,0.174083,-0.725545,0.150083,-0.736545,0.149989,-0.736548,0.149923,-0.736615,0.125923,-0.746615,0.125827,-0.746615,0.125756,-0.746682,0.101756,-0.755682,0.101501,-0.755673,0.101300,-0.755828,0.075300,-0.762828,0.075226,-0.762818,0.075167,-0.762862,0.050167,-0.768862,0.050045,-0.768842,
0.049944,-0.768910,0.023944,-0.773910,0.023748,-0.773869,0.023574,-0.773967,-0.002427,-0.776967,-0.002525,-0.776938,-0.002616,-0.776985,-0.028617,-0.778985,-0.028714,-0.778953,-0.028808,-0.778996,-0.054808,-0.779996,-0.054904,-0.779960,-0.055000,-0.780000,-1.200000,-0.780000,-1.203536,-0.778536,-1.205000,-0.775000,-1.205000,0.775000,-1.203536,0.778536,-1.200000,0.780000,-0.055000,0.780000,
-0.054904,0.779960,-0.054904,0.779960,$1*%
G04 Aperture macros list end*
%TA.AperFunction,SMDPad,CuDef*%
%ADD10RoundRect,0.250000X0.250000X0.475000X-0.250000X0.475000X-0.250000X-0.475000X0.250000X-0.475000X0*%
%TD*%
%TA.AperFunction,SMDPad,CuDef*%
%ADD11RoundRect,0.250000X-0.250000X-0.475000X0.250000X-0.475000X0.250000X0.475000X-0.250000X0.475000X0*%
%TD*%
%TA.AperFunction,SMDPad,CuDef*%
%ADD12R,0.400000X1.350000*%
%TD*%
%TA.AperFunction,ComponentPad*%
%ADD13FreePoly0,180.000000*%
%TD*%
%TA.AperFunction,SMDPad,CuDef*%
%ADD14R,1.500000X1.550000*%
%TD*%
%TA.AperFunction,ComponentPad*%
%ADD15FreePoly1,180.000000*%
%TD*%
%TA.AperFunction,ComponentPad*%
%ADD16O,1.300000X0.950000*%
%TD*%
%TA.AperFunction,ComponentPad*%
%ADD17R,1.700000X1.700000*%
%TD*%
%TA.AperFunction,ComponentPad*%
%ADD18O,1.700000X1.700000*%
%TD*%
%TA.AperFunction,SMDPad,CuDef*%
%ADD19RoundRect,0.250000X-0.262500X-0.450000X0.262500X-0.450000X0.262500X0.450000X-0.262500X0.450000X0*%
%TD*%
%TA.AperFunction,ComponentPad*%
%ADD20C,1.500000*%
%TD*%
%TA.AperFunction,SMDPad,CuDef*%
%ADD21R,1.600000X0.550000*%
%TD*%
%TA.AperFunction,SMDPad,CuDef*%
%ADD22R,0.550000X1.600000*%
%TD*%
%TA.AperFunction,ViaPad*%
%ADD23C,0.800000*%
%TD*%
%TA.AperFunction,Conductor*%
%ADD24C,0.250000*%
%TD*%
G04 APERTURE END LIST*
D10*
%TO.P,C5,1*%
%TO.N,GND*%
X110350000Y-71800000D03*
%TO.P,C5,2*%
%TO.N,Net-(U1-AREF)*%
X108450000Y-71800000D03*
%TD*%
%TO.P,C2,1*%
%TO.N,5V*%
X110350000Y-62400000D03*
%TO.P,C2,2*%
%TO.N,GND*%
X108450000Y-62400000D03*
%TD*%
D11*
%TO.P,C3,1*%
%TO.N,Net-(U1-XTAL1{slash}PB6)*%
X91050000Y-54800000D03*
%TO.P,C3,2*%
%TO.N,GND*%
X92950000Y-54800000D03*
%TD*%
%TO.P,C1,1*%
%TO.N,GND*%
X108450000Y-57600000D03*
%TO.P,C1,2*%
%TO.N,5V*%
X110350000Y-57600000D03*
%TD*%
D12*
%TO.P,J2,1,VCC*%
%TO.N,5V*%
X102700000Y-54875000D03*
%TO.P,J2,2,D-*%
%TO.N,unconnected-(J2-D--Pad2)*%
X102050000Y-54875000D03*
%TO.P,J2,3,D+*%
%TO.N,unconnected-(J2-D+-Pad3)*%
X101400000Y-54875000D03*
%TO.P,J2,4,ID*%
%TO.N,unconnected-(J2-ID-Pad4)*%
X100750000Y-54875000D03*
%TO.P,J2,5,GND*%
%TO.N,GND*%
X100100000Y-54875000D03*
D13*
%TO.P,J2,SH1,SHIELD*%
X104900000Y-52200000D03*
D14*
%TO.P,J2,SH2,SHIELD*%
X100400000Y-52200000D03*
%TO.P,J2,SH3,SHIELD*%
X102400000Y-52200000D03*
D15*
%TO.P,J2,SH4,SHIELD*%
X97900000Y-52200000D03*
D16*
%TO.P,J2,SH5,SHIELD*%
X103900000Y-54900000D03*
%TO.P,J2,SH6,SHIELD*%
X98900000Y-54900000D03*
%TD*%
D10*
%TO.P,C4,1*%
%TO.N,GND*%
X92950000Y-71600000D03*
%TO.P,C4,2*%
%TO.N,Net-(U1-XTAL2{slash}PB7)*%
X91050000Y-71600000D03*
%TD*%
D17*
%TO.P,J3,1,Pin_1*%
%TO.N,5V*%
X97740000Y-78800000D03*
D18*
%TO.P,J3,2,Pin_2*%
%TO.N,PING*%
X97740000Y-76260000D03*
%TO.P,J3,3,Pin_3*%
%TO.N,DATA*%
X95200000Y-78800000D03*
%TO.P,J3,4,Pin_4*%
%TO.N,5V*%
X95200000Y-76260000D03*
%TO.P,J3,5,Pin_5*%
%TO.N,DATA*%
X92660000Y-78800000D03*
%TO.P,J3,6,Pin_6*%
%TO.N,GND*%
X92660000Y-76260000D03*
%TO.P,J3,7,Pin_7*%
X90120000Y-78800000D03*
%TO.P,J3,8,Pin_8*%
%TO.N,unconnected-(J3-Pin_8-Pad8)*%
X90120000Y-76260000D03*
%TD*%
D19*
%TO.P,R1,1*%
%TO.N,Net-(J1-~{RST})*%
X108487500Y-67200000D03*
%TO.P,R1,2*%
%TO.N,5V*%
X110312500Y-67200000D03*
%TD*%
D20*
%TO.P,Y1,1,1*%
%TO.N,Net-(U1-XTAL2{slash}PB7)*%
X90800000Y-65650000D03*
%TO.P,Y1,2,2*%
%TO.N,Net-(U1-XTAL1{slash}PB6)*%
X90800000Y-60770000D03*
%TD*%
D17*
%TO.P,J1,1,MISO*%
%TO.N,Net-(J1-MISO)*%
X102200000Y-75000000D03*
D18*
%TO.P,J1,2,VCC*%
%TO.N,5V*%
X104740000Y-75000000D03*
%TO.P,J1,3,SCK*%
%TO.N,Net-(J1-SCK)*%
X102200000Y-77540000D03*
%TO.P,J1,4,MOSI*%
%TO.N,Net-(J1-MOSI)*%
X104740000Y-77540000D03*
%TO.P,J1,5,~{RST}*%
%TO.N,Net-(J1-~{RST})*%
X102200000Y-80080000D03*
%TO.P,J1,6,GND*%
%TO.N,GND*%
X104740000Y-80080000D03*
%TD*%
D21*
%TO.P,U1,1,PD3*%
%TO.N,unconnected-(U1-PD3-Pad1)*%
X96950000Y-61600000D03*
%TO.P,U1,2,PD4*%
%TO.N,unconnected-(U1-PD4-Pad2)*%
X96950000Y-62400000D03*
%TO.P,U1,3,GND*%
%TO.N,GND*%
X96950000Y-63200000D03*
%TO.P,U1,4,VCC*%
%TO.N,5V*%
X96950000Y-64000000D03*
%TO.P,U1,5,GND*%
%TO.N,GND*%
X96950000Y-64800000D03*
%TO.P,U1,6,VCC*%
%TO.N,5V*%
X96950000Y-65600000D03*
%TO.P,U1,7,XTAL1/PB6*%
%TO.N,Net-(U1-XTAL1{slash}PB6)*%
X96950000Y-66400000D03*
%TO.P,U1,8,XTAL2/PB7*%
%TO.N,Net-(U1-XTAL2{slash}PB7)*%
X96950000Y-67200000D03*
D22*
%TO.P,U1,9,PD5*%
%TO.N,unconnected-(U1-PD5-Pad9)*%
X98400000Y-68650000D03*
%TO.P,U1,10,PD6*%
%TO.N,unconnected-(U1-PD6-Pad10)*%
X99200000Y-68650000D03*
%TO.P,U1,11,PD7*%
%TO.N,unconnected-(U1-PD7-Pad11)*%
X100000000Y-68650000D03*
%TO.P,U1,12,PB0*%
%TO.N,DATA*%
X100800000Y-68650000D03*
%TO.P,U1,13,PB1*%
%TO.N,PING*%
X101600000Y-68650000D03*
%TO.P,U1,14,PB2*%
%TO.N,unconnected-(U1-PB2-Pad14)*%
X102400000Y-68650000D03*
%TO.P,U1,15,PB3*%
%TO.N,Net-(J1-MOSI)*%
X103200000Y-68650000D03*
%TO.P,U1,16,PB4*%
%TO.N,Net-(J1-MISO)*%
X104000000Y-68650000D03*
D21*
%TO.P,U1,17,PB5*%
%TO.N,Net-(J1-SCK)*%
X105450000Y-67200000D03*
%TO.P,U1,18,AVCC*%
%TO.N,5V*%
X105450000Y-66400000D03*
%TO.P,U1,19,ADC6*%
%TO.N,unconnected-(U1-ADC6-Pad19)*%
X105450000Y-65600000D03*
%TO.P,U1,20,AREF*%
%TO.N,Net-(U1-AREF)*%
X105450000Y-64800000D03*
%TO.P,U1,21,GND*%
%TO.N,GND*%
X105450000Y-64000000D03*
%TO.P,U1,22,ADC7*%
%TO.N,unconnected-(U1-ADC7-Pad22)*%
X105450000Y-63200000D03*
%TO.P,U1,23,PC0*%
%TO.N,unconnected-(U1-PC0-Pad23)*%
X105450000Y-62400000D03*
%TO.P,U1,24,PC1*%
%TO.N,unconnected-(U1-PC1-Pad24)*%
X105450000Y-61600000D03*
D22*
%TO.P,U1,25,PC2*%
%TO.N,unconnected-(U1-PC2-Pad25)*%
X104000000Y-60150000D03*
%TO.P,U1,26,PC3*%
%TO.N,unconnected-(U1-PC3-Pad26)*%
X103200000Y-60150000D03*
%TO.P,U1,27,PC4*%
%TO.N,unconnected-(U1-PC4-Pad27)*%
X102400000Y-60150000D03*
%TO.P,U1,28,PC5*%
%TO.N,unconnected-(U1-PC5-Pad28)*%
X101600000Y-60150000D03*
%TO.P,U1,29,~{RESET}/PC6*%
%TO.N,Net-(J1-~{RST})*%
X100800000Y-60150000D03*
%TO.P,U1,30,PD0*%
%TO.N,unconnected-(U1-PD0-Pad30)*%
X100000000Y-60150000D03*
%TO.P,U1,31,PD1*%
%TO.N,unconnected-(U1-PD1-Pad31)*%
X99200000Y-60150000D03*
%TO.P,U1,32,PD2*%
%TO.N,unconnected-(U1-PD2-Pad32)*%
X98400000Y-60150000D03*
%TD*%
D23*
%TO.N,GND*%
X109200000Y-53000000D03*
X95200000Y-64000000D03*
X109000000Y-84600000D03*
X112200000Y-53000000D03*
X112000000Y-84600000D03*
X94600000Y-71600000D03*
X92600000Y-74400000D03*
X88800000Y-73400000D03*
X88800000Y-84400000D03*
X94600000Y-54800000D03*
X108800000Y-69600000D03*
X107400000Y-64800000D03*
X108400000Y-59000000D03*
X109200000Y-76400000D03*
X88800000Y-82200000D03*
X94600000Y-84400000D03*
X100000000Y-56200000D03*
X108400000Y-61000000D03*
X88800000Y-70400000D03*
X89000000Y-56000000D03*
X89000000Y-53000000D03*
X109200000Y-79400000D03*
X111000000Y-73400000D03*
X94600000Y-82200000D03*
%TD*%
D24*
%TO.N,GND*%
X108400000Y-59000000D02*
X108400000Y-57650000D01*
X100800000Y-53800000D02*
X100200000Y-53800000D01*
X100000000Y-54975000D02*
X100100000Y-54875000D01*
X110350000Y-72750000D02*
X111000000Y-73400000D01*
X107400000Y-64800000D02*
X106600000Y-64000000D01*
X96950000Y-63200000D02*
X96150000Y-63200000D01*
X92950000Y-71600000D02*
X94600000Y-71600000D01*
X100000000Y-56200000D02*
X100000000Y-54975000D01*
X92600000Y-74400000D02*
X92600000Y-76200000D01*
X95675000Y-63525000D02*
X95825000Y-63525000D01*
X106600000Y-64000000D02*
X105450000Y-64000000D01*
X108400000Y-61000000D02*
X108400000Y-62350000D01*
X96150000Y-64800000D02*
X96950000Y-64800000D01*
X100400000Y-52200000D02*
X102400000Y-52200000D01*
X95825000Y-64475000D02*
X96150000Y-64800000D01*
X100100000Y-53900000D02*
X100100000Y-54875000D01*
X96150000Y-63200000D02*
X95825000Y-63525000D01*
X104900000Y-52200000D02*
X104900000Y-53900000D01*
X97900000Y-52200000D02*
X100400000Y-52200000D01*
X92600000Y-76200000D02*
X92660000Y-76260000D01*
X108400000Y-57650000D02*
X108450000Y-57600000D01*
X110350000Y-71800000D02*
X110350000Y-72750000D01*
X100075000Y-54900000D02*
X100100000Y-54875000D01*
X102400000Y-52200000D02*
X104900000Y-52200000D01*
X102400000Y-52200000D02*
X100800000Y-53800000D01*
X95200000Y-64000000D02*
X95675000Y-63525000D01*
X104900000Y-53900000D02*
X103900000Y-54900000D01*
X108400000Y-62350000D02*
X108450000Y-62400000D01*
X100200000Y-53800000D02*
X100100000Y-53900000D01*
X95825000Y-63525000D02*
X95825000Y-64475000D01*
X94600000Y-54800000D02*
X92950000Y-54800000D01*
%TO.N,Net-(U1-XTAL1{slash}PB6)*%
X90800000Y-61520000D02*
X95680000Y-66400000D01*
X91050000Y-60520000D02*
X90800000Y-60770000D01*
X95680000Y-66400000D02*
X96950000Y-66400000D01*
X91050000Y-54800000D02*
X91050000Y-60520000D01*
X90800000Y-60770000D02*
X90800000Y-61520000D01*
%TO.N,Net-(U1-XTAL2{slash}PB7)*%
X92350000Y-67200000D02*
X91050000Y-68500000D01*
X90800000Y-65650000D02*
X92350000Y-67200000D01*
X92350000Y-67200000D02*
X96950000Y-67200000D01*
X91050000Y-68500000D02*
X91050000Y-71600000D01*
%TO.N,Net-(U1-AREF)*%
X108450000Y-71800000D02*
X107400000Y-70750000D01*
X106184620Y-64800000D02*
X105450000Y-64800000D01*
X106575000Y-65190380D02*
X106184620Y-64800000D01*
X106575000Y-65923896D02*
X106575000Y-65190380D01*
X107400000Y-66748896D02*
X106575000Y-65923896D01*
X107400000Y-70750000D02*
X107400000Y-66748896D01*
%TO.N,Net-(J1-MISO)*%
X104000000Y-68650000D02*
X104000000Y-73200000D01*
X104000000Y-73200000D02*
X102200000Y-75000000D01*
%TO.N,Net-(J1-~{RST})*%
X107025000Y-61640380D02*
X104409620Y-59025000D01*
X108487500Y-67200000D02*
X108487500Y-64612070D01*
X109850000Y-82750000D02*
X112000000Y-80600000D01*
X108487500Y-64612070D02*
X107025000Y-63149570D01*
X112000000Y-70712500D02*
X108487500Y-67200000D01*
X100800000Y-59415380D02*
X100800000Y-60150000D01*
X107025000Y-63149570D02*
X107025000Y-61640380D01*
X104409620Y-59025000D02*
X101190380Y-59025000D01*
X102200000Y-80080000D02*
X104870000Y-82750000D01*
X104870000Y-82750000D02*
X109850000Y-82750000D01*
X112000000Y-80600000D02*
X112000000Y-70712500D01*
X101190380Y-59025000D02*
X100800000Y-59415380D01*
%TO.N,DATA*%
X95200000Y-78800000D02*
X96375000Y-77625000D01*
X100800000Y-69600000D02*
X100800000Y-68650000D01*
X96375000Y-74025000D02*
X100800000Y-69600000D01*
X92660000Y-78800000D02*
X95200000Y-78800000D01*
X96375000Y-77625000D02*
X96375000Y-74025000D01*
%TO.N,Net-(J1-SCK)*%
X105450000Y-72386396D02*
X103400000Y-74436396D01*
X105450000Y-67200000D02*
X105450000Y-72386396D01*
X103400000Y-74436396D02*
X103400000Y-76340000D01*
X103400000Y-76340000D02*
X102200000Y-77540000D01*
%TO.N,Net-(J1-MOSI)*%
X104740000Y-77540000D02*
X103480000Y-78800000D01*
X102050000Y-70186396D02*
X102398224Y-70186396D01*
X102398224Y-70186396D02*
X103200000Y-69384620D01*
X100800000Y-74072792D02*
X101000000Y-73872792D01*
X103200000Y-69384620D02*
X103200000Y-68650000D01*
X101000000Y-73872792D02*
X101000000Y-71236396D01*
X100800000Y-78200000D02*
X100800000Y-74072792D01*
X101000000Y-71236396D02*
X102050000Y-70186396D01*
X101400000Y-78800000D02*
X100800000Y-78200000D01*
X103480000Y-78800000D02*
X101400000Y-78800000D01*
%TO.N,PING*%
X97740000Y-73860000D02*
X97740000Y-76260000D01*
X101600000Y-70000000D02*
X97740000Y-73860000D01*
X101600000Y-68650000D02*
X101600000Y-70000000D01*
%TO.N,5V*%
X99400000Y-65600000D02*
X103915380Y-65600000D01*
X99284620Y-65600000D02*
X99400000Y-65600000D01*
X110350000Y-61675000D02*
X110350000Y-62400000D01*
X105450000Y-66400000D02*
X106184620Y-66400000D01*
X94475000Y-64300305D02*
X94475000Y-59925000D01*
X97740000Y-80340000D02*
X98800000Y-81400000D01*
X104715380Y-66400000D02*
X105450000Y-66400000D01*
X102700000Y-55550000D02*
X105725000Y-58575000D01*
X103915380Y-65600000D02*
X104715380Y-66400000D01*
X95200000Y-76260000D02*
X93860000Y-77600000D01*
X96950000Y-65600000D02*
X99400000Y-65600000D01*
X112450000Y-80786396D02*
X112450000Y-69337500D01*
X107512348Y-59687652D02*
X108099695Y-60275000D01*
X97740000Y-78800000D02*
X97740000Y-80340000D01*
X98800000Y-81400000D02*
X100600000Y-83200000D01*
X106650000Y-73090000D02*
X106650000Y-66865380D01*
X110350000Y-57600000D02*
X110350000Y-62400000D01*
X110350000Y-62400000D02*
X110350000Y-67162500D01*
X94475000Y-59925000D02*
X95825000Y-58575000D01*
X110350000Y-67162500D02*
X110312500Y-67200000D01*
X104740000Y-75000000D02*
X106650000Y-73090000D01*
X91485000Y-78114973D02*
X91485000Y-79385027D01*
X93499973Y-81400000D02*
X98800000Y-81400000D01*
X96950000Y-65600000D02*
X95774695Y-65600000D01*
X110036396Y-83200000D02*
X112450000Y-80786396D01*
X100600000Y-83200000D02*
X110036396Y-83200000D01*
X97684620Y-64000000D02*
X99284620Y-65600000D01*
X106184620Y-66400000D02*
X106650000Y-66865380D01*
X102700000Y-54875000D02*
X102700000Y-55550000D01*
X105725000Y-58575000D02*
X106399695Y-58575000D01*
X96950000Y-64000000D02*
X97684620Y-64000000D01*
X95825000Y-58575000D02*
X106399695Y-58575000D01*
X108099695Y-60275000D02*
X108950000Y-60275000D01*
X91999973Y-77600000D02*
X91485000Y-78114973D01*
X112450000Y-69337500D02*
X110312500Y-67200000D01*
X91485000Y-79385027D02*
X93499973Y-81400000D01*
X106399695Y-58575000D02*
X107512348Y-59687652D01*
X93860000Y-77600000D02*
X91999973Y-77600000D01*
X95774695Y-65600000D02*
X94475000Y-64300305D01*
X108950000Y-60275000D02*
X110350000Y-61675000D01*
%TD*%
%TA.AperFunction,Conductor*%
%TO.N,GND*%
G36*
X97484507Y-50820185D02*
G01*
X97530262Y-50872989D01*
X97540206Y-50942147D01*
X97533703Y-50967691D01*
X97532955Y-50969704D01*
X97491152Y-51025689D01*
X97477681Y-51034493D01*
X97477319Y-51034698D01*
X97470775Y-51038398D01*
X97465766Y-51039565D01*
X97443756Y-51053570D01*
X97440981Y-51055236D01*
X97425112Y-51064205D01*
X97414880Y-51071944D01*
X97407401Y-51076704D01*
X97407372Y-51076724D01*
X97387300Y-51089496D01*
X97386533Y-51089984D01*
X97381883Y-51091323D01*
X97371045Y-51099581D01*
X97366758Y-51102570D01*
X97361258Y-51106070D01*
X97352268Y-51113885D01*
X97352003Y-51114087D01*
X97345641Y-51118934D01*
X97340815Y-51120780D01*
X97321295Y-51137371D01*
X97318716Y-51139446D01*
X97298550Y-51154809D01*
X97280361Y-51172042D01*
X97277873Y-51174275D01*
X97258618Y-51190639D01*
X97241279Y-51208945D01*
X97238908Y-51211316D01*
X97220627Y-51228634D01*
X97204275Y-51247875D01*
X97202042Y-51250363D01*
X97184799Y-51268563D01*
X97169457Y-51288702D01*
X97167381Y-51291281D01*
X97155900Y-51304788D01*
X97148946Y-51315625D01*
X97144127Y-51321950D01*
X97143905Y-51322241D01*
X97139959Y-51325150D01*
X97137021Y-51329767D01*
X97137016Y-51329770D01*
X97132571Y-51336756D01*
X97129585Y-51341038D01*
X97125657Y-51346193D01*
X97120007Y-51356496D01*
X97119033Y-51358030D01*
X97118520Y-51358837D01*
X97104252Y-51381255D01*
X97104240Y-51381275D01*
X97101958Y-51384861D01*
X97098095Y-51388238D01*
X97085261Y-51410943D01*
X97083594Y-51413719D01*
X97073797Y-51429114D01*
X97068406Y-51440758D01*
X97064465Y-51447729D01*
X97060990Y-51451102D01*
X97055361Y-51463384D01*
X97052972Y-51468062D01*
X97046050Y-51480307D01*
X97030523Y-51517572D01*
X97026160Y-51527093D01*
X97024570Y-51528922D01*
X97021969Y-51535859D01*
X97020280Y-51539919D01*
X97018788Y-51543174D01*
X97017157Y-51548693D01*
X97013564Y-51558274D01*
X97003062Y-51583481D01*
X97000116Y-51594141D01*
X96998533Y-51598362D01*
X96996005Y-51601725D01*
X96993544Y-51610861D01*
X96991732Y-51616498D01*
X96990523Y-51619720D01*
X96988415Y-51629897D01*
X96988263Y-51630459D01*
X96986354Y-51633574D01*
X96977579Y-51670130D01*
X96974165Y-51682814D01*
X96972590Y-51685390D01*
X96970815Y-51694620D01*
X96969800Y-51699025D01*
X96969408Y-51700480D01*
X96968944Y-51704351D01*
X96967504Y-51711834D01*
X96966909Y-51714591D01*
X96958904Y-51747942D01*
X96956685Y-51767168D01*
X96955979Y-51771767D01*
X96952912Y-51787712D01*
X96950109Y-51824148D01*
X96948585Y-51837364D01*
X96947779Y-51839266D01*
X96947578Y-51844504D01*
X96947215Y-51849224D01*
X96946965Y-51851386D01*
X96947119Y-51856423D01*
X96946612Y-51869604D01*
X96945585Y-51882955D01*
X96944858Y-51884872D01*
X96944858Y-51890022D01*
X96944675Y-51894779D01*
X96944513Y-51896885D01*
X96944858Y-51901875D01*
X96944858Y-51915173D01*
X96943853Y-51941258D01*
X96944602Y-51949744D01*
X96944858Y-51950000D01*
X97650000Y-51950000D01*
X97650000Y-52450000D01*
X96944858Y-52450000D01*
X96943767Y-52451090D01*
X96943583Y-52451716D01*
X96944858Y-52484814D01*
X96944858Y-52498211D01*
X96944285Y-52500160D01*
X96944675Y-52505224D01*
X96944858Y-52509982D01*
X96944858Y-52512084D01*
X96945585Y-52517045D01*
X96946614Y-52530423D01*
X96947122Y-52543631D01*
X96946620Y-52545619D01*
X96947216Y-52550783D01*
X96947579Y-52555503D01*
X96947663Y-52557706D01*
X96948589Y-52562676D01*
X96950107Y-52575827D01*
X96952912Y-52612284D01*
X96955980Y-52628237D01*
X96956687Y-52632838D01*
X96958905Y-52652061D01*
X96966909Y-52685409D01*
X96967506Y-52688173D01*
X96968960Y-52695735D01*
X96968809Y-52697298D01*
X96969801Y-52700979D01*
X96970817Y-52705389D01*
X96971742Y-52710204D01*
X96974171Y-52717209D01*
X96977584Y-52729886D01*
X96985023Y-52760881D01*
X96988286Y-52769633D01*
X96988470Y-52770315D01*
X96988376Y-52774552D01*
X96991713Y-52783451D01*
X96993528Y-52789101D01*
X96994412Y-52792384D01*
X96998575Y-52801752D01*
X97000408Y-52806639D01*
X97001686Y-52810413D01*
X97002292Y-52812408D01*
X97001455Y-52812661D01*
X97013564Y-52841726D01*
X97017174Y-52851352D01*
X97017344Y-52853674D01*
X97020277Y-52860073D01*
X97021968Y-52864137D01*
X97023303Y-52867699D01*
X97026159Y-52872905D01*
X97030519Y-52882417D01*
X97046048Y-52919689D01*
X97052968Y-52931930D01*
X97055356Y-52936607D01*
X97058025Y-52942431D01*
X97064445Y-52952233D01*
X97064689Y-52952664D01*
X97068429Y-52959281D01*
X97069594Y-52964281D01*
X97083604Y-52986295D01*
X97085271Y-52989072D01*
X97094255Y-53004964D01*
X97101970Y-53015157D01*
X97104035Y-53018401D01*
X97104061Y-53018445D01*
X97118942Y-53041827D01*
X97119977Y-53043453D01*
X97121322Y-53048115D01*
X97129583Y-53058959D01*
X97132571Y-53063244D01*
X97136073Y-53068748D01*
X97143794Y-53077612D01*
X97144274Y-53078241D01*
X97148978Y-53084415D01*
X97150823Y-53089236D01*
X97167376Y-53108712D01*
X97169452Y-53111291D01*
X97184800Y-53131436D01*
X97202051Y-53149647D01*
X97204282Y-53152134D01*
X97220626Y-53171362D01*
X97238899Y-53188676D01*
X97241267Y-53191044D01*
X97258618Y-53209359D01*
X97277874Y-53225725D01*
X97280363Y-53227959D01*
X97298552Y-53245191D01*
X97318715Y-53260552D01*
X97321296Y-53262629D01*
X97334843Y-53274143D01*
X97345660Y-53281080D01*
X97351998Y-53285908D01*
X97352513Y-53286301D01*
X97355350Y-53290170D01*
X97366760Y-53297431D01*
X97371048Y-53300421D01*
X97376238Y-53304375D01*
X97386562Y-53310033D01*
X97387188Y-53310431D01*
X97407235Y-53323188D01*
X97407242Y-53323194D01*
X97414909Y-53328072D01*
X97418290Y-53331939D01*
X97440978Y-53344762D01*
X97443759Y-53346431D01*
X97459139Y-53356218D01*
X97470773Y-53361601D01*
X97477767Y-53365554D01*
X97481141Y-53369028D01*
X97493418Y-53374655D01*
X97498095Y-53377044D01*
X97510328Y-53383958D01*
X97547566Y-53399473D01*
X97557122Y-53403853D01*
X97558943Y-53405435D01*
X97565850Y-53408025D01*
X97569919Y-53409718D01*
X97573196Y-53411220D01*
X97578702Y-53412844D01*
X97588269Y-53416433D01*
X97613502Y-53426946D01*
X97624146Y-53429886D01*
X97647167Y-53438518D01*
X97648618Y-53438849D01*
X97650000Y-53437835D01*
X97650000Y-52549624D01*
X97664505Y-52622545D01*
X97719760Y-52705240D01*
X97802455Y-52760495D01*
X97900000Y-52779898D01*
X97997545Y-52760495D01*
X98080240Y-52705240D01*
X98135495Y-52622545D01*
X98150000Y-52549624D01*
X98150000Y-53485142D01*
X99130851Y-53485142D01*
X99145184Y-53483859D01*
X99145158Y-53483610D01*
X99153972Y-53482662D01*
X99293286Y-53447111D01*
X99297114Y-53445526D01*
X99321931Y-53431972D01*
X99390202Y-53417113D01*
X99424703Y-53424616D01*
X99542620Y-53468596D01*
X99542627Y-53468598D01*
X99602155Y-53474999D01*
X99602172Y-53475000D01*
X99725750Y-53475000D01*
X99792789Y-53494685D01*
X99838544Y-53547489D01*
X99848488Y-53616647D01*
X99819463Y-53680203D01*
X99769083Y-53715182D01*
X99657913Y-53756645D01*
X99657906Y-53756649D01*
X99542812Y-53842809D01*
X99487487Y-53916714D01*
X99431553Y-53958584D01*
X99363260Y-53963864D01*
X99174148Y-53925000D01*
X99150000Y-53925000D01*
X99150000Y-54634530D01*
X99102088Y-54625000D01*
X98697912Y-54625000D01*
X98650000Y-54634530D01*
X98650000Y-53927598D01*
X98649999Y-53927597D01*
X98527722Y-53940032D01*
X98527720Y-53940033D01*
X98338528Y-53999392D01*
X98338513Y-53999399D01*
X98165143Y-54095627D01*
X98165138Y-54095630D01*
X98014684Y-54224791D01*
X98014682Y-54224792D01*
X97893306Y-54381597D01*
X97893304Y-54381601D01*
X97805977Y-54559629D01*
X97782579Y-54649999D01*
X97782580Y-54650000D01*
X98604163Y-54650000D01*
X98526736Y-54701736D01*
X98465955Y-54792700D01*
X98444612Y-54900000D01*
X98465955Y-55007300D01*
X98526736Y-55098264D01*
X98604163Y-55150000D01*
X97777869Y-55150000D01*
X97845122Y-55331591D01*
X97845126Y-55331598D01*
X97950019Y-55499883D01*
X98086633Y-55643601D01*
X98086635Y-55643602D01*
X98249390Y-55756884D01*
X98431615Y-55835082D01*
X98625852Y-55875000D01*
X98650000Y-55875000D01*
X98650000Y-55165469D01*
X98697912Y-55175000D01*
X99102088Y-55175000D01*
X99150000Y-55165469D01*
X99150000Y-55872400D01*
X99272277Y-55859967D01*
X99378955Y-55826496D01*
X99448813Y-55825208D01*
X99508277Y-55861893D01*
X99515344Y-55870498D01*
X99542809Y-55907186D01*
X99542814Y-55907191D01*
X99657906Y-55993350D01*
X99657913Y-55993354D01*
X99792620Y-56043596D01*
X99792627Y-56043598D01*
X99852155Y-56049999D01*
X99852172Y-56050000D01*
X99900000Y-56050000D01*
X99900000Y-55889435D01*
X99919685Y-55822396D01*
X99972489Y-55776641D01*
X100041647Y-55766697D01*
X100105203Y-55795722D01*
X100123266Y-55815123D01*
X100192454Y-55907546D01*
X100250311Y-55950858D01*
X100292182Y-56006789D01*
X100299972Y-56049972D01*
X100300000Y-56050000D01*
X100347828Y-56050000D01*
X100347839Y-56049999D01*
X100409395Y-56043380D01*
X100435909Y-56043380D01*
X100442514Y-56044090D01*
X100442517Y-56044091D01*
X100502127Y-56050500D01*
X100997872Y-56050499D01*
X101057483Y-56044091D01*
X101057486Y-56044089D01*
X101061744Y-56043632D01*
X101088254Y-56043632D01*
X101092514Y-56044089D01*
X101092517Y-56044091D01*
X101152127Y-56050500D01*
X101647872Y-56050499D01*
X101707483Y-56044091D01*
X101707486Y-56044089D01*
X101711744Y-56043632D01*
X101738254Y-56043632D01*
X101742514Y-56044089D01*
X101742517Y-56044091D01*
X101802127Y-56050500D01*
X102264547Y-56050499D01*
X102331586Y-56070183D01*
X102352228Y-56086818D01*
X104003228Y-57737819D01*
X104036713Y-57799142D01*
X104031729Y-57868834D01*
X103989857Y-57924767D01*
X103924393Y-57949184D01*
X103915547Y-57949500D01*
X95907737Y-57949500D01*
X95892120Y-57947776D01*
X95892093Y-57948062D01*
X95884331Y-57947327D01*
X95815203Y-57949500D01*
X95785650Y-57949500D01*
X95784929Y-57949590D01*
X95778757Y-57950369D01*
X95772945Y-57950826D01*
X95726378Y-57952290D01*
X95726367Y-57952292D01*
X95707134Y-57957879D01*
X95688094Y-57961822D01*
X95668217Y-57964334D01*
X95668210Y-57964335D01*
X95668208Y-57964336D01*
X95668206Y-57964336D01*
X95668205Y-57964337D01*
X95624868Y-57981494D01*
X95619342Y-57983386D01*
X95574611Y-57996382D01*
X95574608Y-57996383D01*
X95557363Y-58006581D01*
X95539901Y-58015135D01*
X95521272Y-58022511D01*
X95521267Y-58022513D01*
X95483564Y-58049906D01*
X95478682Y-58053112D01*
X95438580Y-58076828D01*
X95424408Y-58091000D01*
X95409623Y-58103628D01*
X95393412Y-58115407D01*
X95363709Y-58151310D01*
X95359777Y-58155631D01*
X94091208Y-59424199D01*
X94078951Y-59434020D01*
X94079134Y-59434241D01*
X94073123Y-59439213D01*
X94025772Y-59489636D01*
X94004889Y-59510519D01*
X94004877Y-59510532D01*
X94000621Y-59516017D01*
X93996837Y-59520447D01*
X93964937Y-59554418D01*
X93964936Y-59554420D01*
X93955284Y-59571976D01*
X93944610Y-59588226D01*
X93932329Y-59604061D01*
X93932324Y-59604068D01*
X93913815Y-59646838D01*
X93911245Y-59652084D01*
X93888803Y-59692906D01*
X93883822Y-59712307D01*
X93877521Y-59730710D01*
X93869562Y-59749102D01*
X93869561Y-59749105D01*
X93862271Y-59795127D01*
X93861087Y-59800846D01*
X93849501Y-59845972D01*
X93849500Y-59845982D01*
X93849500Y-59866016D01*
X93847973Y-59885415D01*
X93844840Y-59905194D01*
X93844840Y-59905195D01*
X93849225Y-59951583D01*
X93849500Y-59957421D01*
X93849500Y-63385547D01*
X93829815Y-63452586D01*
X93777011Y-63498341D01*
X93707853Y-63508285D01*
X93644297Y-63479260D01*
X93637819Y-63473228D01*
X91826880Y-61662289D01*
X91793395Y-61600966D01*
X91798379Y-61531274D01*
X91812980Y-61503495D01*
X91887102Y-61397639D01*
X91979575Y-61199330D01*
X92036207Y-60987977D01*
X92055277Y-60770000D01*
X92036207Y-60552023D01*
X91979575Y-60340670D01*
X91887102Y-60142362D01*
X91887100Y-60142359D01*
X91887099Y-60142357D01*
X91761597Y-59963121D01*
X91711819Y-59913343D01*
X91678334Y-59852020D01*
X91675500Y-59825662D01*
X91675500Y-55994377D01*
X91695185Y-55927338D01*
X91734406Y-55888837D01*
X91764139Y-55870498D01*
X91768656Y-55867712D01*
X91892712Y-55743656D01*
X91894752Y-55740347D01*
X91896745Y-55738555D01*
X91897193Y-55737989D01*
X91897289Y-55738065D01*
X91946694Y-55693623D01*
X92015656Y-55682395D01*
X92079740Y-55710234D01*
X92105829Y-55740339D01*
X92107681Y-55743341D01*
X92107683Y-55743344D01*
X92231654Y-55867315D01*
X92380875Y-55959356D01*
X92380880Y-55959358D01*
X92547302Y-56014505D01*
X92547309Y-56014506D01*
X92650019Y-56024999D01*
X92699999Y-56024998D01*
X92700000Y-56024998D01*
X92700000Y-55050000D01*
X93200000Y-55050000D01*
X93200000Y-56024999D01*
X93249972Y-56024999D01*
X93249986Y-56024998D01*
X93352697Y-56014505D01*
X93519119Y-55959358D01*
X93519124Y-55959356D01*
X93668345Y-55867315D01*
X93792315Y-55743345D01*
X93884356Y-55594124D01*
X93884358Y-55594119D01*
X93939505Y-55427697D01*
X93939506Y-55427690D01*
X93949999Y-55324986D01*
X93950000Y-55324973D01*
X93950000Y-55050000D01*
X93200000Y-55050000D01*
X92700000Y-55050000D01*
X92700000Y-53575000D01*
X93200000Y-53575000D01*
X93200000Y-54550000D01*
X93949999Y-54550000D01*
X93949999Y-54275028D01*
X93949998Y-54275013D01*
X93939505Y-54172302D01*
X93884358Y-54005880D01*
X93884356Y-54005875D01*
X93792315Y-53856654D01*
X93668345Y-53732684D01*
X93519124Y-53640643D01*
X93519119Y-53640641D01*
X93352697Y-53585494D01*
X93352690Y-53585493D01*
X93249986Y-53575000D01*
X93200000Y-53575000D01*
X92700000Y-53575000D01*
X92699999Y-53574999D01*
X92650029Y-53575000D01*
X92650011Y-53575001D01*
X92547302Y-53585494D01*
X92380880Y-53640641D01*
X92380875Y-53640643D01*
X92231654Y-53732684D01*
X92107683Y-53856655D01*
X92107679Y-53856660D01*
X92105826Y-53859665D01*
X92104018Y-53861290D01*
X92103202Y-53862323D01*
X92103025Y-53862183D01*
X92053874Y-53906385D01*
X91984911Y-53917601D01*
X91920831Y-53889752D01*
X91894753Y-53859653D01*
X91894737Y-53859628D01*
X91892712Y-53856344D01*
X91768656Y-53732288D01*
X91675888Y-53675069D01*
X91619336Y-53640187D01*
X91619331Y-53640185D01*
X91603466Y-53634928D01*
X91452797Y-53585001D01*
X91452795Y-53585000D01*
X91350010Y-53574500D01*
X90749998Y-53574500D01*
X90749980Y-53574501D01*
X90647203Y-53585000D01*
X90647200Y-53585001D01*
X90480668Y-53640185D01*
X90480663Y-53640187D01*
X90331342Y-53732289D01*
X90207289Y-53856342D01*
X90115187Y-54005663D01*
X90115185Y-54005668D01*
X90087349Y-54089670D01*
X90060001Y-54172203D01*
X90060001Y-54172204D01*
X90060000Y-54172204D01*
X90049500Y-54274983D01*
X90049500Y-55325001D01*
X90049501Y-55325019D01*
X90060000Y-55427796D01*
X90060001Y-55427799D01*
X90083888Y-55499883D01*
X90115186Y-55594334D01*
X90207096Y-55743345D01*
X90207289Y-55743657D01*
X90331345Y-55867713D01*
X90365594Y-55888837D01*
X90412320Y-55940784D01*
X90424500Y-55994377D01*
X90424500Y-59486327D01*
X90404815Y-59553366D01*
X90352905Y-59598709D01*
X90172361Y-59682898D01*
X90172357Y-59682900D01*
X89993121Y-59808402D01*
X89838402Y-59963121D01*
X89712900Y-60142357D01*
X89712898Y-60142361D01*
X89620426Y-60340668D01*
X89620422Y-60340677D01*
X89563793Y-60552020D01*
X89563793Y-60552024D01*
X89544723Y-60769997D01*
X89544723Y-60770002D01*
X89563793Y-60987975D01*
X89563793Y-60987979D01*
X89620422Y-61199322D01*
X89620424Y-61199326D01*
X89620425Y-61199330D01*
X89648348Y-61259210D01*
X89712897Y-61397638D01*
X89712898Y-61397639D01*
X89838402Y-61576877D01*
X89993123Y-61731598D01*
X90172361Y-61857102D01*
X90293625Y-61913648D01*
X90333983Y-61946916D01*
X90335066Y-61945900D01*
X90340406Y-61951587D01*
X90376309Y-61981288D01*
X90380620Y-61985210D01*
X93668531Y-65273122D01*
X94758228Y-66362819D01*
X94791713Y-66424142D01*
X94786729Y-66493834D01*
X94744857Y-66549767D01*
X94679393Y-66574184D01*
X94670547Y-66574500D01*
X92660452Y-66574500D01*
X92593413Y-66554815D01*
X92572771Y-66538181D01*
X92058588Y-66023998D01*
X92025103Y-65962675D01*
X92026495Y-65904221D01*
X92036206Y-65867981D01*
X92036206Y-65867979D01*
X92036207Y-65867977D01*
X92055277Y-65650000D01*
X92036207Y-65432023D01*
X91979575Y-65220670D01*
X91887102Y-65022362D01*
X91887100Y-65022359D01*
X91887099Y-65022357D01*
X91761599Y-64843124D01*
X91687566Y-64769091D01*
X91606877Y-64688402D01*
X91441668Y-64572721D01*
X91427638Y-64562897D01*
X91320036Y-64512722D01*
X91229330Y-64470425D01*
X91229326Y-64470424D01*
X91229322Y-64470422D01*
X91017977Y-64413793D01*
X90800002Y-64394723D01*
X90799998Y-64394723D01*
X90666345Y-64406416D01*
X90582023Y-64413793D01*
X90582020Y-64413793D01*
X90370677Y-64470422D01*
X90370670Y-64470424D01*
X90370670Y-64470425D01*
X90356280Y-64477135D01*
X90172361Y-64562898D01*
X90172357Y-64562900D01*
X89993121Y-64688402D01*
X89838402Y-64843121D01*
X89712900Y-65022357D01*
X89712898Y-65022361D01*
X89620426Y-65220668D01*
X89620422Y-65220677D01*
X89563793Y-65432020D01*
X89563793Y-65432024D01*
X89544723Y-65649997D01*
X89544723Y-65650002D01*
X89563793Y-65867975D01*
X89563793Y-65867979D01*
X89620422Y-66079322D01*
X89620424Y-66079326D01*
X89620425Y-66079330D01*
X89666661Y-66178484D01*
X89712897Y-66277638D01*
X89712898Y-66277639D01*
X89838402Y-66456877D01*
X89993123Y-66611598D01*
X90172361Y-66737102D01*
X90370670Y-66829575D01*
X90582023Y-66886207D01*
X90764926Y-66902208D01*
X90799998Y-66905277D01*
X90800000Y-66905277D01*
X90800002Y-66905277D01*
X90830212Y-66902633D01*
X91017977Y-66886207D01*
X91054221Y-66876495D01*
X91124071Y-66878156D01*
X91173997Y-66908587D01*
X91377728Y-67112319D01*
X91411213Y-67173641D01*
X91406229Y-67243333D01*
X91377728Y-67287680D01*
X90666208Y-67999199D01*
X90653951Y-68009020D01*
X90654134Y-68009241D01*
X90648123Y-68014213D01*
X90600772Y-68064636D01*
X90579889Y-68085519D01*
X90579877Y-68085532D01*
X90575621Y-68091017D01*
X90571837Y-68095447D01*
X90539937Y-68129418D01*
X90539936Y-68129420D01*
X90530284Y-68146976D01*
X90519610Y-68163226D01*
X90507329Y-68179061D01*
X90507324Y-68179068D01*
X90488815Y-68221838D01*
X90486245Y-68227084D01*
X90463803Y-68267906D01*
X90458822Y-68287307D01*
X90452521Y-68305710D01*
X90444562Y-68324102D01*
X90444561Y-68324105D01*
X90437271Y-68370127D01*
X90436087Y-68375846D01*
X90424501Y-68420972D01*
X90424500Y-68420982D01*
X90424500Y-68441016D01*
X90422973Y-68460415D01*
X90419840Y-68480194D01*
X90419840Y-68480195D01*
X90424225Y-68526583D01*
X90424500Y-68532421D01*
X90424500Y-70405621D01*
X90404815Y-70472660D01*
X90365599Y-70511158D01*
X90331346Y-70532285D01*
X90207289Y-70656342D01*
X90115187Y-70805663D01*
X90115185Y-70805668D01*
X90098290Y-70856655D01*
X90060001Y-70972203D01*
X90060001Y-70972204D01*
X90060000Y-70972204D01*
X90049500Y-71074983D01*
X90049500Y-72125001D01*
X90049501Y-72125019D01*
X90060000Y-72227796D01*
X90060001Y-72227799D01*
X90115185Y-72394331D01*
X90115187Y-72394336D01*
X90124511Y-72409452D01*
X90207288Y-72543656D01*
X90331344Y-72667712D01*
X90480666Y-72759814D01*
X90647203Y-72814999D01*
X90749991Y-72825500D01*
X91350008Y-72825499D01*
X91350016Y-72825498D01*
X91350019Y-72825498D01*
X91406302Y-72819748D01*
X91452797Y-72814999D01*
X91619334Y-72759814D01*
X91768656Y-72667712D01*
X91892712Y-72543656D01*
X91894752Y-72540347D01*
X91896745Y-72538555D01*
X91897193Y-72537989D01*
X91897289Y-72538065D01*
X91946694Y-72493623D01*
X92015656Y-72482395D01*
X92079740Y-72510234D01*
X92105829Y-72540339D01*
X92107681Y-72543341D01*
X92107683Y-72543344D01*
X92231654Y-72667315D01*
X92380875Y-72759356D01*
X92380880Y-72759358D01*
X92547302Y-72814505D01*
X92547309Y-72814506D01*
X92650019Y-72824999D01*
X92699999Y-72824998D01*
X92700000Y-72824998D01*
X92700000Y-71850000D01*
X93200000Y-71850000D01*
X93200000Y-72824999D01*
X93249972Y-72824999D01*
X93249986Y-72824998D01*
X93352697Y-72814505D01*
X93519119Y-72759358D01*
X93519124Y-72759356D01*
X93668345Y-72667315D01*
X93792315Y-72543345D01*
X93884356Y-72394124D01*
X93884358Y-72394119D01*
X93939505Y-72227697D01*
X93939506Y-72227690D01*
X93949999Y-72124986D01*
X93950000Y-72124973D01*
X93950000Y-71850000D01*
X93200000Y-71850000D01*
X92700000Y-71850000D01*
X92700000Y-70375000D01*
X93200000Y-70375000D01*
X93200000Y-71350000D01*
X93949999Y-71350000D01*
X93949999Y-71075028D01*
X93949998Y-71075013D01*
X93939505Y-70972302D01*
X93884358Y-70805880D01*
X93884356Y-70805875D01*
X93792315Y-70656654D01*
X93668345Y-70532684D01*
X93519124Y-70440643D01*
X93519119Y-70440641D01*
X93352697Y-70385494D01*
X93352690Y-70385493D01*
X93249986Y-70375000D01*
X93200000Y-70375000D01*
X92700000Y-70375000D01*
X92699999Y-70374999D01*
X92650029Y-70375000D01*
X92650011Y-70375001D01*
X92547302Y-70385494D01*
X92380880Y-70440641D01*
X92380875Y-70440643D01*
X92231654Y-70532684D01*
X92107683Y-70656655D01*
X92107679Y-70656660D01*
X92105826Y-70659665D01*
X92104018Y-70661290D01*
X92103202Y-70662323D01*
X92103025Y-70662183D01*
X92053874Y-70706385D01*
X91984911Y-70717601D01*
X91920831Y-70689752D01*
X91894753Y-70659653D01*
X91893586Y-70657761D01*
X91892712Y-70656344D01*
X91768656Y-70532288D01*
X91768653Y-70532285D01*
X91734401Y-70511158D01*
X91687678Y-70459210D01*
X91675500Y-70405621D01*
X91675500Y-68810452D01*
X91695185Y-68743413D01*
X91711819Y-68722771D01*
X92572771Y-67861819D01*
X92634094Y-67828334D01*
X92660452Y-67825500D01*
X95741769Y-67825500D01*
X95808808Y-67845185D01*
X95816080Y-67850233D01*
X95907668Y-67918795D01*
X95907671Y-67918797D01*
X96042517Y-67969091D01*
X96042516Y-67969091D01*
X96049444Y-67969835D01*
X96102127Y-67975500D01*
X97500500Y-67975499D01*
X97567539Y-67995184D01*
X97613294Y-68047987D01*
X97624500Y-68099499D01*
X97624500Y-69497870D01*
X97624501Y-69497876D01*
X97630908Y-69557483D01*
X97681202Y-69692328D01*
X97681206Y-69692335D01*
X97767452Y-69807544D01*
X97767455Y-69807547D01*
X97882664Y-69893793D01*
X97882671Y-69893797D01*
X97927618Y-69910561D01*
X98017517Y-69944091D01*
X98077127Y-69950500D01*
X98722872Y-69950499D01*
X98782483Y-69944091D01*
X98782486Y-69944089D01*
X98786744Y-69943632D01*
X98813254Y-69943632D01*
X98817514Y-69944089D01*
X98817517Y-69944091D01*
X98877127Y-69950500D01*
X99265548Y-69950499D01*
X99332586Y-69970183D01*
X99378341Y-70022987D01*
X99388285Y-70092146D01*
X99359260Y-70155701D01*
X99353228Y-70162180D01*
X95991208Y-73524199D01*
X95978951Y-73534020D01*
X95979134Y-73534241D01*
X95973123Y-73539213D01*
X95925772Y-73589636D01*
X95904889Y-73610519D01*
X95904877Y-73610532D01*
X95900621Y-73616017D01*
X95896837Y-73620447D01*
X95864937Y-73654418D01*
X95864936Y-73654420D01*
X95855284Y-73671976D01*
X95844610Y-73688226D01*
X95832329Y-73704061D01*
X95832324Y-73704068D01*
X95813815Y-73746838D01*
X95811245Y-73752084D01*
X95788803Y-73792906D01*
X95783822Y-73812307D01*
X95777521Y-73830710D01*
X95769562Y-73849102D01*
X95769561Y-73849105D01*
X95762271Y-73895127D01*
X95761087Y-73900846D01*
X95749501Y-73945972D01*
X95749500Y-73945982D01*
X95749500Y-73966016D01*
X95747973Y-73985415D01*
X95744840Y-74005194D01*
X95744840Y-74005195D01*
X95749225Y-74051583D01*
X95749500Y-74057421D01*
X95749500Y-74847496D01*
X95729815Y-74914535D01*
X95677011Y-74960290D01*
X95607853Y-74970234D01*
X95593408Y-74967271D01*
X95435416Y-74924939D01*
X95435412Y-74924938D01*
X95435408Y-74924937D01*
X95435406Y-74924936D01*
X95435403Y-74924936D01*
X95200001Y-74904341D01*
X95199999Y-74904341D01*
X94964596Y-74924936D01*
X94964586Y-74924938D01*
X94736344Y-74986094D01*
X94736335Y-74986098D01*
X94522171Y-75085964D01*
X94522169Y-75085965D01*
X94328597Y-75221505D01*
X94161508Y-75388594D01*
X94031269Y-75574595D01*
X93976692Y-75618219D01*
X93907193Y-75625412D01*
X93844839Y-75593890D01*
X93828119Y-75574594D01*
X93698113Y-75388926D01*
X93698108Y-75388920D01*
X93531082Y-75221894D01*
X93337578Y-75086399D01*
X93123492Y-74986570D01*
X93123486Y-74986567D01*
X92910000Y-74929364D01*
X92910000Y-75824498D01*
X92802315Y-75775320D01*
X92695763Y-75760000D01*
X92624237Y-75760000D01*
X92517685Y-75775320D01*
X92410000Y-75824498D01*
X92410000Y-74929364D01*
X92409999Y-74929364D01*
X92196513Y-74986567D01*
X92196507Y-74986570D01*
X91982422Y-75086399D01*
X91982420Y-75086400D01*
X91788926Y-75221886D01*
X91788920Y-75221891D01*
X91621891Y-75388920D01*
X91621890Y-75388922D01*
X91491880Y-75574595D01*
X91437303Y-75618219D01*
X91367804Y-75625412D01*
X91305450Y-75593890D01*
X91288730Y-75574594D01*
X91158494Y-75388597D01*
X90991402Y-75221506D01*
X90991395Y-75221501D01*
X90797834Y-75085967D01*
X90797830Y-75085965D01*
X90745500Y-75061563D01*
X90583663Y-74986097D01*
X90583659Y-74986096D01*
X90583655Y-74986094D01*
X90355413Y-74924938D01*
X90355403Y-74924936D01*
X90120001Y-74904341D01*
X90119999Y-74904341D01*
X89884596Y-74924936D01*
X89884586Y-74924938D01*
X89656344Y-74986094D01*
X89656335Y-74986098D01*
X89442171Y-75085964D01*
X89442169Y-75085965D01*
X89248597Y-75221505D01*
X89081505Y-75388597D01*
X88945965Y-75582169D01*
X88945964Y-75582171D01*
X88846098Y-75796335D01*
X88846094Y-75796344D01*
X88784938Y-76024586D01*
X88784936Y-76024596D01*
X88764341Y-76259999D01*
X88764341Y-76260000D01*
X88784936Y-76495403D01*
X88784938Y-76495413D01*
X88846094Y-76723655D01*
X88846096Y-76723659D01*
X88846097Y-76723663D01*
X88929155Y-76901781D01*
X88945965Y-76937830D01*
X88945967Y-76937834D01*
X89042947Y-77076335D01*
X89081505Y-77131401D01*
X89248599Y-77298495D01*
X89415439Y-77415318D01*
X89434594Y-77428730D01*
X89478219Y-77483307D01*
X89485413Y-77552805D01*
X89453890Y-77615160D01*
X89434595Y-77631880D01*
X89248922Y-77761890D01*
X89248920Y-77761891D01*
X89081891Y-77928920D01*
X89081886Y-77928926D01*
X88946400Y-78122420D01*
X88946399Y-78122422D01*
X88846570Y-78336507D01*
X88846567Y-78336513D01*
X88789364Y-78549999D01*
X88789364Y-78550000D01*
X89686314Y-78550000D01*
X89660507Y-78590156D01*
X89620000Y-78728111D01*
X89620000Y-78871889D01*
X89660507Y-79009844D01*
X89686314Y-79050000D01*
X88789364Y-79050000D01*
X88846567Y-79263486D01*
X88846570Y-79263492D01*
X88946399Y-79477578D01*
X89081894Y-79671082D01*
X89248917Y-79838105D01*
X89442421Y-79973600D01*
X89656507Y-80073429D01*
X89656516Y-80073433D01*
X89870000Y-80130634D01*
X89870000Y-79235501D01*
X89977685Y-79284680D01*
X90084237Y-79300000D01*
X90155763Y-79300000D01*
X90262315Y-79284680D01*
X90370000Y-79235501D01*
X90370000Y-80130633D01*
X90583483Y-80073433D01*
X90583492Y-80073429D01*
X90797579Y-79973599D01*
X90797585Y-79973595D01*
X90942556Y-79872085D01*
X91008762Y-79849757D01*
X91076529Y-79866767D01*
X91101360Y-79885977D01*
X92051004Y-80835622D01*
X92999170Y-81783788D01*
X93008995Y-81796051D01*
X93009216Y-81795869D01*
X93014187Y-81801878D01*
X93040190Y-81826295D01*
X93064608Y-81849226D01*
X93085502Y-81870120D01*
X93090984Y-81874373D01*
X93095416Y-81878157D01*
X93129391Y-81910062D01*
X93146949Y-81919714D01*
X93163208Y-81930395D01*
X93179037Y-81942673D01*
X93221811Y-81961182D01*
X93227029Y-81963738D01*
X93267881Y-81986197D01*
X93287289Y-81991180D01*
X93305690Y-81997480D01*
X93324077Y-82005437D01*
X93367461Y-82012308D01*
X93370092Y-82012725D01*
X93375812Y-82013909D01*
X93420954Y-82025500D01*
X93440989Y-82025500D01*
X93460387Y-82027026D01*
X93480167Y-82030159D01*
X93480168Y-82030160D01*
X93480168Y-82030159D01*
X93480169Y-82030160D01*
X93526557Y-82025775D01*
X93532395Y-82025500D01*
X98489548Y-82025500D01*
X98556587Y-82045185D01*
X98577229Y-82061819D01*
X100099197Y-83583788D01*
X100109022Y-83596051D01*
X100109243Y-83595869D01*
X100114214Y-83601878D01*
X100135043Y-83621437D01*
X100164635Y-83649226D01*
X100185529Y-83670120D01*
X100191011Y-83674373D01*
X100195443Y-83678157D01*
X100229418Y-83710062D01*
X100246976Y-83719714D01*
X100263235Y-83730395D01*
X100279064Y-83742673D01*
X100321838Y-83761182D01*
X100327056Y-83763738D01*
X100367908Y-83786197D01*
X100387316Y-83791180D01*
X100405717Y-83797480D01*
X100424104Y-83805437D01*
X100467488Y-83812308D01*
X100470119Y-83812725D01*
X100475839Y-83813909D01*
X100520981Y-83825500D01*
X100541016Y-83825500D01*
X100560414Y-83827026D01*
X100580194Y-83830159D01*
X100580195Y-83830160D01*
X100580195Y-83830159D01*
X100580196Y-83830160D01*
X100626584Y-83825775D01*
X100632422Y-83825500D01*
X109953653Y-83825500D01*
X109969273Y-83827224D01*
X109969300Y-83826939D01*
X109977056Y-83827671D01*
X109977063Y-83827673D01*
X110046210Y-83825500D01*
X110075746Y-83825500D01*
X110082624Y-83824630D01*
X110088437Y-83824172D01*
X110135023Y-83822709D01*
X110154265Y-83817117D01*
X110173308Y-83813174D01*
X110193188Y-83810664D01*
X110236518Y-83793507D01*
X110242042Y-83791617D01*
X110245792Y-83790527D01*
X110286786Y-83778618D01*
X110304025Y-83768422D01*
X110321499Y-83759862D01*
X110340123Y-83752488D01*
X110340123Y-83752487D01*
X110340128Y-83752486D01*
X110377845Y-83725082D01*
X110382701Y-83721892D01*
X110422816Y-83698170D01*
X110436985Y-83683999D01*
X110451775Y-83671368D01*
X110467983Y-83659594D01*
X110497695Y-83623676D01*
X110501608Y-83619376D01*
X112833786Y-81287198D01*
X112846048Y-81277376D01*
X112845865Y-81277155D01*
X112851867Y-81272188D01*
X112851877Y-81272182D01*
X112899241Y-81221744D01*
X112920120Y-81200866D01*
X112924373Y-81195382D01*
X112928150Y-81190959D01*
X112960062Y-81156978D01*
X112969714Y-81139419D01*
X112980389Y-81123168D01*
X112992674Y-81107332D01*
X113011186Y-81064548D01*
X113013742Y-81059331D01*
X113036197Y-81018488D01*
X113041180Y-80999076D01*
X113047477Y-80980687D01*
X113055438Y-80962291D01*
X113062729Y-80916249D01*
X113063908Y-80910558D01*
X113075500Y-80865415D01*
X113075500Y-80845379D01*
X113077027Y-80825978D01*
X113080160Y-80806200D01*
X113075775Y-80759811D01*
X113075500Y-80753973D01*
X113075500Y-69420237D01*
X113077224Y-69404623D01*
X113076938Y-69404596D01*
X113077672Y-69396833D01*
X113075500Y-69327702D01*
X113075500Y-69298151D01*
X113075500Y-69298150D01*
X113074629Y-69291259D01*
X113074172Y-69285445D01*
X113072709Y-69238874D01*
X113072709Y-69238872D01*
X113067120Y-69219637D01*
X113063174Y-69200584D01*
X113060664Y-69180708D01*
X113043501Y-69137359D01*
X113041614Y-69131846D01*
X113028617Y-69087110D01*
X113028616Y-69087108D01*
X113018421Y-69069869D01*
X113009860Y-69052393D01*
X113002486Y-69033769D01*
X113002486Y-69033767D01*
X112992474Y-69019988D01*
X112975083Y-68996050D01*
X112971900Y-68991205D01*
X112948170Y-68951079D01*
X112948165Y-68951073D01*
X112934005Y-68936913D01*
X112921370Y-68922120D01*
X112909593Y-68905912D01*
X112873693Y-68876213D01*
X112869381Y-68872290D01*
X111361818Y-67364727D01*
X111328333Y-67303404D01*
X111325499Y-67277046D01*
X111325499Y-66699998D01*
X111325498Y-66699981D01*
X111314999Y-66597203D01*
X111314998Y-66597200D01*
X111295441Y-66538181D01*
X111259814Y-66430666D01*
X111167712Y-66281344D01*
X111043656Y-66157288D01*
X111043655Y-66157287D01*
X111034402Y-66151580D01*
X110987678Y-66099632D01*
X110975500Y-66046042D01*
X110975500Y-63594377D01*
X110995185Y-63527338D01*
X111034406Y-63488837D01*
X111068654Y-63467713D01*
X111068653Y-63467713D01*
X111068656Y-63467712D01*
X111192712Y-63343656D01*
X111284814Y-63194334D01*
X111339999Y-63027797D01*
X111350500Y-62925009D01*
X111350499Y-61874992D01*
X111339999Y-61772203D01*
X111284814Y-61605666D01*
X111192712Y-61456344D01*
X111068656Y-61332288D01*
X111068653Y-61332285D01*
X111034401Y-61311158D01*
X110987678Y-61259210D01*
X110975500Y-61205621D01*
X110975500Y-58794377D01*
X110995185Y-58727338D01*
X111034406Y-58688837D01*
X111068654Y-58667713D01*
X111068653Y-58667713D01*
X111068656Y-58667712D01*
X111192712Y-58543656D01*
X111284814Y-58394334D01*
X111339999Y-58227797D01*
X111350500Y-58125009D01*
X111350499Y-57074992D01*
X111339999Y-56972203D01*
X111284814Y-56805666D01*
X111192712Y-56656344D01*
X111068656Y-56532288D01*
X110919334Y-56440186D01*
X110752797Y-56385001D01*
X110752795Y-56385000D01*
X110650010Y-56374500D01*
X110049998Y-56374500D01*
X110049980Y-56374501D01*
X109947203Y-56385000D01*
X109947200Y-56385001D01*
X109780668Y-56440185D01*
X109780663Y-56440187D01*
X109631342Y-56532289D01*
X109507288Y-56656343D01*
X109507283Y-56656349D01*
X109505241Y-56659661D01*
X109503247Y-56661453D01*
X109502807Y-56662011D01*
X109502711Y-56661935D01*
X109453291Y-56706383D01*
X109384328Y-56717602D01*
X109320247Y-56689755D01*
X109294168Y-56659656D01*
X109292319Y-56656659D01*
X109292316Y-56656655D01*
X109168345Y-56532684D01*
X109019124Y-56440643D01*
X109019119Y-56440641D01*
X108852697Y-56385494D01*
X108852690Y-56385493D01*
X108749986Y-56375000D01*
X108700000Y-56375000D01*
X108700000Y-58824999D01*
X108749972Y-58824999D01*
X108749986Y-58824998D01*
X108852697Y-58814505D01*
X109019119Y-58759358D01*
X109019124Y-58759356D01*
X109168345Y-58667315D01*
X109292318Y-58543342D01*
X109294165Y-58540348D01*
X109295969Y-58538724D01*
X109296798Y-58537677D01*
X109296976Y-58537818D01*
X109346110Y-58493621D01*
X109415073Y-58482396D01*
X109479156Y-58510236D01*
X109505243Y-58540341D01*
X109507288Y-58543656D01*
X109507289Y-58543657D01*
X109631345Y-58667713D01*
X109665594Y-58688837D01*
X109712320Y-58740784D01*
X109724500Y-58794377D01*
X109724500Y-59865547D01*
X109704815Y-59932586D01*
X109652011Y-59978341D01*
X109582853Y-59988285D01*
X109519297Y-59959260D01*
X109512819Y-59953228D01*
X109450803Y-59891212D01*
X109440980Y-59878950D01*
X109440759Y-59879134D01*
X109435786Y-59873123D01*
X109427718Y-59865547D01*
X109385364Y-59825773D01*
X109374919Y-59815328D01*
X109364475Y-59804883D01*
X109358986Y-59800625D01*
X109354561Y-59796847D01*
X109320582Y-59764938D01*
X109320580Y-59764936D01*
X109320577Y-59764935D01*
X109303029Y-59755288D01*
X109286763Y-59744604D01*
X109270933Y-59732325D01*
X109228168Y-59713818D01*
X109222922Y-59711248D01*
X109182093Y-59688803D01*
X109182092Y-59688802D01*
X109162693Y-59683822D01*
X109144281Y-59677518D01*
X109125898Y-59669562D01*
X109125892Y-59669560D01*
X109079874Y-59662272D01*
X109074152Y-59661087D01*
X109029021Y-59649500D01*
X109029019Y-59649500D01*
X109008984Y-59649500D01*
X108989586Y-59647973D01*
X108982162Y-59646797D01*
X108969805Y-59644840D01*
X108969804Y-59644840D01*
X108923416Y-59649225D01*
X108917578Y-59649500D01*
X108410148Y-59649500D01*
X108343109Y-59629815D01*
X108322467Y-59613181D01*
X108133485Y-59424199D01*
X107926819Y-59217532D01*
X107926818Y-59217531D01*
X106900497Y-58191212D01*
X106890674Y-58178950D01*
X106890453Y-58179134D01*
X106885484Y-58173129D01*
X106885481Y-58173123D01*
X106835043Y-58125758D01*
X106824691Y-58115406D01*
X106814170Y-58104884D01*
X106808689Y-58100632D01*
X106804246Y-58096837D01*
X106770280Y-58064940D01*
X106770272Y-58064935D01*
X106752724Y-58055288D01*
X106736458Y-58044604D01*
X106720631Y-58032327D01*
X106677860Y-58013817D01*
X106672613Y-58011247D01*
X106631783Y-57988801D01*
X106612381Y-57983820D01*
X106593973Y-57977517D01*
X106575588Y-57969561D01*
X106575590Y-57969561D01*
X106529566Y-57962272D01*
X106523845Y-57961087D01*
X106478714Y-57949500D01*
X106458679Y-57949500D01*
X106439281Y-57947973D01*
X106431857Y-57946797D01*
X106419500Y-57944840D01*
X106419499Y-57944840D01*
X106373111Y-57949225D01*
X106367273Y-57949500D01*
X106035452Y-57949500D01*
X105968413Y-57929815D01*
X105947771Y-57913181D01*
X105884590Y-57850000D01*
X107450001Y-57850000D01*
X107450001Y-58124986D01*
X107460494Y-58227697D01*
X107515641Y-58394119D01*
X107515643Y-58394124D01*
X107607684Y-58543345D01*
X107731654Y-58667315D01*
X107880875Y-58759356D01*
X107880880Y-58759358D01*
X108047302Y-58814505D01*
X108047309Y-58814506D01*
X108150019Y-58824999D01*
X108199999Y-58824998D01*
X108200000Y-58824998D01*
X108200000Y-57850000D01*
X107450001Y-57850000D01*
X105884590Y-57850000D01*
X105384590Y-57350000D01*
X107450000Y-57350000D01*
X108200000Y-57350000D01*
X108200000Y-56375000D01*
X108199999Y-56374999D01*
X108150029Y-56375000D01*
X108150011Y-56375001D01*
X108047302Y-56385494D01*
X107880880Y-56440641D01*
X107880875Y-56440643D01*
X107731654Y-56532684D01*
X107607684Y-56656654D01*
X107515643Y-56805875D01*
X107515641Y-56805880D01*
X107460494Y-56972302D01*
X107460493Y-56972309D01*
X107450000Y-57075013D01*
X107450000Y-57350000D01*
X105384590Y-57350000D01*
X104114052Y-56079461D01*
X104080567Y-56018138D01*
X104085551Y-55948446D01*
X104127423Y-55892513D01*
X104189189Y-55868416D01*
X104272279Y-55859967D01*
X104461471Y-55800607D01*
X104461486Y-55800600D01*
X104634856Y-55704372D01*
X104634861Y-55704369D01*
X104785315Y-55575208D01*
X104785317Y-55575207D01*
X104906693Y-55418402D01*
X104906695Y-55418398D01*
X104994022Y-55240370D01*
X105017420Y-55150000D01*
X104195837Y-55150000D01*
X104273264Y-55098264D01*
X104334045Y-55007300D01*
X104355388Y-54900000D01*
X104334045Y-54792700D01*
X104273264Y-54701736D01*
X104195837Y-54650000D01*
X105022130Y-54650000D01*
X105022130Y-54649999D01*
X104954877Y-54468408D01*
X104954873Y-54468401D01*
X104849980Y-54300116D01*
X104713366Y-54156398D01*
X104713364Y-54156397D01*
X104550609Y-54043115D01*
X104368384Y-53964917D01*
X104174148Y-53925000D01*
X104150000Y-53925000D01*
X104150000Y-54634530D01*
X104102088Y-54625000D01*
X103697912Y-54625000D01*
X103650000Y-54634530D01*
X103650000Y-53927598D01*
X103649999Y-53927597D01*
X103527724Y-53940032D01*
X103451858Y-53963835D01*
X103382000Y-53965121D01*
X103322536Y-53928436D01*
X103315472Y-53919832D01*
X103257547Y-53842455D01*
X103257544Y-53842452D01*
X103142335Y-53756206D01*
X103142328Y-53756202D01*
X103032346Y-53715182D01*
X102976412Y-53673311D01*
X102951995Y-53607847D01*
X102966846Y-53539574D01*
X103016252Y-53490168D01*
X103075679Y-53475000D01*
X103197828Y-53475000D01*
X103197844Y-53474999D01*
X103257372Y-53468598D01*
X103257380Y-53468596D01*
X103376409Y-53424200D01*
X103446101Y-53419215D01*
X103483014Y-53433737D01*
X103502885Y-53445526D01*
X103502888Y-53445527D01*
X103506710Y-53447111D01*
X103610247Y-53477516D01*
X103647708Y-53478858D01*
X103666582Y-53485142D01*
X104650000Y-53485142D01*
X104650000Y-52549624D01*
X104664505Y-52622545D01*
X104719760Y-52705240D01*
X104802455Y-52760495D01*
X104900000Y-52779898D01*
X104997545Y-52760495D01*
X105080240Y-52705240D01*
X105135495Y-52622545D01*
X105150000Y-52549624D01*
X105150000Y-53437885D01*
X105151543Y-53439000D01*
X105177060Y-53429432D01*
X105181715Y-53427894D01*
X105184165Y-53427190D01*
X105184351Y-53427839D01*
X105211732Y-53416431D01*
X105221343Y-53412828D01*
X105223667Y-53412657D01*
X105230071Y-53409723D01*
X105234137Y-53408031D01*
X105237701Y-53406694D01*
X105242911Y-53403837D01*
X105252420Y-53399479D01*
X105289694Y-53383948D01*
X105301931Y-53377031D01*
X105306615Y-53374639D01*
X105312419Y-53371978D01*
X105322145Y-53365605D01*
X105323187Y-53365014D01*
X105329268Y-53361578D01*
X105334270Y-53360412D01*
X105356291Y-53346398D01*
X105359070Y-53344730D01*
X105374981Y-53335735D01*
X105385256Y-53327966D01*
X105387918Y-53326274D01*
X105412217Y-53310809D01*
X105413419Y-53310045D01*
X105418087Y-53308697D01*
X105428955Y-53300418D01*
X105433248Y-53297425D01*
X105438753Y-53293921D01*
X105447690Y-53286145D01*
X105448999Y-53285148D01*
X105454388Y-53281042D01*
X105459215Y-53279194D01*
X105471462Y-53268785D01*
X105471507Y-53268764D01*
X105478856Y-53262514D01*
X105481453Y-53260424D01*
X105501439Y-53245198D01*
X105519645Y-53227950D01*
X105522134Y-53225716D01*
X105541364Y-53209370D01*
X105558643Y-53191133D01*
X105561023Y-53188754D01*
X105567967Y-53182177D01*
X105567990Y-53182150D01*
X105579362Y-53171375D01*
X105595730Y-53152118D01*
X105597964Y-53149630D01*
X105615187Y-53131449D01*
X105630546Y-53111290D01*
X105632624Y-53108708D01*
X105644115Y-53095189D01*
X105651060Y-53084364D01*
X105655999Y-53077883D01*
X105656285Y-53077508D01*
X105660156Y-53074670D01*
X105667429Y-53063242D01*
X105670422Y-53058950D01*
X105674345Y-53053799D01*
X105679981Y-53043520D01*
X105680380Y-53042891D01*
X105692804Y-53023368D01*
X105692820Y-53023344D01*
X105698045Y-53015133D01*
X105701919Y-53011744D01*
X105714766Y-52989014D01*
X105716434Y-52986234D01*
X105726218Y-52970857D01*
X105731596Y-52959236D01*
X105735662Y-52952042D01*
X105735894Y-52951636D01*
X105739216Y-52948448D01*
X105744654Y-52936584D01*
X105747043Y-52931905D01*
X105753957Y-52919672D01*
X105769471Y-52882436D01*
X105773829Y-52872930D01*
X105775420Y-52871098D01*
X105778029Y-52864141D01*
X105779723Y-52860069D01*
X105781211Y-52856821D01*
X105782833Y-52851333D01*
X105786434Y-52841725D01*
X105796925Y-52816547D01*
X105799870Y-52805895D01*
X105801424Y-52801749D01*
X105803983Y-52798341D01*
X105806471Y-52789101D01*
X105808288Y-52783445D01*
X105809472Y-52780287D01*
X105811558Y-52770207D01*
X105811705Y-52769662D01*
X105813620Y-52766530D01*
X105822414Y-52729890D01*
X105825829Y-52717209D01*
X105827405Y-52714629D01*
X105829179Y-52705409D01*
X105830197Y-52700993D01*
X105830585Y-52699550D01*
X105831051Y-52695672D01*
X105832496Y-52688158D01*
X105833093Y-52685395D01*
X105841092Y-52652066D01*
X105843311Y-52632841D01*
X105844019Y-52628236D01*
X105847088Y-52612274D01*
X105849895Y-52575810D01*
X105851409Y-52562683D01*
X105852218Y-52560771D01*
X105852421Y-52555497D01*
X105852784Y-52550768D01*
X105853031Y-52548622D01*
X105852879Y-52543603D01*
X105853386Y-52530419D01*
X105854416Y-52517042D01*
X105855142Y-52515127D01*
X105855142Y-52509983D01*
X105855325Y-52505226D01*
X105855484Y-52503148D01*
X105855142Y-52498156D01*
X105855142Y-52484811D01*
X105856143Y-52458789D01*
X105855393Y-52450251D01*
X105855142Y-52450000D01*
X105150000Y-52450000D01*
X105150000Y-51950000D01*
X105855142Y-51950000D01*
X105856253Y-51948888D01*
X105856418Y-51948328D01*
X105855142Y-51915180D01*
X105855142Y-51901861D01*
X105855719Y-51899894D01*
X105855325Y-51894764D01*
X105855142Y-51890007D01*
X105855142Y-51887910D01*
X105854415Y-51882948D01*
X105853386Y-51869569D01*
X105852881Y-51856459D01*
X105853386Y-51854453D01*
X105852784Y-51849233D01*
X105852421Y-51844503D01*
X105852337Y-51842322D01*
X105851412Y-51837343D01*
X105849895Y-51824190D01*
X105847088Y-51787722D01*
X105844020Y-51771769D01*
X105843312Y-51767163D01*
X105841093Y-51747936D01*
X105833091Y-51714596D01*
X105832494Y-51711835D01*
X105831055Y-51704349D01*
X105831206Y-51702766D01*
X105830199Y-51699025D01*
X105829182Y-51694609D01*
X105828262Y-51689825D01*
X105825839Y-51682829D01*
X105822419Y-51670131D01*
X105814985Y-51639157D01*
X105811705Y-51630340D01*
X105811547Y-51629753D01*
X105811643Y-51625503D01*
X105808285Y-51616548D01*
X105806469Y-51610895D01*
X105805593Y-51607644D01*
X105801440Y-51598293D01*
X105799467Y-51593032D01*
X105797974Y-51588539D01*
X105797287Y-51586172D01*
X105797975Y-51585972D01*
X105786430Y-51558263D01*
X105782851Y-51548719D01*
X105782679Y-51546380D01*
X105779721Y-51539926D01*
X105778030Y-51535860D01*
X105776703Y-51532321D01*
X105773845Y-51527104D01*
X105769474Y-51517568D01*
X105753959Y-51480331D01*
X105747047Y-51468103D01*
X105744659Y-51463425D01*
X105742008Y-51457640D01*
X105735609Y-51447864D01*
X105735543Y-51447747D01*
X105731629Y-51440822D01*
X105730460Y-51435807D01*
X105716429Y-51413758D01*
X105714761Y-51410978D01*
X105705795Y-51395114D01*
X105698050Y-51384873D01*
X105694920Y-51379954D01*
X105680357Y-51357071D01*
X105680020Y-51356540D01*
X105678680Y-51351889D01*
X105670416Y-51341041D01*
X105667425Y-51336752D01*
X105663936Y-51331270D01*
X105656232Y-51322422D01*
X105655708Y-51321735D01*
X105651078Y-51315657D01*
X105649230Y-51310828D01*
X105632629Y-51291296D01*
X105630552Y-51288715D01*
X105615188Y-51268548D01*
X105597962Y-51250368D01*
X105595726Y-51247876D01*
X105579361Y-51228620D01*
X105561054Y-51211277D01*
X105558687Y-51208910D01*
X105541371Y-51190635D01*
X105522130Y-51174280D01*
X105519642Y-51172047D01*
X105501445Y-51154806D01*
X105481293Y-51139454D01*
X105478713Y-51137377D01*
X105465260Y-51125943D01*
X105454413Y-51118976D01*
X105450676Y-51116129D01*
X105447648Y-51113820D01*
X105444774Y-51109909D01*
X105433243Y-51102572D01*
X105428954Y-51099581D01*
X105423831Y-51095678D01*
X105413510Y-51090013D01*
X105412180Y-51089168D01*
X105405996Y-51085231D01*
X105388433Y-51074053D01*
X105388389Y-51074027D01*
X105385151Y-51071966D01*
X105381775Y-51068103D01*
X105359063Y-51055264D01*
X105356287Y-51053598D01*
X105340901Y-51043806D01*
X105329249Y-51038411D01*
X105322900Y-51034822D01*
X105322260Y-51034459D01*
X105273622Y-50984298D01*
X105267049Y-50969549D01*
X105266289Y-50967493D01*
X105261508Y-50897787D01*
X105295173Y-50836562D01*
X105356594Y-50803257D01*
X105382597Y-50800500D01*
X113275500Y-50800500D01*
X113342539Y-50820185D01*
X113388294Y-50872989D01*
X113399500Y-50924500D01*
X113399500Y-85513406D01*
X113379815Y-85580445D01*
X113327011Y-85626200D01*
X113275500Y-85637406D01*
X86524500Y-85637406D01*
X86457461Y-85617721D01*
X86411706Y-85564917D01*
X86400500Y-85513406D01*
X86400500Y-50924500D01*
X86420185Y-50857461D01*
X86472989Y-50811706D01*
X86524500Y-50800500D01*
X97417468Y-50800500D01*
X97484507Y-50820185D01*
G37*
%TD.AperFunction*%
%TA.AperFunction,Conductor*%
G36*
X108174991Y-68400500D02*
G01*
X108752047Y-68400499D01*
X108819086Y-68420183D01*
X108839728Y-68436818D01*
X110768760Y-70365850D01*
X110802245Y-70427173D01*
X110797261Y-70496865D01*
X110755389Y-70552798D01*
X110689925Y-70577215D01*
X110668480Y-70576889D01*
X110649996Y-70575001D01*
X110649974Y-70575000D01*
X110600000Y-70575000D01*
X110600000Y-73024999D01*
X110649972Y-73024999D01*
X110649986Y-73024998D01*
X110752697Y-73014505D01*
X110919119Y-72959358D01*
X110919124Y-72959356D01*
X111068345Y-72867315D01*
X111162819Y-72772842D01*
X111224142Y-72739357D01*
X111293834Y-72744341D01*
X111349767Y-72786213D01*
X111374184Y-72851677D01*
X111374500Y-72860523D01*
X111374500Y-80289547D01*
X111354815Y-80356586D01*
X111338181Y-80377228D01*
X109627228Y-82088181D01*
X109565905Y-82121666D01*
X109539547Y-82124500D01*
X105180453Y-82124500D01*
X105113414Y-82104815D01*
X105092772Y-82088181D01*
X104526319Y-81521728D01*
X104492834Y-81460405D01*
X104490000Y-81434047D01*
X104490000Y-80515501D01*
X104597685Y-80564680D01*
X104704237Y-80580000D01*
X104775763Y-80580000D01*
X104882315Y-80564680D01*
X104990000Y-80515501D01*
X104990000Y-81410633D01*
X105203483Y-81353433D01*
X105203492Y-81353429D01*
X105417578Y-81253600D01*
X105611082Y-81118105D01*
X105778105Y-80951082D01*
X105913600Y-80757578D01*
X106013429Y-80543492D01*
X106013432Y-80543486D01*
X106070636Y-80330000D01*
X105173686Y-80330000D01*
X105199493Y-80289844D01*
X105240000Y-80151889D01*
X105240000Y-80008111D01*
X105199493Y-79870156D01*
X105173686Y-79830000D01*
X106070636Y-79830000D01*
X106070635Y-79829999D01*
X106013432Y-79616513D01*
X106013429Y-79616507D01*
X105913600Y-79402422D01*
X105913599Y-79402420D01*
X105778113Y-79208926D01*
X105778108Y-79208920D01*
X105611078Y-79041890D01*
X105425405Y-78911879D01*
X105381780Y-78857302D01*
X105374588Y-78787804D01*
X105406110Y-78725449D01*
X105425406Y-78708730D01*
X105611401Y-78578495D01*
X105778495Y-78411401D01*
X105914035Y-78217830D01*
X106013903Y-78003663D01*
X106075063Y-77775408D01*
X106095659Y-77540000D01*
X106075063Y-77304592D01*
X106013903Y-77076337D01*
X105914035Y-76862171D01*
X105842495Y-76760000D01*
X105778494Y-76668597D01*
X105611402Y-76501506D01*
X105611396Y-76501501D01*
X105425842Y-76371575D01*
X105382217Y-76316998D01*
X105375023Y-76247500D01*
X105406546Y-76185145D01*
X105425842Y-76168425D01*
X105448026Y-76152891D01*
X105611401Y-76038495D01*
X105778495Y-75871401D01*
X105914035Y-75677830D01*
X106013903Y-75463663D01*
X106075063Y-75235408D01*
X106095659Y-75000000D01*
X106075063Y-74764592D01*
X106048143Y-74664125D01*
X106049806Y-74594276D01*
X106080235Y-74544353D01*
X107033787Y-73590802D01*
X107046042Y-73580986D01*
X107045859Y-73580764D01*
X107051866Y-73575792D01*
X107051877Y-73575786D01*
X107086221Y-73539213D01*
X107099227Y-73525364D01*
X107109671Y-73514918D01*
X107120120Y-73504471D01*
X107124379Y-73498978D01*
X107128152Y-73494561D01*
X107160062Y-73460582D01*
X107169715Y-73443020D01*
X107180389Y-73426770D01*
X107192673Y-73410936D01*
X107211180Y-73368167D01*
X107213749Y-73362924D01*
X107236196Y-73322093D01*
X107236197Y-73322092D01*
X107241177Y-73302691D01*
X107247478Y-73284288D01*
X107255438Y-73265896D01*
X107262730Y-73219849D01*
X107263911Y-73214152D01*
X107275500Y-73169019D01*
X107275500Y-73148983D01*
X107277027Y-73129582D01*
X107280160Y-73109804D01*
X107275775Y-73063415D01*
X107275500Y-73057577D01*
X107275500Y-72639432D01*
X107295185Y-72572393D01*
X107347989Y-72526638D01*
X107417147Y-72516694D01*
X107480703Y-72545719D01*
X107509567Y-72588988D01*
X107512136Y-72587791D01*
X107515187Y-72594336D01*
X107543207Y-72639764D01*
X107607288Y-72743656D01*
X107731344Y-72867712D01*
X107880666Y-72959814D01*
X108047203Y-73014999D01*
X108149991Y-73025500D01*
X108750008Y-73025499D01*
X108750016Y-73025498D01*
X108750019Y-73025498D01*
X108806302Y-73019748D01*
X108852797Y-73014999D01*
X109019334Y-72959814D01*
X109168656Y-72867712D01*
X109292712Y-72743656D01*
X109294752Y-72740347D01*
X109296745Y-72738555D01*
X109297193Y-72737989D01*
X109297289Y-72738065D01*
X109346694Y-72693623D01*
X109415656Y-72682395D01*
X109479740Y-72710234D01*
X109505829Y-72740339D01*
X109507681Y-72743341D01*
X109507683Y-72743344D01*
X109631654Y-72867315D01*
X109780875Y-72959356D01*
X109780880Y-72959358D01*
X109947302Y-73014505D01*
X109947309Y-73014506D01*
X110050019Y-73024999D01*
X110099999Y-73024998D01*
X110100000Y-73024998D01*
X110100000Y-70575000D01*
X110099999Y-70574999D01*
X110050029Y-70575000D01*
X110050011Y-70575001D01*
X109947302Y-70585494D01*
X109780880Y-70640641D01*
X109780875Y-70640643D01*
X109631654Y-70732684D01*
X109507683Y-70856655D01*
X109507679Y-70856660D01*
X109505826Y-70859665D01*
X109504018Y-70861290D01*
X109503202Y-70862323D01*
X109503025Y-70862183D01*
X109453874Y-70906385D01*
X109384911Y-70917601D01*
X109320831Y-70889752D01*
X109294753Y-70859653D01*
X109294737Y-70859628D01*
X109292712Y-70856344D01*
X109168656Y-70732288D01*
X109045532Y-70656345D01*
X109019336Y-70640187D01*
X109019331Y-70640185D01*
X109017862Y-70639698D01*
X108852797Y-70585001D01*
X108852795Y-70585000D01*
X108750016Y-70574500D01*
X108160453Y-70574500D01*
X108093414Y-70554815D01*
X108072772Y-70538181D01*
X108061819Y-70527228D01*
X108028334Y-70465905D01*
X108025500Y-70439547D01*
X108025500Y-68522541D01*
X108045185Y-68455502D01*
X108097989Y-68409747D01*
X108162103Y-68399183D01*
X108174991Y-68400500D01*
G37*
%TD.AperFunction*%
%TA.AperFunction,Conductor*%
G36*
X106801131Y-63810291D02*
G01*
X106801138Y-63810298D01*
X107825681Y-64834841D01*
X107859166Y-64896164D01*
X107862000Y-64922522D01*
X107862000Y-66022912D01*
X107842315Y-66089951D01*
X107803057Y-66128475D01*
X107800563Y-66130012D01*
X107733163Y-66148427D01*
X107666508Y-66127479D01*
X107647825Y-66112130D01*
X107236819Y-65701124D01*
X107203334Y-65639801D01*
X107200500Y-65613443D01*
X107200500Y-65273122D01*
X107202224Y-65257502D01*
X107201939Y-65257475D01*
X107202673Y-65249713D01*
X107200500Y-65180552D01*
X107200500Y-65151036D01*
X107200500Y-65151030D01*
X107199631Y-65144159D01*
X107199173Y-65138332D01*
X107197710Y-65091753D01*
X107192119Y-65072510D01*
X107188173Y-65053458D01*
X107185664Y-65033588D01*
X107168504Y-64990247D01*
X107166624Y-64984759D01*
X107153618Y-64939990D01*
X107143422Y-64922750D01*
X107134861Y-64905274D01*
X107127487Y-64886650D01*
X107127486Y-64886648D01*
X107100079Y-64848925D01*
X107096888Y-64844066D01*
X107096330Y-64843123D01*
X107073170Y-64803960D01*
X107073169Y-64803959D01*
X107073166Y-64803955D01*
X107059007Y-64789797D01*
X107046370Y-64775002D01*
X107034594Y-64758793D01*
X106998690Y-64729090D01*
X106994368Y-64725157D01*
X106781933Y-64512722D01*
X106748448Y-64451399D01*
X106746324Y-64438292D01*
X106743380Y-64410901D01*
X106743381Y-64384393D01*
X106749999Y-64322842D01*
X106750000Y-64322827D01*
X106750000Y-64250000D01*
X106731409Y-64250000D01*
X106664370Y-64230315D01*
X106632144Y-64200313D01*
X106607546Y-64167454D01*
X106516457Y-64099265D01*
X106474588Y-64043333D01*
X106469604Y-63973641D01*
X106503089Y-63912318D01*
X106516452Y-63900738D01*
X106607546Y-63832546D01*
X106614191Y-63823669D01*
X106670118Y-63781799D01*
X106739809Y-63776811D01*
X106801131Y-63810291D01*
G37*
%TD.AperFunction*%
%TA.AperFunction,Conductor*%
G36*
X97567539Y-59220185D02*
G01*
X97613294Y-59272989D01*
X97624500Y-59324500D01*
X97624500Y-60700500D01*
X97604815Y-60767539D01*
X97552011Y-60813294D01*
X97500500Y-60824500D01*
X96102129Y-60824500D01*
X96102123Y-60824501D01*
X96042516Y-60830908D01*
X95907671Y-60881202D01*
X95907664Y-60881206D01*
X95792455Y-60967452D01*
X95792452Y-60967455D01*
X95706206Y-61082664D01*
X95706202Y-61082671D01*
X95655910Y-61217513D01*
X95655909Y-61217517D01*
X95649500Y-61277127D01*
X95649500Y-61277134D01*
X95649500Y-61277135D01*
X95649500Y-61922870D01*
X95649501Y-61922879D01*
X95656367Y-61986751D01*
X95656367Y-62013257D01*
X95655909Y-62017516D01*
X95655909Y-62017517D01*
X95649500Y-62077127D01*
X95649500Y-62077129D01*
X95649500Y-62077133D01*
X95649500Y-62722870D01*
X95649501Y-62722876D01*
X95656619Y-62789092D01*
X95656619Y-62815599D01*
X95650000Y-62877169D01*
X95650000Y-62950000D01*
X95668591Y-62950000D01*
X95735630Y-62969685D01*
X95767855Y-62999686D01*
X95792454Y-63032546D01*
X95792455Y-63032546D01*
X95792456Y-63032548D01*
X95883540Y-63100734D01*
X95925411Y-63156668D01*
X95930395Y-63226359D01*
X95896909Y-63287682D01*
X95883540Y-63299266D01*
X95792456Y-63367451D01*
X95792454Y-63367454D01*
X95767856Y-63400312D01*
X95711924Y-63442182D01*
X95668591Y-63450000D01*
X95650000Y-63450000D01*
X95650000Y-63522844D01*
X95656619Y-63584398D01*
X95656620Y-63610909D01*
X95655909Y-63617514D01*
X95655909Y-63617517D01*
X95649500Y-63677127D01*
X95649500Y-63677134D01*
X95649500Y-63677135D01*
X95649500Y-64290852D01*
X95629815Y-64357891D01*
X95577011Y-64403646D01*
X95507853Y-64413590D01*
X95444297Y-64384565D01*
X95437819Y-64378533D01*
X95136819Y-64077533D01*
X95103334Y-64016210D01*
X95100500Y-63989852D01*
X95100500Y-60235452D01*
X95120185Y-60168413D01*
X95136819Y-60147771D01*
X96047772Y-59236819D01*
X96109095Y-59203334D01*
X96135453Y-59200500D01*
X97500500Y-59200500D01*
X97567539Y-59220185D01*
G37*
%TD.AperFunction*%
%TA.AperFunction,Conductor*%
G36*
X106156281Y-59220185D02*
G01*
X106176923Y-59236819D01*
X107101026Y-60160922D01*
X107101065Y-60160959D01*
X107598893Y-60658789D01*
X107608717Y-60671050D01*
X107608938Y-60670868D01*
X107613908Y-60676876D01*
X107664332Y-60724228D01*
X107685218Y-60745115D01*
X107685222Y-60745118D01*
X107685224Y-60745120D01*
X107690706Y-60749373D01*
X107695138Y-60753157D01*
X107729113Y-60785062D01*
X107746671Y-60794714D01*
X107762928Y-60805393D01*
X107778759Y-60817673D01*
X107794538Y-60824501D01*
X107821528Y-60836182D01*
X107826772Y-60838750D01*
X107867603Y-60861197D01*
X107880218Y-60864435D01*
X107887000Y-60866177D01*
X107905414Y-60872481D01*
X107923799Y-60880438D01*
X107969852Y-60887732D01*
X107975521Y-60888906D01*
X108020676Y-60900500D01*
X108040711Y-60900500D01*
X108060108Y-60902026D01*
X108079891Y-60905160D01*
X108126279Y-60900775D01*
X108132117Y-60900500D01*
X108639548Y-60900500D01*
X108706587Y-60920185D01*
X108727229Y-60936819D01*
X108753729Y-60963319D01*
X108787214Y-61024642D01*
X108782230Y-61094334D01*
X108740358Y-61150267D01*
X108715438Y-61159561D01*
X108700000Y-61175000D01*
X108700000Y-62526000D01*
X108680315Y-62593039D01*
X108627511Y-62638794D01*
X108576000Y-62650000D01*
X108324000Y-62650000D01*
X108256961Y-62630315D01*
X108211206Y-62577511D01*
X108200000Y-62526000D01*
X108200000Y-61175000D01*
X108199999Y-61174999D01*
X108150029Y-61175000D01*
X108150011Y-61175001D01*
X108047302Y-61185494D01*
X107880880Y-61240641D01*
X107880875Y-61240643D01*
X107725509Y-61336475D01*
X107724562Y-61334940D01*
X107668415Y-61357587D01*
X107599774Y-61344541D01*
X107555999Y-61307074D01*
X107550089Y-61298940D01*
X107546901Y-61294087D01*
X107523170Y-61253960D01*
X107523168Y-61253958D01*
X107523165Y-61253954D01*
X107509006Y-61239795D01*
X107496368Y-61224999D01*
X107490929Y-61217513D01*
X107484594Y-61208793D01*
X107473156Y-61199331D01*
X107448688Y-61179089D01*
X107444376Y-61175166D01*
X105681392Y-59412181D01*
X105647907Y-59350858D01*
X105652891Y-59281166D01*
X105694763Y-59225233D01*
X105760227Y-59200816D01*
X105769073Y-59200500D01*
X106089242Y-59200500D01*
X106156281Y-59220185D01*
G37*
%TD.AperFunction*%
%TA.AperFunction,Conductor*%
G36*
X99992539Y-54669685D02*
G01*
X100038294Y-54722489D01*
X100049500Y-54774000D01*
X100049500Y-55026000D01*
X100029815Y-55093039D01*
X99977011Y-55138794D01*
X99925500Y-55150000D01*
X99195837Y-55150000D01*
X99273264Y-55098264D01*
X99334045Y-55007300D01*
X99355388Y-54900000D01*
X99334045Y-54792700D01*
X99273264Y-54701736D01*
X99195837Y-54650000D01*
X99925500Y-54650000D01*
X99992539Y-54669685D01*
G37*
%TD.AperFunction*%
%TA.AperFunction,Conductor*%
G36*
X101443334Y-53431564D02*
G01*
X101517744Y-53459318D01*
X101573678Y-53501190D01*
X101598094Y-53566655D01*
X101583242Y-53634928D01*
X101533836Y-53684333D01*
X101474410Y-53699500D01*
X101325588Y-53699500D01*
X101258549Y-53679815D01*
X101212794Y-53627011D01*
X101202850Y-53557853D01*
X101231875Y-53494297D01*
X101282255Y-53459318D01*
X101356667Y-53431564D01*
X101426358Y-53426580D01*
X101443334Y-53431564D01*
G37*
%TD.AperFunction*%
%TA.AperFunction,Conductor*%
G36*
X104650000Y-52450000D02*
G01*
X98150000Y-52450000D01*
X98150000Y-51950000D01*
X104650000Y-51950000D01*
X104650000Y-52450000D01*
G37*
%TD.AperFunction*%
%TD*%
M02*
