%TF.GenerationSoftware,KiCad,Pcbnew,7.0.8*%
%TF.CreationDate,2026-03-26T12:38:55-04:00*%
%TF.ProjectId,TransmitterCircuit,5472616e-736d-4697-9474-657243697263,rev?*%
%TF.SameCoordinates,Original*%
%TF.FileFunction,Copper,L1,Top*%
%TF.FilePolarity,Positive*%
%FSLAX46Y46*%
G04 Gerber Fmt 4.6, Leading zero omitted, Abs format (unit mm)*
G04 Created by KiCad (PCBNEW 7.0.8) date 2026-03-26 12:38:55*
%MOMM*%
%LPD*%
G01*
G04 APERTURE LIST*
G04 Aperture macros list*
%AMRoundRect*
0 Rectangle with rounded corners*
0 $1 Rounding radius*
0 $2 $3 $4 $5 $6 $7 $8 $9 X,Y pos of 4 corners*
0 Add a 4 corners polygon primitive as box body*
4,1,4,$2,$3,$4,$5,$6,$7,$8,$9,$2,$3,0*
0 Add four circle primitives for the rounded corners*
1,1,$1+$1,$2,$3*
1,1,$1+$1,$4,$5*
1,1,$1+$1,$6,$7*
1,1,$1+$1,$8,$9*
0 Add four rect primitives between the rounded corners*
20,1,$1+$1,$2,$3,$4,$5,0*
20,1,$1+$1,$4,$5,$6,$7,0*
20,1,$1+$1,$6,$7,$8,$9,0*
20,1,$1+$1,$8,$9,$2,$3,0*%
%AMFreePoly0*
4,1,181,1.203536,0.778536,1.205000,0.775000,1.205000,-0.775000,1.203536,-0.778536,1.200000,-0.780000,0.055000,-0.780000,0.054904,-0.779960,0.054808,-0.779996,0.028808,-0.778996,0.028714,-0.778953,0.028617,-0.778985,0.002617,-0.776985,0.002525,-0.776938,0.002427,-0.776967,-0.023573,-0.773967,-0.023748,-0.773869,-0.023945,-0.773910,-0.049944,-0.768910,-0.050045,-0.768842,-0.050167,-0.768862,
-0.075167,-0.762862,-0.075226,-0.762818,-0.075300,-0.762828,-0.101300,-0.755828,-0.101501,-0.755673,-0.101756,-0.755682,-0.125756,-0.746682,-0.125827,-0.746615,-0.125923,-0.746615,-0.149923,-0.736615,-0.149989,-0.736548,-0.150083,-0.736545,-0.174083,-0.725545,-0.174235,-0.725380,-0.174460,-0.725353,-0.197460,-0.712353,-0.197546,-0.712242,-0.197684,-0.712218,-0.241684,-0.684218,-0.241812,-0.684034,
-0.242030,-0.683977,-0.263030,-0.667977,-0.263101,-0.667853,-0.263238,-0.667810,-0.283238,-0.650810,-0.283303,-0.650681,-0.283438,-0.650630,-0.302439,-0.632630,-0.302498,-0.632497,-0.302629,-0.632439,-0.320630,-0.613439,-0.320681,-0.613303,-0.320810,-0.613238,-0.337810,-0.593238,-0.337853,-0.593101,-0.337977,-0.593030,-0.353977,-0.572030,-0.354034,-0.571813,-0.354218,-0.571685,-0.382218,-0.527684,
-0.382241,-0.527547,-0.382353,-0.527461,-0.395353,-0.504460,-0.395380,-0.504235,-0.395545,-0.504083,-0.406545,-0.480083,-0.406548,-0.479989,-0.406615,-0.479923,-0.416615,-0.455923,-0.416615,-0.455827,-0.416682,-0.455756,-0.425682,-0.431756,-0.425673,-0.431501,-0.425828,-0.431300,-0.432828,-0.405300,-0.432818,-0.405226,-0.432862,-0.405167,-0.438862,-0.380167,-0.438842,-0.380045,-0.438910,-0.379944,
-0.443910,-0.353944,-0.443869,-0.353748,-0.443967,-0.353574,-0.446967,-0.327573,-0.446938,-0.327474,-0.446985,-0.327384,-0.448985,-0.301383,-0.448953,-0.301285,-0.448996,-0.301192,-0.449996,-0.275192,-0.449960,-0.275095,-0.450000,-0.275000,-0.450000,0.275000,-0.449960,0.275095,-0.449996,0.275192,-0.448996,0.301192,-0.448953,0.301285,-0.448985,0.301383,-0.446985,0.327384,-0.446938,0.327474,
-0.446967,0.327573,-0.443967,0.353574,-0.443869,0.353748,-0.443910,0.353944,-0.438910,0.379944,-0.438842,0.380045,-0.438862,0.380167,-0.432862,0.405167,-0.432818,0.405226,-0.432828,0.405300,-0.425828,0.431300,-0.425673,0.431501,-0.425682,0.431756,-0.416682,0.455756,-0.416615,0.455827,-0.416615,0.455923,-0.406615,0.479923,-0.406548,0.479989,-0.406545,0.480083,-0.395545,0.504083,
-0.395380,0.504235,-0.395353,0.504460,-0.382353,0.527461,-0.382241,0.527547,-0.382218,0.527684,-0.354218,0.571685,-0.354034,0.571813,-0.353977,0.572030,-0.337977,0.593030,-0.337853,0.593101,-0.337810,0.593238,-0.320810,0.613238,-0.320681,0.613303,-0.320630,0.613439,-0.302629,0.632439,-0.302498,0.632497,-0.302439,0.632630,-0.283438,0.650630,-0.283303,0.650681,-0.283238,0.650810,
-0.263238,0.667810,-0.263101,0.667853,-0.263030,0.667977,-0.242030,0.683977,-0.241812,0.684034,-0.241684,0.684218,-0.197684,0.712218,-0.197546,0.712242,-0.197460,0.712353,-0.174460,0.725353,-0.174235,0.725380,-0.174083,0.725545,-0.150083,0.736545,-0.149989,0.736548,-0.149923,0.736615,-0.125923,0.746615,-0.125827,0.746615,-0.125756,0.746682,-0.101756,0.755682,-0.101501,0.755673,
-0.101300,0.755828,-0.075300,0.762828,-0.075226,0.762818,-0.075167,0.762862,-0.050167,0.768862,-0.050045,0.768842,-0.049944,0.768910,-0.023945,0.773910,-0.023748,0.773869,-0.023573,0.773967,0.002427,0.776967,0.002525,0.776938,0.002617,0.776985,0.028617,0.778985,0.028714,0.778953,0.028808,0.778996,0.054808,0.779996,0.054904,0.779960,0.055000,0.780000,1.200000,0.780000,
1.203536,0.778536,1.203536,0.778536,$1*%
%AMFreePoly1*
4,1,181,-0.054904,0.779960,-0.054808,0.779996,-0.028808,0.778996,-0.028714,0.778953,-0.028617,0.778985,-0.002616,0.776985,-0.002525,0.776938,-0.002427,0.776967,0.023574,0.773967,0.023748,0.773869,0.023944,0.773910,0.049944,0.768910,0.050045,0.768842,0.050167,0.768862,0.075167,0.762862,0.075226,0.762818,0.075300,0.762828,0.101300,0.755828,0.101501,0.755673,0.101756,0.755682,
0.125756,0.746682,0.125827,0.746615,0.125923,0.746615,0.149923,0.736615,0.149989,0.736548,0.150083,0.736545,0.174083,0.725545,0.174235,0.725380,0.174460,0.725353,0.197461,0.712353,0.197547,0.712241,0.197684,0.712218,0.241685,0.684218,0.241813,0.684034,0.242030,0.683977,0.263030,0.667977,0.263101,0.667853,0.263238,0.667810,0.283238,0.650810,0.283303,0.650681,
0.283439,0.650630,0.302439,0.632629,0.302497,0.632498,0.302630,0.632439,0.320630,0.613438,0.320681,0.613303,0.320810,0.613238,0.337810,0.593238,0.337853,0.593101,0.337977,0.593030,0.353977,0.572030,0.354034,0.571812,0.354218,0.571684,0.382218,0.527684,0.382242,0.527546,0.382353,0.527460,0.395353,0.504460,0.395380,0.504235,0.395545,0.504083,0.406545,0.480083,
0.406548,0.479989,0.406615,0.479923,0.416615,0.455923,0.416615,0.455827,0.416682,0.455756,0.425682,0.431756,0.425673,0.431501,0.425828,0.431300,0.432828,0.405300,0.432818,0.405226,0.432862,0.405167,0.438862,0.380167,0.438842,0.380045,0.438910,0.379944,0.443910,0.353945,0.443869,0.353748,0.443967,0.353573,0.446967,0.327573,0.446938,0.327474,0.446985,0.327383,
0.448985,0.301383,0.448953,0.301285,0.448996,0.301192,0.449996,0.275192,0.449960,0.275095,0.450000,0.275000,0.450000,-0.275000,0.449960,-0.275095,0.449996,-0.275192,0.448996,-0.301192,0.448953,-0.301285,0.448985,-0.301383,0.446985,-0.327383,0.446938,-0.327474,0.446967,-0.327573,0.443967,-0.353573,0.443869,-0.353748,0.443910,-0.353945,0.438910,-0.379944,0.438842,-0.380045,
0.438862,-0.380167,0.432862,-0.405167,0.432818,-0.405226,0.432828,-0.405300,0.425828,-0.431300,0.425673,-0.431501,0.425682,-0.431756,0.416682,-0.455756,0.416615,-0.455827,0.416615,-0.455923,0.406615,-0.479923,0.406548,-0.479989,0.406545,-0.480083,0.395545,-0.504083,0.395380,-0.504235,0.395353,-0.504460,0.382353,-0.527460,0.382242,-0.527546,0.382218,-0.527684,0.354218,-0.571684,
0.354034,-0.571812,0.353977,-0.572030,0.337977,-0.593030,0.337853,-0.593101,0.337810,-0.593238,0.320810,-0.613238,0.320681,-0.613303,0.320630,-0.613438,0.302630,-0.632439,0.302497,-0.632498,0.302439,-0.632629,0.283439,-0.650630,0.283303,-0.650681,0.283238,-0.650810,0.263238,-0.667810,0.263101,-0.667853,0.263030,-0.667977,0.242030,-0.683977,0.241813,-0.684034,0.241685,-0.684218,
0.197684,-0.712218,0.197547,-0.712241,0.197461,-0.712353,0.174460,-0.725353,0.174235,-0.725380,0.174083,-0.725545,0.150083,-0.736545,0.149989,-0.736548,0.149923,-0.736615,0.125923,-0.746615,0.125827,-0.746615,0.125756,-0.746682,0.101756,-0.755682,0.101501,-0.755673,0.101300,-0.755828,0.075300,-0.762828,0.075226,-0.762818,0.075167,-0.762862,0.050167,-0.768862,0.050045,-0.768842,
0.049944,-0.768910,0.023944,-0.773910,0.023748,-0.773869,0.023574,-0.773967,-0.002427,-0.776967,-0.002525,-0.776938,-0.002616,-0.776985,-0.028617,-0.778985,-0.028714,-0.778953,-0.028808,-0.778996,-0.054808,-0.779996,-0.054904,-0.779960,-0.055000,-0.780000,-1.200000,-0.780000,-1.203536,-0.778536,-1.205000,-0.775000,-1.205000,0.775000,-1.203536,0.778536,-1.200000,0.780000,-0.055000,0.780000,
-0.054904,0.779960,-0.054904,0.779960,$1*%
G04 Aperture macros list end*
%TA.AperFunction,SMDPad,CuDef*%
%ADD10RoundRect,0.250000X0.250000X0.475000X-0.250000X0.475000X-0.250000X-0.475000X0.250000X-0.475000X0*%
%TD*%
%TA.AperFunction,SMDPad,CuDef*%
%ADD11RoundRect,0.250000X-0.250000X-0.475000X0.250000X-0.475000X0.250000X0.475000X-0.250000X0.475000X0*%
%TD*%
%TA.AperFunction,ComponentPad*%
%ADD12R,1.700000X1.700000*%
%TD*%
%TA.AperFunction,ComponentPad*%
%ADD13O,1.700000X1.700000*%
%TD*%
%TA.AperFunction,SMDPad,CuDef*%
%ADD14R,0.400000X1.350000*%
%TD*%
%TA.AperFunction,ComponentPad*%
%ADD15FreePoly0,180.000000*%
%TD*%
%TA.AperFunction,SMDPad,CuDef*%
%ADD16R,1.500000X1.550000*%
%TD*%
%TA.AperFunction,ComponentPad*%
%ADD17FreePoly1,180.000000*%
%TD*%
%TA.AperFunction,ComponentPad*%
%ADD18O,1.300000X0.950000*%
%TD*%
%TA.AperFunction,SMDPad,CuDef*%
%ADD19RoundRect,0.250000X-0.262500X-0.450000X0.262500X-0.450000X0.262500X0.450000X-0.262500X0.450000X0*%
%TD*%
%TA.AperFunction,ComponentPad*%
%ADD20C,1.500000*%
%TD*%
%TA.AperFunction,SMDPad,CuDef*%
%ADD21R,1.600000X0.550000*%
%TD*%
%TA.AperFunction,SMDPad,CuDef*%
%ADD22R,0.550000X1.600000*%
%TD*%
%TA.AperFunction,ViaPad*%
%ADD23C,0.800000*%
%TD*%
%TA.AperFunction,Conductor*%
%ADD24C,0.250000*%
%TD*%
G04 APERTURE END LIST*
D10*
%TO.P,C2,1*%
%TO.N,5V*%
X110550000Y-63000000D03*
%TO.P,C2,2*%
%TO.N,GND*%
X108650000Y-63000000D03*
%TD*%
D11*
%TO.P,C5,1*%
%TO.N,GND*%
X108650000Y-65000000D03*
%TO.P,C5,2*%
%TO.N,Net-(U1-AREF)*%
X110550000Y-65000000D03*
%TD*%
%TO.P,C3,1*%
%TO.N,Net-(U1-XTAL1{slash}PB6)*%
X91050000Y-54800000D03*
%TO.P,C3,2*%
%TO.N,GND*%
X92950000Y-54800000D03*
%TD*%
%TO.P,C1,1*%
%TO.N,GND*%
X108650000Y-61000000D03*
%TO.P,C1,2*%
%TO.N,5V*%
X110550000Y-61000000D03*
%TD*%
D12*
%TO.P,J4,1,Pin_1*%
%TO.N,PING*%
X98200000Y-72860000D03*
D13*
%TO.P,J4,2,Pin_2*%
%TO.N,DATA*%
X98200000Y-75400000D03*
%TO.P,J4,3,Pin_3*%
%TO.N,5V*%
X98200000Y-77940000D03*
%TO.P,J4,4,Pin_4*%
%TO.N,GND*%
X98200000Y-80480000D03*
%TD*%
D14*
%TO.P,J3,1,VCC*%
%TO.N,5V*%
X102300000Y-54875000D03*
%TO.P,J3,2,D-*%
%TO.N,unconnected-(J3-D--Pad2)*%
X101650000Y-54875000D03*
%TO.P,J3,3,D+*%
%TO.N,unconnected-(J3-D+-Pad3)*%
X101000000Y-54875000D03*
%TO.P,J3,4,ID*%
%TO.N,unconnected-(J3-ID-Pad4)*%
X100350000Y-54875000D03*
%TO.P,J3,5,GND*%
%TO.N,GND*%
X99700000Y-54875000D03*
D15*
%TO.P,J3,SH1,SHIELD*%
X104500000Y-52200000D03*
D16*
%TO.P,J3,SH2,SHIELD*%
X100000000Y-52200000D03*
%TO.P,J3,SH3,SHIELD*%
X102000000Y-52200000D03*
D17*
%TO.P,J3,SH4,SHIELD*%
X97500000Y-52200000D03*
D18*
%TO.P,J3,SH5,SHIELD*%
X103500000Y-54900000D03*
%TO.P,J3,SH6,SHIELD*%
X98500000Y-54900000D03*
%TD*%
D10*
%TO.P,C4,1*%
%TO.N,GND*%
X92950000Y-71600000D03*
%TO.P,C4,2*%
%TO.N,Net-(U1-XTAL2{slash}PB7)*%
X91050000Y-71600000D03*
%TD*%
D19*
%TO.P,R1,1*%
%TO.N,Net-(J1-~{RST})*%
X91087500Y-75200000D03*
%TO.P,R1,2*%
%TO.N,5V*%
X92912500Y-75200000D03*
%TD*%
D20*
%TO.P,Y1,1,1*%
%TO.N,Net-(U1-XTAL2{slash}PB7)*%
X90800000Y-65650000D03*
%TO.P,Y1,2,2*%
%TO.N,Net-(U1-XTAL1{slash}PB6)*%
X90800000Y-60770000D03*
%TD*%
D12*
%TO.P,J1,1,MISO*%
%TO.N,Net-(J1-MISO)*%
X103060000Y-73860000D03*
D13*
%TO.P,J1,2,VCC*%
%TO.N,5V*%
X105600000Y-73860000D03*
%TO.P,J1,3,SCK*%
%TO.N,Net-(J1-SCK)*%
X103060000Y-76400000D03*
%TO.P,J1,4,MOSI*%
%TO.N,Net-(J1-MOSI)*%
X105600000Y-76400000D03*
%TO.P,J1,5,~{RST}*%
%TO.N,Net-(J1-~{RST})*%
X103060000Y-78940000D03*
%TO.P,J1,6,GND*%
%TO.N,GND*%
X105600000Y-78940000D03*
%TD*%
D21*
%TO.P,U1,1,PD3*%
%TO.N,unconnected-(U1-PD3-Pad1)*%
X96950000Y-61600000D03*
%TO.P,U1,2,PD4*%
%TO.N,unconnected-(U1-PD4-Pad2)*%
X96950000Y-62400000D03*
%TO.P,U1,3,GND*%
%TO.N,GND*%
X96950000Y-63200000D03*
%TO.P,U1,4,VCC*%
%TO.N,5V*%
X96950000Y-64000000D03*
%TO.P,U1,5,GND*%
%TO.N,GND*%
X96950000Y-64800000D03*
%TO.P,U1,6,VCC*%
%TO.N,5V*%
X96950000Y-65600000D03*
%TO.P,U1,7,XTAL1/PB6*%
%TO.N,Net-(U1-XTAL1{slash}PB6)*%
X96950000Y-66400000D03*
%TO.P,U1,8,XTAL2/PB7*%
%TO.N,Net-(U1-XTAL2{slash}PB7)*%
X96950000Y-67200000D03*
D22*
%TO.P,U1,9,PD5*%
%TO.N,unconnected-(U1-PD5-Pad9)*%
X98400000Y-68650000D03*
%TO.P,U1,10,PD6*%
%TO.N,unconnected-(U1-PD6-Pad10)*%
X99200000Y-68650000D03*
%TO.P,U1,11,PD7*%
%TO.N,unconnected-(U1-PD7-Pad11)*%
X100000000Y-68650000D03*
%TO.P,U1,12,PB0*%
%TO.N,DATA*%
X100800000Y-68650000D03*
%TO.P,U1,13,PB1*%
%TO.N,PING*%
X101600000Y-68650000D03*
%TO.P,U1,14,PB2*%
%TO.N,unconnected-(U1-PB2-Pad14)*%
X102400000Y-68650000D03*
%TO.P,U1,15,PB3*%
%TO.N,Net-(J1-MOSI)*%
X103200000Y-68650000D03*
%TO.P,U1,16,PB4*%
%TO.N,Net-(J1-MISO)*%
X104000000Y-68650000D03*
D21*
%TO.P,U1,17,PB5*%
%TO.N,Net-(J1-SCK)*%
X105450000Y-67200000D03*
%TO.P,U1,18,AVCC*%
%TO.N,5V*%
X105450000Y-66400000D03*
%TO.P,U1,19,ADC6*%
%TO.N,unconnected-(U1-ADC6-Pad19)*%
X105450000Y-65600000D03*
%TO.P,U1,20,AREF*%
%TO.N,Net-(U1-AREF)*%
X105450000Y-64800000D03*
%TO.P,U1,21,GND*%
%TO.N,GND*%
X105450000Y-64000000D03*
%TO.P,U1,22,ADC7*%
%TO.N,unconnected-(U1-ADC7-Pad22)*%
X105450000Y-63200000D03*
%TO.P,U1,23,PC0*%
%TO.N,unconnected-(U1-PC0-Pad23)*%
X105450000Y-62400000D03*
%TO.P,U1,24,PC1*%
%TO.N,unconnected-(U1-PC1-Pad24)*%
X105450000Y-61600000D03*
D22*
%TO.P,U1,25,PC2*%
%TO.N,unconnected-(U1-PC2-Pad25)*%
X104000000Y-60150000D03*
%TO.P,U1,26,PC3*%
%TO.N,unconnected-(U1-PC3-Pad26)*%
X103200000Y-60150000D03*
%TO.P,U1,27,PC4*%
%TO.N,unconnected-(U1-PC4-Pad27)*%
X102400000Y-60150000D03*
%TO.P,U1,28,PC5*%
%TO.N,unconnected-(U1-PC5-Pad28)*%
X101600000Y-60150000D03*
%TO.P,U1,29,~{RESET}/PC6*%
%TO.N,Net-(J1-~{RST})*%
X100800000Y-60150000D03*
%TO.P,U1,30,PD0*%
%TO.N,unconnected-(U1-PD0-Pad30)*%
X100000000Y-60150000D03*
%TO.P,U1,31,PD1*%
%TO.N,unconnected-(U1-PD1-Pad31)*%
X99200000Y-60150000D03*
%TO.P,U1,32,PD2*%
%TO.N,unconnected-(U1-PD2-Pad32)*%
X98400000Y-60150000D03*
%TD*%
D23*
%TO.N,GND*%
X87600000Y-51800000D03*
X109000000Y-51800000D03*
X112000000Y-81400000D03*
X109000000Y-71200000D03*
X109000000Y-76400000D03*
X91400000Y-82800000D03*
X94800000Y-58200000D03*
X95200000Y-62800000D03*
X109000000Y-56400000D03*
X112000000Y-56400000D03*
X107200000Y-64000000D03*
X90600000Y-51800000D03*
X112000000Y-71200000D03*
X112000000Y-51800000D03*
X99600000Y-56600000D03*
X94800000Y-69200000D03*
X112000000Y-76400000D03*
X88400000Y-82800000D03*
X91400000Y-77800000D03*
X94800000Y-73400000D03*
X109000000Y-81400000D03*
X88400000Y-77800000D03*
%TD*%
D24*
%TO.N,GND*%
X98400000Y-55000000D02*
X98500000Y-54900000D01*
X95600000Y-63200000D02*
X96950000Y-63200000D01*
X99700000Y-56500000D02*
X99600000Y-56600000D01*
X92950000Y-56350000D02*
X94800000Y-58200000D01*
X93750000Y-63786396D02*
X93750000Y-59250000D01*
X96950000Y-64800000D02*
X94763604Y-64800000D01*
X93750000Y-59250000D02*
X94800000Y-58200000D01*
X99700000Y-54875000D02*
X99700000Y-56500000D01*
X92950000Y-54800000D02*
X92950000Y-56350000D01*
X107650000Y-64000000D02*
X108650000Y-63000000D01*
X107200000Y-64000000D02*
X107650000Y-64000000D01*
X105450000Y-64000000D02*
X107200000Y-64000000D01*
X94763604Y-64800000D02*
X93750000Y-63786396D01*
X95200000Y-62800000D02*
X95600000Y-63200000D01*
%TO.N,Net-(U1-XTAL1{slash}PB6)*%
X91050000Y-60520000D02*
X90800000Y-60770000D01*
X90800000Y-62800000D02*
X90800000Y-60770000D01*
X91050000Y-54800000D02*
X91050000Y-60520000D01*
X94400000Y-66400000D02*
X90800000Y-62800000D01*
X96950000Y-66400000D02*
X94400000Y-66400000D01*
%TO.N,Net-(U1-XTAL2{slash}PB7)*%
X92350000Y-67200000D02*
X91050000Y-68500000D01*
X90800000Y-65650000D02*
X92350000Y-67200000D01*
X92350000Y-67200000D02*
X96950000Y-67200000D01*
X91050000Y-68500000D02*
X91050000Y-71600000D01*
%TO.N,Net-(U1-AREF)*%
X108950000Y-66800000D02*
X107221016Y-66800000D01*
X106575000Y-65190380D02*
X106184620Y-64800000D01*
X107221016Y-66800000D02*
X106575000Y-66153984D01*
X106575000Y-66153984D02*
X106575000Y-65190380D01*
X106184620Y-64800000D02*
X105450000Y-64800000D01*
X110550000Y-65200000D02*
X108950000Y-66800000D01*
%TO.N,Net-(J1-MISO)*%
X104000000Y-72920000D02*
X104000000Y-68650000D01*
X103060000Y-73860000D02*
X104000000Y-72920000D01*
%TO.N,Net-(J1-~{RST})*%
X88200000Y-72312500D02*
X91087500Y-75200000D01*
X88200000Y-55363604D02*
X88200000Y-72312500D01*
X104800000Y-55350000D02*
X104800000Y-54200000D01*
X90563604Y-53000000D02*
X88200000Y-55363604D01*
X104200000Y-53600000D02*
X96574570Y-53600000D01*
X100800000Y-59350000D02*
X104800000Y-55350000D01*
X96574570Y-53600000D02*
X95974570Y-53000000D01*
X102800000Y-79200000D02*
X103060000Y-78940000D01*
X91087500Y-75200000D02*
X95087500Y-79200000D01*
X104800000Y-54200000D02*
X104200000Y-53600000D01*
X95974570Y-53000000D02*
X90563604Y-53000000D01*
X95087500Y-79200000D02*
X102800000Y-79200000D01*
X100800000Y-60150000D02*
X100800000Y-59350000D01*
%TO.N,DATA*%
X100475000Y-69775000D02*
X100800000Y-69450000D01*
X100800000Y-69450000D02*
X100800000Y-68650000D01*
X97025000Y-71775000D02*
X99025000Y-69775000D01*
X98200000Y-75400000D02*
X97025000Y-74225000D01*
X99025000Y-69775000D02*
X100475000Y-69775000D01*
X97025000Y-74225000D02*
X97025000Y-71775000D01*
%TO.N,Net-(J1-SCK)*%
X104235000Y-73321396D02*
X105450000Y-72106396D01*
X103060000Y-76400000D02*
X104235000Y-75225000D01*
X105450000Y-72106396D02*
X105450000Y-67200000D01*
X104235000Y-75225000D02*
X104235000Y-73321396D01*
%TO.N,Net-(J1-MOSI)*%
X103200000Y-69800000D02*
X103200000Y-68650000D01*
X105600000Y-76400000D02*
X104400000Y-77600000D01*
X102000000Y-77600000D02*
X100800000Y-76400000D01*
X104400000Y-77600000D02*
X102000000Y-77600000D01*
X100800000Y-76400000D02*
X100800000Y-72200000D01*
X100800000Y-72200000D02*
X103200000Y-69800000D01*
%TO.N,PING*%
X98200000Y-72860000D02*
X101600000Y-69460000D01*
X101600000Y-69460000D02*
X101600000Y-68650000D01*
%TO.N,5V*%
X99400000Y-65600000D02*
X103915380Y-65600000D01*
X99284620Y-65600000D02*
X99400000Y-65600000D01*
X102300000Y-57213604D02*
X100488604Y-59025000D01*
X93775000Y-54975000D02*
X93775000Y-54086826D01*
X90450000Y-53750000D02*
X88650000Y-55550000D01*
X92912500Y-75200000D02*
X95460000Y-75200000D01*
X104715380Y-66400000D02*
X105450000Y-66400000D01*
X111375000Y-63825000D02*
X111375000Y-65913174D01*
X93438174Y-53750000D02*
X90450000Y-53750000D01*
X94200000Y-63600000D02*
X94600000Y-64000000D01*
X103915380Y-65600000D02*
X104715380Y-66400000D01*
X96950000Y-65600000D02*
X99400000Y-65600000D01*
X96950000Y-65600000D02*
X96750000Y-65800000D01*
X95575000Y-56775000D02*
X95575000Y-59025000D01*
X93775000Y-54086826D02*
X93438174Y-53750000D01*
X95575000Y-59025000D02*
X94200000Y-60400000D01*
X110550000Y-63000000D02*
X110600000Y-63000000D01*
X88650000Y-55550000D02*
X88650000Y-70937500D01*
X107034620Y-67250000D02*
X110038174Y-67250000D01*
X105450000Y-66400000D02*
X106184620Y-66400000D01*
X93775000Y-54975000D02*
X95575000Y-56775000D01*
X106625000Y-66840380D02*
X106625000Y-67000000D01*
X97684620Y-64000000D02*
X99284620Y-65600000D01*
X95460000Y-75200000D02*
X98200000Y-77940000D01*
X110550000Y-63000000D02*
X111375000Y-63825000D01*
X96950000Y-64000000D02*
X97684620Y-64000000D01*
X110550000Y-61000000D02*
X110550000Y-63000000D01*
X106184620Y-66400000D02*
X106625000Y-66840380D01*
X106625000Y-67000000D02*
X106625000Y-72835000D01*
X94200000Y-60400000D02*
X94200000Y-63600000D01*
X100488604Y-59025000D02*
X95575000Y-59025000D01*
X111375000Y-65913174D02*
X110038174Y-67250000D01*
X106625000Y-72835000D02*
X105600000Y-73860000D01*
X106625000Y-66840380D02*
X107034620Y-67250000D01*
X102300000Y-54875000D02*
X102300000Y-57213604D01*
X94600000Y-64000000D02*
X96950000Y-64000000D01*
X88650000Y-70937500D02*
X92912500Y-75200000D01*
%TD*%
%TA.AperFunction,Conductor*%
%TO.N,GND*%
G36*
X97084507Y-50820185D02*
G01*
X97130262Y-50872989D01*
X97140206Y-50942147D01*
X97133703Y-50967691D01*
X97132955Y-50969704D01*
X97091152Y-51025689D01*
X97077681Y-51034493D01*
X97077319Y-51034698D01*
X97070775Y-51038398D01*
X97065766Y-51039565D01*
X97043756Y-51053570D01*
X97040981Y-51055236D01*
X97025112Y-51064205D01*
X97014880Y-51071944D01*
X97007401Y-51076704D01*
X97007372Y-51076724D01*
X96987300Y-51089496D01*
X96986533Y-51089984D01*
X96981883Y-51091323D01*
X96971045Y-51099581D01*
X96966758Y-51102570D01*
X96961258Y-51106070D01*
X96952268Y-51113885D01*
X96952003Y-51114087D01*
X96945641Y-51118934D01*
X96940815Y-51120780D01*
X96921295Y-51137371D01*
X96918716Y-51139446D01*
X96898550Y-51154809D01*
X96880361Y-51172042D01*
X96877873Y-51174275D01*
X96858618Y-51190639D01*
X96841279Y-51208945D01*
X96838908Y-51211316D01*
X96820627Y-51228634D01*
X96804275Y-51247875D01*
X96802042Y-51250363D01*
X96784799Y-51268563D01*
X96769457Y-51288702D01*
X96767381Y-51291281D01*
X96755900Y-51304788D01*
X96748946Y-51315625D01*
X96744127Y-51321950D01*
X96743905Y-51322241D01*
X96739959Y-51325150D01*
X96737021Y-51329767D01*
X96737016Y-51329770D01*
X96732571Y-51336756D01*
X96729585Y-51341038D01*
X96725657Y-51346193D01*
X96720007Y-51356496D01*
X96719033Y-51358030D01*
X96718520Y-51358837D01*
X96704252Y-51381255D01*
X96704240Y-51381275D01*
X96701958Y-51384861D01*
X96698095Y-51388238D01*
X96685261Y-51410943D01*
X96683594Y-51413719D01*
X96673797Y-51429114D01*
X96668406Y-51440758D01*
X96664465Y-51447729D01*
X96660990Y-51451102D01*
X96655361Y-51463384D01*
X96652972Y-51468062D01*
X96646050Y-51480307D01*
X96630523Y-51517572D01*
X96626160Y-51527093D01*
X96624570Y-51528922D01*
X96621969Y-51535859D01*
X96620280Y-51539919D01*
X96618788Y-51543174D01*
X96617157Y-51548693D01*
X96613564Y-51558274D01*
X96603062Y-51583481D01*
X96600116Y-51594141D01*
X96598533Y-51598362D01*
X96596005Y-51601725D01*
X96593544Y-51610861D01*
X96591732Y-51616498D01*
X96590523Y-51619720D01*
X96588415Y-51629897D01*
X96588263Y-51630459D01*
X96586354Y-51633574D01*
X96577579Y-51670130D01*
X96574165Y-51682814D01*
X96572590Y-51685390D01*
X96570815Y-51694620D01*
X96569800Y-51699025D01*
X96569408Y-51700480D01*
X96568944Y-51704351D01*
X96567504Y-51711834D01*
X96566909Y-51714591D01*
X96558904Y-51747942D01*
X96556685Y-51767168D01*
X96555979Y-51771767D01*
X96552912Y-51787712D01*
X96550109Y-51824148D01*
X96548585Y-51837364D01*
X96547779Y-51839266D01*
X96547578Y-51844504D01*
X96547215Y-51849224D01*
X96546965Y-51851386D01*
X96547119Y-51856423D01*
X96546612Y-51869604D01*
X96545585Y-51882955D01*
X96544858Y-51884872D01*
X96544858Y-51890022D01*
X96544675Y-51894779D01*
X96544513Y-51896885D01*
X96544858Y-51901875D01*
X96544858Y-51915173D01*
X96543853Y-51941258D01*
X96544602Y-51949744D01*
X96544858Y-51950000D01*
X97250000Y-51950000D01*
X97250000Y-52450000D01*
X96544858Y-52450000D01*
X96512515Y-52482343D01*
X96451191Y-52515827D01*
X96381500Y-52510842D01*
X96352633Y-52492913D01*
X96351464Y-52494524D01*
X96345154Y-52489940D01*
X96345152Y-52489938D01*
X96327599Y-52480288D01*
X96311333Y-52469604D01*
X96295506Y-52457327D01*
X96295505Y-52457326D01*
X96295503Y-52457325D01*
X96252738Y-52438818D01*
X96247492Y-52436248D01*
X96206663Y-52413803D01*
X96206662Y-52413802D01*
X96187263Y-52408822D01*
X96168851Y-52402518D01*
X96150468Y-52394562D01*
X96150462Y-52394560D01*
X96104444Y-52387272D01*
X96098722Y-52386087D01*
X96053591Y-52374500D01*
X96053589Y-52374500D01*
X96033554Y-52374500D01*
X96014156Y-52372973D01*
X96006732Y-52371797D01*
X95994375Y-52369840D01*
X95994374Y-52369840D01*
X95947986Y-52374225D01*
X95942148Y-52374500D01*
X90646347Y-52374500D01*
X90630726Y-52372775D01*
X90630700Y-52373061D01*
X90622938Y-52372327D01*
X90622937Y-52372327D01*
X90553790Y-52374500D01*
X90524253Y-52374500D01*
X90517370Y-52375369D01*
X90511553Y-52375826D01*
X90464977Y-52377290D01*
X90445733Y-52382881D01*
X90426683Y-52386825D01*
X90406815Y-52389334D01*
X90363488Y-52406488D01*
X90357962Y-52408379D01*
X90313218Y-52421379D01*
X90313214Y-52421381D01*
X90295970Y-52431579D01*
X90278509Y-52440133D01*
X90259878Y-52447510D01*
X90259866Y-52447517D01*
X90222174Y-52474902D01*
X90217291Y-52478109D01*
X90177184Y-52501829D01*
X90163018Y-52515995D01*
X90148228Y-52528627D01*
X90132018Y-52540404D01*
X90132015Y-52540407D01*
X90102314Y-52576309D01*
X90098381Y-52580631D01*
X87816208Y-54862803D01*
X87803951Y-54872624D01*
X87804134Y-54872845D01*
X87798123Y-54877817D01*
X87750772Y-54928240D01*
X87729889Y-54949123D01*
X87729877Y-54949136D01*
X87725621Y-54954621D01*
X87721837Y-54959051D01*
X87689937Y-54993022D01*
X87689936Y-54993024D01*
X87680284Y-55010580D01*
X87669610Y-55026830D01*
X87657329Y-55042665D01*
X87657324Y-55042672D01*
X87638815Y-55085442D01*
X87636245Y-55090688D01*
X87613803Y-55131510D01*
X87608822Y-55150911D01*
X87602521Y-55169314D01*
X87594562Y-55187706D01*
X87594561Y-55187709D01*
X87587271Y-55233731D01*
X87586087Y-55239450D01*
X87574501Y-55284576D01*
X87574500Y-55284586D01*
X87574500Y-55304620D01*
X87572973Y-55324019D01*
X87569840Y-55343798D01*
X87569840Y-55343799D01*
X87574225Y-55390187D01*
X87574500Y-55396025D01*
X87574500Y-72229755D01*
X87572775Y-72245372D01*
X87573061Y-72245399D01*
X87572326Y-72253165D01*
X87574500Y-72322314D01*
X87574500Y-72351843D01*
X87574501Y-72351860D01*
X87575368Y-72358731D01*
X87575826Y-72364550D01*
X87577290Y-72411124D01*
X87577291Y-72411127D01*
X87582880Y-72430367D01*
X87586824Y-72449411D01*
X87589336Y-72469292D01*
X87605546Y-72510234D01*
X87606490Y-72512619D01*
X87608382Y-72518147D01*
X87621381Y-72562888D01*
X87631580Y-72580134D01*
X87640138Y-72597603D01*
X87647514Y-72616232D01*
X87674898Y-72653923D01*
X87678106Y-72658807D01*
X87701827Y-72698916D01*
X87701833Y-72698924D01*
X87715990Y-72713080D01*
X87728627Y-72727875D01*
X87740406Y-72744087D01*
X87759414Y-72759812D01*
X87776309Y-72773788D01*
X87780620Y-72777710D01*
X88955238Y-73952328D01*
X90038181Y-75035271D01*
X90071666Y-75096594D01*
X90074500Y-75122952D01*
X90074500Y-75700001D01*
X90074501Y-75700019D01*
X90085000Y-75802796D01*
X90085001Y-75802799D01*
X90129251Y-75936335D01*
X90140186Y-75969334D01*
X90232288Y-76118656D01*
X90356344Y-76242712D01*
X90505666Y-76334814D01*
X90672203Y-76389999D01*
X90774991Y-76400500D01*
X91352047Y-76400499D01*
X91419086Y-76420183D01*
X91439727Y-76436817D01*
X93024346Y-78021437D01*
X94586697Y-79583788D01*
X94596522Y-79596051D01*
X94596743Y-79595869D01*
X94601714Y-79601878D01*
X94618702Y-79617830D01*
X94652135Y-79649226D01*
X94673029Y-79670120D01*
X94678511Y-79674373D01*
X94682943Y-79678157D01*
X94716918Y-79710062D01*
X94734476Y-79719714D01*
X94750735Y-79730395D01*
X94766564Y-79742673D01*
X94809338Y-79761182D01*
X94814556Y-79763738D01*
X94855408Y-79786197D01*
X94874816Y-79791180D01*
X94893217Y-79797480D01*
X94911604Y-79805437D01*
X94954988Y-79812308D01*
X94957619Y-79812725D01*
X94963339Y-79813909D01*
X95008481Y-79825500D01*
X95028516Y-79825500D01*
X95047914Y-79827026D01*
X95067694Y-79830159D01*
X95067695Y-79830160D01*
X95067695Y-79830159D01*
X95067696Y-79830160D01*
X95114084Y-79825775D01*
X95119922Y-79825500D01*
X96820997Y-79825500D01*
X96888036Y-79845185D01*
X96933791Y-79897989D01*
X96943735Y-79967147D01*
X96933379Y-80001904D01*
X96926571Y-80016502D01*
X96926567Y-80016513D01*
X96869364Y-80229999D01*
X96869364Y-80230000D01*
X97766314Y-80230000D01*
X97740507Y-80270156D01*
X97700000Y-80408111D01*
X97700000Y-80551889D01*
X97740507Y-80689844D01*
X97766314Y-80730000D01*
X96869364Y-80730000D01*
X96926567Y-80943486D01*
X96926570Y-80943492D01*
X97026399Y-81157578D01*
X97161894Y-81351082D01*
X97328917Y-81518105D01*
X97522421Y-81653600D01*
X97736507Y-81753429D01*
X97736516Y-81753433D01*
X97950000Y-81810634D01*
X97950000Y-80915501D01*
X98057685Y-80964680D01*
X98164237Y-80980000D01*
X98235763Y-80980000D01*
X98342315Y-80964680D01*
X98450000Y-80915501D01*
X98450000Y-81810633D01*
X98663483Y-81753433D01*
X98663492Y-81753429D01*
X98877578Y-81653600D01*
X99071082Y-81518105D01*
X99238105Y-81351082D01*
X99373600Y-81157578D01*
X99473429Y-80943492D01*
X99473432Y-80943486D01*
X99530636Y-80730000D01*
X98633686Y-80730000D01*
X98659493Y-80689844D01*
X98700000Y-80551889D01*
X98700000Y-80408111D01*
X98659493Y-80270156D01*
X98633686Y-80230000D01*
X99530636Y-80230000D01*
X99530635Y-80229999D01*
X99473432Y-80016513D01*
X99473428Y-80016502D01*
X99466621Y-80001904D01*
X99456129Y-79932827D01*
X99484649Y-79869043D01*
X99543126Y-79830804D01*
X99579003Y-79825500D01*
X101984242Y-79825500D01*
X102051281Y-79845185D01*
X102071923Y-79861819D01*
X102188599Y-79978495D01*
X102285384Y-80046265D01*
X102382165Y-80114032D01*
X102382167Y-80114033D01*
X102382170Y-80114035D01*
X102596337Y-80213903D01*
X102824592Y-80275063D01*
X103012918Y-80291539D01*
X103059999Y-80295659D01*
X103060000Y-80295659D01*
X103060001Y-80295659D01*
X103099234Y-80292226D01*
X103295408Y-80275063D01*
X103523663Y-80213903D01*
X103737830Y-80114035D01*
X103931401Y-79978495D01*
X104098495Y-79811401D01*
X104228730Y-79625405D01*
X104283307Y-79581781D01*
X104352805Y-79574587D01*
X104415160Y-79606110D01*
X104431879Y-79625405D01*
X104561890Y-79811078D01*
X104728917Y-79978105D01*
X104922421Y-80113600D01*
X105136507Y-80213429D01*
X105136516Y-80213433D01*
X105350000Y-80270634D01*
X105350000Y-79375501D01*
X105457685Y-79424680D01*
X105564237Y-79440000D01*
X105635763Y-79440000D01*
X105742315Y-79424680D01*
X105850000Y-79375501D01*
X105850000Y-80270633D01*
X106063483Y-80213433D01*
X106063492Y-80213429D01*
X106277578Y-80113600D01*
X106471082Y-79978105D01*
X106638105Y-79811082D01*
X106773600Y-79617578D01*
X106873429Y-79403492D01*
X106873432Y-79403486D01*
X106930636Y-79190000D01*
X106033686Y-79190000D01*
X106059493Y-79149844D01*
X106100000Y-79011889D01*
X106100000Y-78868111D01*
X106059493Y-78730156D01*
X106033686Y-78690000D01*
X106930636Y-78690000D01*
X106930635Y-78689999D01*
X106873432Y-78476513D01*
X106873429Y-78476507D01*
X106773600Y-78262422D01*
X106773599Y-78262420D01*
X106638113Y-78068926D01*
X106638108Y-78068920D01*
X106471078Y-77901890D01*
X106285405Y-77771879D01*
X106241780Y-77717302D01*
X106234588Y-77647804D01*
X106266110Y-77585449D01*
X106285406Y-77568730D01*
X106405910Y-77484352D01*
X106471401Y-77438495D01*
X106638495Y-77271401D01*
X106774035Y-77077830D01*
X106873903Y-76863663D01*
X106935063Y-76635408D01*
X106955659Y-76400000D01*
X106935063Y-76164592D01*
X106873903Y-75936337D01*
X106774035Y-75722171D01*
X106758517Y-75700008D01*
X106638494Y-75528597D01*
X106471402Y-75361506D01*
X106471396Y-75361501D01*
X106285842Y-75231575D01*
X106242217Y-75176998D01*
X106235023Y-75107500D01*
X106266546Y-75045145D01*
X106285842Y-75028425D01*
X106339500Y-74990853D01*
X106471401Y-74898495D01*
X106638495Y-74731401D01*
X106774035Y-74537830D01*
X106873903Y-74323663D01*
X106935063Y-74095408D01*
X106955659Y-73860000D01*
X106935063Y-73624592D01*
X106908143Y-73524123D01*
X106909806Y-73454277D01*
X106940235Y-73404354D01*
X107008788Y-73335801D01*
X107021042Y-73325986D01*
X107020859Y-73325764D01*
X107026866Y-73320792D01*
X107026877Y-73320786D01*
X107057775Y-73287882D01*
X107074227Y-73270364D01*
X107084671Y-73259918D01*
X107095120Y-73249471D01*
X107099379Y-73243978D01*
X107103152Y-73239561D01*
X107135062Y-73205582D01*
X107144715Y-73188020D01*
X107155389Y-73171770D01*
X107167673Y-73155936D01*
X107186180Y-73113167D01*
X107188749Y-73107924D01*
X107211196Y-73067093D01*
X107211197Y-73067092D01*
X107216177Y-73047691D01*
X107222478Y-73029288D01*
X107230438Y-73010896D01*
X107237730Y-72964849D01*
X107238911Y-72959152D01*
X107250500Y-72914019D01*
X107250500Y-72893983D01*
X107252027Y-72874582D01*
X107255160Y-72854804D01*
X107250775Y-72808415D01*
X107250500Y-72802577D01*
X107250500Y-67999500D01*
X107270185Y-67932461D01*
X107322989Y-67886706D01*
X107374500Y-67875500D01*
X109955431Y-67875500D01*
X109971051Y-67877224D01*
X109971078Y-67876939D01*
X109978834Y-67877671D01*
X109978841Y-67877673D01*
X110047988Y-67875500D01*
X110077524Y-67875500D01*
X110084402Y-67874630D01*
X110090215Y-67874172D01*
X110136801Y-67872709D01*
X110156043Y-67867117D01*
X110175086Y-67863174D01*
X110194966Y-67860664D01*
X110238296Y-67843507D01*
X110243820Y-67841617D01*
X110247570Y-67840527D01*
X110288564Y-67828618D01*
X110305803Y-67818422D01*
X110323277Y-67809862D01*
X110341901Y-67802488D01*
X110341901Y-67802487D01*
X110341906Y-67802486D01*
X110379623Y-67775082D01*
X110384479Y-67771892D01*
X110424594Y-67748170D01*
X110438763Y-67733999D01*
X110453553Y-67721368D01*
X110469761Y-67709594D01*
X110499473Y-67673676D01*
X110503386Y-67669376D01*
X111758787Y-66413976D01*
X111771042Y-66404160D01*
X111770859Y-66403938D01*
X111776866Y-66398966D01*
X111776877Y-66398960D01*
X111807775Y-66366056D01*
X111824227Y-66348538D01*
X111834671Y-66338092D01*
X111845120Y-66327645D01*
X111849379Y-66322152D01*
X111853152Y-66317735D01*
X111885062Y-66283756D01*
X111894713Y-66266198D01*
X111905396Y-66249935D01*
X111917673Y-66234110D01*
X111936185Y-66191327D01*
X111938738Y-66186115D01*
X111961197Y-66145266D01*
X111966180Y-66125854D01*
X111972481Y-66107454D01*
X111980437Y-66089070D01*
X111987729Y-66043026D01*
X111988906Y-66037345D01*
X112000500Y-65992193D01*
X112000500Y-65972157D01*
X112002027Y-65952756D01*
X112005160Y-65932978D01*
X112000775Y-65886589D01*
X112000500Y-65880751D01*
X112000500Y-63907737D01*
X112002224Y-63892123D01*
X112001938Y-63892096D01*
X112002672Y-63884333D01*
X112000500Y-63815203D01*
X112000500Y-63785651D01*
X112000500Y-63785650D01*
X111999629Y-63778759D01*
X111999172Y-63772945D01*
X111997709Y-63726372D01*
X111992122Y-63707144D01*
X111988174Y-63688084D01*
X111986796Y-63677172D01*
X111985664Y-63668208D01*
X111968507Y-63624875D01*
X111966619Y-63619359D01*
X111953619Y-63574612D01*
X111943418Y-63557363D01*
X111934860Y-63539894D01*
X111927486Y-63521268D01*
X111927483Y-63521264D01*
X111927483Y-63521263D01*
X111900098Y-63483571D01*
X111896890Y-63478687D01*
X111873172Y-63438582D01*
X111873163Y-63438571D01*
X111859005Y-63424413D01*
X111846370Y-63409620D01*
X111834593Y-63393412D01*
X111798693Y-63363713D01*
X111794381Y-63359790D01*
X111586818Y-63152227D01*
X111553333Y-63090904D01*
X111550499Y-63064546D01*
X111550499Y-62474998D01*
X111550498Y-62474981D01*
X111539999Y-62372203D01*
X111539998Y-62372200D01*
X111484814Y-62205666D01*
X111398109Y-62065094D01*
X111379670Y-61997704D01*
X111398109Y-61934905D01*
X111484814Y-61794334D01*
X111539999Y-61627797D01*
X111550500Y-61525009D01*
X111550499Y-60474992D01*
X111540815Y-60380196D01*
X111539999Y-60372203D01*
X111539998Y-60372200D01*
X111523026Y-60320982D01*
X111484814Y-60205666D01*
X111392712Y-60056344D01*
X111268656Y-59932288D01*
X111119334Y-59840186D01*
X110952797Y-59785001D01*
X110952795Y-59785000D01*
X110850010Y-59774500D01*
X110249998Y-59774500D01*
X110249980Y-59774501D01*
X110147203Y-59785000D01*
X110147200Y-59785001D01*
X109980668Y-59840185D01*
X109980663Y-59840187D01*
X109831342Y-59932289D01*
X109707288Y-60056343D01*
X109707283Y-60056349D01*
X109705241Y-60059661D01*
X109703247Y-60061453D01*
X109702807Y-60062011D01*
X109702711Y-60061935D01*
X109653291Y-60106383D01*
X109584328Y-60117602D01*
X109520247Y-60089755D01*
X109494168Y-60059656D01*
X109492319Y-60056659D01*
X109492316Y-60056655D01*
X109368345Y-59932684D01*
X109219124Y-59840643D01*
X109219119Y-59840641D01*
X109052697Y-59785494D01*
X109052690Y-59785493D01*
X108949986Y-59775000D01*
X108900000Y-59775000D01*
X108900000Y-65126000D01*
X108880315Y-65193039D01*
X108827511Y-65238794D01*
X108776000Y-65250000D01*
X107650001Y-65250000D01*
X107650001Y-65524986D01*
X107660494Y-65627697D01*
X107715641Y-65794119D01*
X107715643Y-65794124D01*
X107807684Y-65943345D01*
X107827158Y-65962819D01*
X107860643Y-66024142D01*
X107855659Y-66093834D01*
X107813787Y-66149767D01*
X107748323Y-66174184D01*
X107739477Y-66174500D01*
X107531468Y-66174500D01*
X107464429Y-66154815D01*
X107443787Y-66138181D01*
X107236819Y-65931212D01*
X107203334Y-65869889D01*
X107200500Y-65843531D01*
X107200500Y-65273122D01*
X107202224Y-65257502D01*
X107201939Y-65257475D01*
X107202673Y-65249713D01*
X107200500Y-65180552D01*
X107200500Y-65151036D01*
X107200500Y-65151030D01*
X107199631Y-65144159D01*
X107199173Y-65138332D01*
X107197710Y-65091753D01*
X107192119Y-65072510D01*
X107188173Y-65053458D01*
X107185664Y-65033588D01*
X107168504Y-64990247D01*
X107166624Y-64984759D01*
X107153618Y-64939990D01*
X107143422Y-64922750D01*
X107134861Y-64905274D01*
X107127487Y-64886650D01*
X107127486Y-64886648D01*
X107100079Y-64848925D01*
X107096888Y-64844066D01*
X107096330Y-64843123D01*
X107073170Y-64803960D01*
X107073169Y-64803959D01*
X107073166Y-64803955D01*
X107059007Y-64789797D01*
X107046370Y-64775002D01*
X107034594Y-64758793D01*
X107023965Y-64750000D01*
X107650000Y-64750000D01*
X108400000Y-64750000D01*
X108400000Y-63250000D01*
X107650001Y-63250000D01*
X107650001Y-63524986D01*
X107660494Y-63627697D01*
X107715641Y-63794119D01*
X107715643Y-63794124D01*
X107802477Y-63934903D01*
X107820917Y-64002296D01*
X107802477Y-64065097D01*
X107715643Y-64205875D01*
X107715641Y-64205880D01*
X107660494Y-64372302D01*
X107660493Y-64372309D01*
X107650000Y-64475013D01*
X107650000Y-64750000D01*
X107023965Y-64750000D01*
X106998690Y-64729090D01*
X106994368Y-64725157D01*
X106781933Y-64512722D01*
X106748448Y-64451399D01*
X106746324Y-64438292D01*
X106743380Y-64410901D01*
X106743381Y-64384393D01*
X106749999Y-64322842D01*
X106750000Y-64322827D01*
X106750000Y-64250000D01*
X106731409Y-64250000D01*
X106664370Y-64230315D01*
X106632144Y-64200313D01*
X106607546Y-64167454D01*
X106516457Y-64099265D01*
X106474588Y-64043333D01*
X106469604Y-63973641D01*
X106503089Y-63912318D01*
X106516452Y-63900738D01*
X106607546Y-63832546D01*
X106632143Y-63799687D01*
X106688076Y-63757818D01*
X106731409Y-63750000D01*
X106750000Y-63750000D01*
X106750000Y-63677172D01*
X106749999Y-63677160D01*
X106743380Y-63615604D01*
X106743380Y-63589090D01*
X106744090Y-63582485D01*
X106744091Y-63582483D01*
X106750500Y-63522873D01*
X106750499Y-62877128D01*
X106744091Y-62817517D01*
X106744089Y-62817513D01*
X106743632Y-62813255D01*
X106743632Y-62786745D01*
X106744089Y-62782486D01*
X106744091Y-62782483D01*
X106747583Y-62750000D01*
X107650000Y-62750000D01*
X108400000Y-62750000D01*
X108400000Y-61250000D01*
X107650001Y-61250000D01*
X107650001Y-61524986D01*
X107660494Y-61627697D01*
X107715641Y-61794119D01*
X107715643Y-61794124D01*
X107802477Y-61934903D01*
X107820917Y-62002296D01*
X107802477Y-62065097D01*
X107715643Y-62205875D01*
X107715641Y-62205880D01*
X107660494Y-62372302D01*
X107660493Y-62372309D01*
X107650000Y-62475013D01*
X107650000Y-62750000D01*
X106747583Y-62750000D01*
X106750500Y-62722873D01*
X106750499Y-62077128D01*
X106744091Y-62017517D01*
X106744089Y-62017513D01*
X106743632Y-62013255D01*
X106743632Y-61986745D01*
X106744089Y-61982486D01*
X106744091Y-61982483D01*
X106750500Y-61922873D01*
X106750499Y-61277128D01*
X106744091Y-61217517D01*
X106693796Y-61082669D01*
X106693795Y-61082668D01*
X106693793Y-61082664D01*
X106607547Y-60967455D01*
X106607544Y-60967452D01*
X106492335Y-60881206D01*
X106492328Y-60881202D01*
X106357482Y-60830908D01*
X106357483Y-60830908D01*
X106297883Y-60824501D01*
X106297881Y-60824500D01*
X106297873Y-60824500D01*
X106297865Y-60824500D01*
X104899499Y-60824500D01*
X104832460Y-60804815D01*
X104786705Y-60752011D01*
X104786268Y-60750000D01*
X107650000Y-60750000D01*
X108400000Y-60750000D01*
X108400000Y-59775000D01*
X108399999Y-59774999D01*
X108350029Y-59775000D01*
X108350011Y-59775001D01*
X108247302Y-59785494D01*
X108080880Y-59840641D01*
X108080875Y-59840643D01*
X107931654Y-59932684D01*
X107807684Y-60056654D01*
X107715643Y-60205875D01*
X107715641Y-60205880D01*
X107660494Y-60372302D01*
X107660493Y-60372309D01*
X107650000Y-60475013D01*
X107650000Y-60750000D01*
X104786268Y-60750000D01*
X104775499Y-60700500D01*
X104775499Y-59302129D01*
X104775498Y-59302123D01*
X104769091Y-59242516D01*
X104718797Y-59107671D01*
X104718793Y-59107664D01*
X104632547Y-58992455D01*
X104632544Y-58992452D01*
X104517335Y-58906206D01*
X104517328Y-58906202D01*
X104382486Y-58855910D01*
X104382485Y-58855909D01*
X104382483Y-58855909D01*
X104322873Y-58849500D01*
X104322863Y-58849500D01*
X103677129Y-58849500D01*
X103677120Y-58849501D01*
X103613248Y-58856367D01*
X103586742Y-58856367D01*
X103582483Y-58855909D01*
X103522873Y-58849500D01*
X103522864Y-58849500D01*
X102877129Y-58849500D01*
X102877120Y-58849501D01*
X102813248Y-58856367D01*
X102786742Y-58856367D01*
X102782483Y-58855909D01*
X102722873Y-58849500D01*
X102722867Y-58849500D01*
X102484451Y-58849500D01*
X102417412Y-58829815D01*
X102371657Y-58777011D01*
X102361713Y-58707853D01*
X102390738Y-58644297D01*
X102396770Y-58637819D01*
X102759089Y-58275500D01*
X105183788Y-55850801D01*
X105196042Y-55840986D01*
X105195859Y-55840764D01*
X105201866Y-55835792D01*
X105201877Y-55835786D01*
X105232775Y-55802882D01*
X105249227Y-55785364D01*
X105259671Y-55774918D01*
X105270120Y-55764471D01*
X105274379Y-55758978D01*
X105278152Y-55754561D01*
X105310062Y-55720582D01*
X105319713Y-55703024D01*
X105330396Y-55686761D01*
X105342673Y-55670936D01*
X105361185Y-55628153D01*
X105363738Y-55622941D01*
X105386197Y-55582092D01*
X105391180Y-55562680D01*
X105397481Y-55544280D01*
X105405437Y-55525896D01*
X105412729Y-55479852D01*
X105413906Y-55474171D01*
X105425500Y-55429019D01*
X105425500Y-55408983D01*
X105427027Y-55389582D01*
X105430160Y-55369804D01*
X105425926Y-55325009D01*
X105425775Y-55323415D01*
X105425500Y-55317577D01*
X105425500Y-54282738D01*
X105427224Y-54267124D01*
X105426938Y-54267097D01*
X105427672Y-54259334D01*
X105425500Y-54190203D01*
X105425500Y-54160651D01*
X105425500Y-54160650D01*
X105424629Y-54153759D01*
X105424172Y-54147945D01*
X105424006Y-54142673D01*
X105422709Y-54101373D01*
X105417122Y-54082144D01*
X105413174Y-54063084D01*
X105410664Y-54043208D01*
X105393507Y-53999875D01*
X105391619Y-53994359D01*
X105378619Y-53949612D01*
X105368418Y-53932363D01*
X105359860Y-53914894D01*
X105352486Y-53896268D01*
X105352483Y-53896264D01*
X105352483Y-53896263D01*
X105325098Y-53858571D01*
X105321890Y-53853687D01*
X105298172Y-53813582D01*
X105298163Y-53813571D01*
X105284005Y-53799413D01*
X105271370Y-53784620D01*
X105259593Y-53768412D01*
X105223693Y-53738713D01*
X105219381Y-53734790D01*
X104989022Y-53504431D01*
X104955537Y-53443108D01*
X104960521Y-53373416D01*
X105002393Y-53317483D01*
X105010176Y-53312107D01*
X105012258Y-53310783D01*
X105012656Y-53310531D01*
X105013401Y-53310056D01*
X105018077Y-53308705D01*
X105028955Y-53300418D01*
X105033248Y-53297425D01*
X105038753Y-53293921D01*
X105047690Y-53286145D01*
X105048999Y-53285148D01*
X105054388Y-53281042D01*
X105059215Y-53279194D01*
X105071462Y-53268785D01*
X105071507Y-53268764D01*
X105078856Y-53262514D01*
X105081453Y-53260424D01*
X105101439Y-53245198D01*
X105119645Y-53227950D01*
X105122134Y-53225716D01*
X105141364Y-53209370D01*
X105158643Y-53191133D01*
X105161023Y-53188754D01*
X105167967Y-53182177D01*
X105167990Y-53182150D01*
X105179362Y-53171375D01*
X105195730Y-53152118D01*
X105197964Y-53149630D01*
X105215187Y-53131449D01*
X105230546Y-53111290D01*
X105232624Y-53108708D01*
X105244115Y-53095189D01*
X105251060Y-53084364D01*
X105255999Y-53077883D01*
X105256285Y-53077508D01*
X105260156Y-53074670D01*
X105267429Y-53063242D01*
X105270422Y-53058950D01*
X105274345Y-53053799D01*
X105279981Y-53043520D01*
X105280380Y-53042891D01*
X105292804Y-53023368D01*
X105292820Y-53023344D01*
X105298045Y-53015133D01*
X105301919Y-53011744D01*
X105314766Y-52989014D01*
X105316434Y-52986234D01*
X105326218Y-52970857D01*
X105331596Y-52959236D01*
X105335662Y-52952042D01*
X105335894Y-52951636D01*
X105339216Y-52948448D01*
X105344654Y-52936584D01*
X105347043Y-52931905D01*
X105353957Y-52919672D01*
X105369471Y-52882436D01*
X105373829Y-52872930D01*
X105375420Y-52871098D01*
X105378029Y-52864141D01*
X105379723Y-52860069D01*
X105381211Y-52856821D01*
X105382833Y-52851333D01*
X105386434Y-52841725D01*
X105396925Y-52816547D01*
X105399870Y-52805895D01*
X105401424Y-52801749D01*
X105403983Y-52798341D01*
X105406471Y-52789101D01*
X105408288Y-52783445D01*
X105409472Y-52780287D01*
X105411558Y-52770207D01*
X105411705Y-52769662D01*
X105413620Y-52766530D01*
X105422414Y-52729890D01*
X105425829Y-52717209D01*
X105427405Y-52714629D01*
X105429179Y-52705409D01*
X105430197Y-52700993D01*
X105430585Y-52699550D01*
X105431051Y-52695672D01*
X105432496Y-52688158D01*
X105433093Y-52685395D01*
X105441092Y-52652066D01*
X105443311Y-52632841D01*
X105444019Y-52628236D01*
X105447088Y-52612274D01*
X105449895Y-52575810D01*
X105451409Y-52562683D01*
X105452218Y-52560771D01*
X105452421Y-52555497D01*
X105452784Y-52550768D01*
X105453031Y-52548622D01*
X105452879Y-52543603D01*
X105453386Y-52530419D01*
X105454416Y-52517042D01*
X105455142Y-52515127D01*
X105455142Y-52509983D01*
X105455325Y-52505226D01*
X105455484Y-52503148D01*
X105455142Y-52498156D01*
X105455142Y-52484811D01*
X105456143Y-52458789D01*
X105455393Y-52450251D01*
X105455142Y-52450000D01*
X104750000Y-52450000D01*
X104750000Y-51950000D01*
X105455142Y-51950000D01*
X105456253Y-51948888D01*
X105456418Y-51948328D01*
X105455142Y-51915180D01*
X105455142Y-51901861D01*
X105455719Y-51899894D01*
X105455325Y-51894764D01*
X105455142Y-51890007D01*
X105455142Y-51887910D01*
X105454415Y-51882948D01*
X105453386Y-51869569D01*
X105452881Y-51856459D01*
X105453386Y-51854453D01*
X105452784Y-51849233D01*
X105452421Y-51844503D01*
X105452337Y-51842322D01*
X105451412Y-51837343D01*
X105449895Y-51824190D01*
X105447088Y-51787722D01*
X105444020Y-51771769D01*
X105443312Y-51767163D01*
X105441093Y-51747936D01*
X105433091Y-51714596D01*
X105432494Y-51711835D01*
X105431055Y-51704349D01*
X105431206Y-51702766D01*
X105430199Y-51699025D01*
X105429182Y-51694609D01*
X105428262Y-51689825D01*
X105425839Y-51682829D01*
X105422419Y-51670131D01*
X105414985Y-51639157D01*
X105411705Y-51630340D01*
X105411547Y-51629753D01*
X105411643Y-51625503D01*
X105408285Y-51616548D01*
X105406469Y-51610895D01*
X105405593Y-51607644D01*
X105401440Y-51598293D01*
X105399467Y-51593032D01*
X105397974Y-51588539D01*
X105397287Y-51586172D01*
X105397975Y-51585972D01*
X105386430Y-51558263D01*
X105382851Y-51548719D01*
X105382679Y-51546380D01*
X105379721Y-51539926D01*
X105378030Y-51535860D01*
X105376703Y-51532321D01*
X105373845Y-51527104D01*
X105369474Y-51517568D01*
X105353959Y-51480331D01*
X105347047Y-51468103D01*
X105344659Y-51463425D01*
X105342008Y-51457640D01*
X105335609Y-51447864D01*
X105335543Y-51447747D01*
X105331629Y-51440822D01*
X105330460Y-51435807D01*
X105316429Y-51413758D01*
X105314761Y-51410978D01*
X105305795Y-51395114D01*
X105298050Y-51384873D01*
X105294920Y-51379954D01*
X105280357Y-51357071D01*
X105280020Y-51356540D01*
X105278680Y-51351889D01*
X105270416Y-51341041D01*
X105267425Y-51336752D01*
X105263936Y-51331270D01*
X105256232Y-51322422D01*
X105255708Y-51321735D01*
X105251078Y-51315657D01*
X105249230Y-51310828D01*
X105232629Y-51291296D01*
X105230552Y-51288715D01*
X105215188Y-51268548D01*
X105197962Y-51250368D01*
X105195726Y-51247876D01*
X105179361Y-51228620D01*
X105161054Y-51211277D01*
X105158687Y-51208910D01*
X105141371Y-51190635D01*
X105122130Y-51174280D01*
X105119642Y-51172047D01*
X105101445Y-51154806D01*
X105081293Y-51139454D01*
X105078713Y-51137377D01*
X105065260Y-51125943D01*
X105054413Y-51118976D01*
X105050676Y-51116129D01*
X105047648Y-51113820D01*
X105044774Y-51109909D01*
X105033243Y-51102572D01*
X105028954Y-51099581D01*
X105023831Y-51095678D01*
X105013510Y-51090013D01*
X105012180Y-51089168D01*
X105005996Y-51085231D01*
X104988433Y-51074053D01*
X104988389Y-51074027D01*
X104985151Y-51071966D01*
X104981775Y-51068103D01*
X104959063Y-51055264D01*
X104956287Y-51053598D01*
X104940901Y-51043806D01*
X104929249Y-51038411D01*
X104922900Y-51034822D01*
X104922260Y-51034459D01*
X104873622Y-50984298D01*
X104867049Y-50969549D01*
X104866289Y-50967493D01*
X104861508Y-50897787D01*
X104895173Y-50836562D01*
X104956594Y-50803257D01*
X104982597Y-50800500D01*
X113275500Y-50800500D01*
X113342539Y-50820185D01*
X113388294Y-50872989D01*
X113399500Y-50924500D01*
X113399500Y-85513406D01*
X113379815Y-85580445D01*
X113327011Y-85626200D01*
X113275500Y-85637406D01*
X86524500Y-85637406D01*
X86457461Y-85617721D01*
X86411706Y-85564917D01*
X86400500Y-85513406D01*
X86400500Y-50924500D01*
X86420185Y-50857461D01*
X86472989Y-50811706D01*
X86524500Y-50800500D01*
X97017468Y-50800500D01*
X97084507Y-50820185D01*
G37*
%TD.AperFunction*%
%TA.AperFunction,Conductor*%
G36*
X95808808Y-67845185D02*
G01*
X95816080Y-67850233D01*
X95907668Y-67918795D01*
X95907671Y-67918797D01*
X96042517Y-67969091D01*
X96042516Y-67969091D01*
X96049444Y-67969835D01*
X96102127Y-67975500D01*
X97500500Y-67975499D01*
X97567539Y-67995184D01*
X97613294Y-68047987D01*
X97624500Y-68099499D01*
X97624500Y-69497870D01*
X97624501Y-69497876D01*
X97630908Y-69557483D01*
X97681202Y-69692328D01*
X97681206Y-69692335D01*
X97767452Y-69807544D01*
X97767455Y-69807547D01*
X97847569Y-69867521D01*
X97889440Y-69923455D01*
X97894424Y-69993146D01*
X97860939Y-70054468D01*
X96641208Y-71274199D01*
X96628951Y-71284020D01*
X96629134Y-71284241D01*
X96623123Y-71289213D01*
X96575772Y-71339636D01*
X96554889Y-71360519D01*
X96554877Y-71360532D01*
X96550621Y-71366017D01*
X96546837Y-71370447D01*
X96514937Y-71404418D01*
X96514936Y-71404420D01*
X96505284Y-71421976D01*
X96494610Y-71438226D01*
X96482329Y-71454061D01*
X96482324Y-71454068D01*
X96463815Y-71496838D01*
X96461245Y-71502084D01*
X96438803Y-71542906D01*
X96433822Y-71562307D01*
X96427521Y-71580710D01*
X96419562Y-71599102D01*
X96419561Y-71599105D01*
X96412271Y-71645127D01*
X96411087Y-71650846D01*
X96399501Y-71695972D01*
X96399500Y-71695982D01*
X96399500Y-71716016D01*
X96397973Y-71735415D01*
X96394840Y-71755194D01*
X96394840Y-71755195D01*
X96399225Y-71801583D01*
X96399500Y-71807421D01*
X96399500Y-74142255D01*
X96397775Y-74157872D01*
X96398061Y-74157899D01*
X96397326Y-74165665D01*
X96399500Y-74234814D01*
X96399500Y-74264343D01*
X96399501Y-74264360D01*
X96400368Y-74271231D01*
X96400826Y-74277050D01*
X96402290Y-74323624D01*
X96402291Y-74323627D01*
X96407880Y-74342867D01*
X96411824Y-74361911D01*
X96414336Y-74381791D01*
X96431490Y-74425119D01*
X96433382Y-74430647D01*
X96446382Y-74475390D01*
X96454729Y-74489505D01*
X96456580Y-74492634D01*
X96465138Y-74510103D01*
X96472514Y-74528732D01*
X96499898Y-74566423D01*
X96503106Y-74571307D01*
X96526827Y-74611416D01*
X96526833Y-74611424D01*
X96540990Y-74625580D01*
X96553628Y-74640376D01*
X96565405Y-74656586D01*
X96565406Y-74656587D01*
X96601309Y-74686288D01*
X96605620Y-74690210D01*
X96732893Y-74817483D01*
X96859762Y-74944352D01*
X96893247Y-75005675D01*
X96891856Y-75064126D01*
X96864938Y-75164586D01*
X96864936Y-75164596D01*
X96844341Y-75399999D01*
X96844341Y-75400388D01*
X96844292Y-75400553D01*
X96843869Y-75405394D01*
X96842896Y-75405308D01*
X96824656Y-75467427D01*
X96771852Y-75513182D01*
X96702694Y-75523126D01*
X96639138Y-75494101D01*
X96632660Y-75488069D01*
X95960803Y-74816212D01*
X95950980Y-74803950D01*
X95950759Y-74804134D01*
X95945786Y-74798123D01*
X95895364Y-74750773D01*
X95884919Y-74740328D01*
X95874475Y-74729883D01*
X95868986Y-74725625D01*
X95864561Y-74721847D01*
X95830582Y-74689938D01*
X95830580Y-74689936D01*
X95830577Y-74689935D01*
X95813029Y-74680288D01*
X95796763Y-74669604D01*
X95780933Y-74657325D01*
X95738168Y-74638818D01*
X95732922Y-74636248D01*
X95692093Y-74613803D01*
X95692092Y-74613802D01*
X95672693Y-74608822D01*
X95654281Y-74602518D01*
X95635898Y-74594562D01*
X95635892Y-74594560D01*
X95589874Y-74587272D01*
X95584152Y-74586087D01*
X95539021Y-74574500D01*
X95539019Y-74574500D01*
X95518984Y-74574500D01*
X95499586Y-74572973D01*
X95489067Y-74571307D01*
X95479805Y-74569840D01*
X95479804Y-74569840D01*
X95433416Y-74574225D01*
X95427578Y-74574500D01*
X93997017Y-74574500D01*
X93929978Y-74554815D01*
X93884223Y-74502011D01*
X93879311Y-74489505D01*
X93874633Y-74475388D01*
X93859814Y-74430666D01*
X93767712Y-74281344D01*
X93643656Y-74157288D01*
X93498162Y-74067547D01*
X93494336Y-74065187D01*
X93494331Y-74065185D01*
X93492862Y-74064698D01*
X93327797Y-74010001D01*
X93327795Y-74010000D01*
X93225016Y-73999500D01*
X92647953Y-73999500D01*
X92580914Y-73979815D01*
X92560272Y-73963181D01*
X91564373Y-72967282D01*
X91530888Y-72905959D01*
X91535872Y-72836267D01*
X91577744Y-72780334D01*
X91613051Y-72761895D01*
X91619334Y-72759814D01*
X91768656Y-72667712D01*
X91892712Y-72543656D01*
X91894752Y-72540347D01*
X91896745Y-72538555D01*
X91897193Y-72537989D01*
X91897289Y-72538065D01*
X91946694Y-72493623D01*
X92015656Y-72482395D01*
X92079740Y-72510234D01*
X92105829Y-72540339D01*
X92107681Y-72543341D01*
X92107683Y-72543344D01*
X92231654Y-72667315D01*
X92380875Y-72759356D01*
X92380880Y-72759358D01*
X92547302Y-72814505D01*
X92547309Y-72814506D01*
X92650019Y-72824999D01*
X92699999Y-72824998D01*
X92700000Y-72824998D01*
X92700000Y-71850000D01*
X93200000Y-71850000D01*
X93200000Y-72824999D01*
X93249972Y-72824999D01*
X93249986Y-72824998D01*
X93352697Y-72814505D01*
X93519119Y-72759358D01*
X93519124Y-72759356D01*
X93668345Y-72667315D01*
X93792315Y-72543345D01*
X93884356Y-72394124D01*
X93884358Y-72394119D01*
X93939505Y-72227697D01*
X93939506Y-72227690D01*
X93949999Y-72124986D01*
X93950000Y-72124973D01*
X93950000Y-71850000D01*
X93200000Y-71850000D01*
X92700000Y-71850000D01*
X92700000Y-70375000D01*
X93200000Y-70375000D01*
X93200000Y-71350000D01*
X93949999Y-71350000D01*
X93949999Y-71075028D01*
X93949998Y-71075013D01*
X93939505Y-70972302D01*
X93884358Y-70805880D01*
X93884356Y-70805875D01*
X93792315Y-70656654D01*
X93668345Y-70532684D01*
X93519124Y-70440643D01*
X93519119Y-70440641D01*
X93352697Y-70385494D01*
X93352690Y-70385493D01*
X93249986Y-70375000D01*
X93200000Y-70375000D01*
X92700000Y-70375000D01*
X92699999Y-70374999D01*
X92650029Y-70375000D01*
X92650011Y-70375001D01*
X92547302Y-70385494D01*
X92380880Y-70440641D01*
X92380875Y-70440643D01*
X92231654Y-70532684D01*
X92107683Y-70656655D01*
X92107679Y-70656660D01*
X92105826Y-70659665D01*
X92104018Y-70661290D01*
X92103202Y-70662323D01*
X92103025Y-70662183D01*
X92053874Y-70706385D01*
X91984911Y-70717601D01*
X91920831Y-70689752D01*
X91894753Y-70659653D01*
X91894737Y-70659628D01*
X91892712Y-70656344D01*
X91768656Y-70532288D01*
X91768653Y-70532285D01*
X91734401Y-70511158D01*
X91687678Y-70459210D01*
X91675500Y-70405621D01*
X91675500Y-68810452D01*
X91695185Y-68743413D01*
X91711819Y-68722771D01*
X92572771Y-67861819D01*
X92634094Y-67828334D01*
X92660452Y-67825500D01*
X95741769Y-67825500D01*
X95808808Y-67845185D01*
G37*
%TD.AperFunction*%
%TA.AperFunction,Conductor*%
G36*
X93092539Y-54569685D02*
G01*
X93138294Y-54622489D01*
X93149500Y-54674000D01*
X93149500Y-54892255D01*
X93147775Y-54907872D01*
X93148061Y-54907899D01*
X93147326Y-54915665D01*
X93149500Y-54984814D01*
X93149500Y-55014343D01*
X93149501Y-55014360D01*
X93150368Y-55021231D01*
X93150826Y-55027050D01*
X93152290Y-55073624D01*
X93152291Y-55073627D01*
X93157880Y-55092867D01*
X93161824Y-55111911D01*
X93162895Y-55120392D01*
X93164335Y-55131790D01*
X93181490Y-55175120D01*
X93183381Y-55180646D01*
X93195075Y-55220891D01*
X93200000Y-55255490D01*
X93200000Y-56024999D01*
X93249972Y-56024999D01*
X93249986Y-56024998D01*
X93352697Y-56014505D01*
X93519119Y-55959358D01*
X93519130Y-55959353D01*
X93655641Y-55875152D01*
X93723033Y-55856711D01*
X93789697Y-55877633D01*
X93808419Y-55893009D01*
X94913181Y-56997771D01*
X94946666Y-57059094D01*
X94949500Y-57085452D01*
X94949500Y-58714546D01*
X94929815Y-58781585D01*
X94913181Y-58802227D01*
X93816208Y-59899199D01*
X93803951Y-59909020D01*
X93804134Y-59909241D01*
X93798123Y-59914213D01*
X93750772Y-59964636D01*
X93729889Y-59985519D01*
X93729877Y-59985532D01*
X93725621Y-59991017D01*
X93721837Y-59995447D01*
X93689937Y-60029418D01*
X93689936Y-60029420D01*
X93680284Y-60046976D01*
X93669610Y-60063226D01*
X93657329Y-60079061D01*
X93657324Y-60079068D01*
X93638815Y-60121838D01*
X93636245Y-60127084D01*
X93613803Y-60167906D01*
X93608822Y-60187307D01*
X93602521Y-60205710D01*
X93594562Y-60224102D01*
X93594561Y-60224105D01*
X93587271Y-60270127D01*
X93586087Y-60275846D01*
X93574501Y-60320972D01*
X93574500Y-60320982D01*
X93574500Y-60341016D01*
X93572973Y-60360415D01*
X93569840Y-60380194D01*
X93569840Y-60380195D01*
X93574225Y-60426583D01*
X93574500Y-60432421D01*
X93574500Y-63517255D01*
X93572775Y-63532872D01*
X93573061Y-63532899D01*
X93572326Y-63540665D01*
X93574500Y-63609814D01*
X93574500Y-63639343D01*
X93574501Y-63639360D01*
X93575368Y-63646231D01*
X93575826Y-63652050D01*
X93577290Y-63698624D01*
X93577291Y-63698627D01*
X93582880Y-63717867D01*
X93586824Y-63736911D01*
X93589336Y-63756792D01*
X93604200Y-63794334D01*
X93606490Y-63800119D01*
X93608382Y-63805647D01*
X93621381Y-63850388D01*
X93631580Y-63867634D01*
X93640136Y-63885100D01*
X93643680Y-63894048D01*
X93647514Y-63903732D01*
X93674898Y-63941423D01*
X93678106Y-63946307D01*
X93701827Y-63986416D01*
X93701833Y-63986424D01*
X93715990Y-64000580D01*
X93728628Y-64015376D01*
X93736607Y-64026359D01*
X93740406Y-64031587D01*
X93770332Y-64056344D01*
X93776309Y-64061288D01*
X93780620Y-64065210D01*
X93945725Y-64230315D01*
X94099194Y-64383784D01*
X94109017Y-64396045D01*
X94109239Y-64395863D01*
X94114212Y-64401875D01*
X94114213Y-64401876D01*
X94114214Y-64401877D01*
X94123832Y-64410909D01*
X94164636Y-64449227D01*
X94185523Y-64470115D01*
X94185527Y-64470118D01*
X94185529Y-64470120D01*
X94191011Y-64474373D01*
X94195443Y-64478157D01*
X94229418Y-64510062D01*
X94246976Y-64519714D01*
X94263235Y-64530395D01*
X94279064Y-64542673D01*
X94321838Y-64561182D01*
X94327056Y-64563738D01*
X94367908Y-64586197D01*
X94387316Y-64591180D01*
X94405717Y-64597480D01*
X94424104Y-64605437D01*
X94467488Y-64612308D01*
X94470119Y-64612725D01*
X94475839Y-64613909D01*
X94520981Y-64625500D01*
X94541016Y-64625500D01*
X94560414Y-64627026D01*
X94580194Y-64630159D01*
X94580195Y-64630160D01*
X94580195Y-64630159D01*
X94580196Y-64630160D01*
X94626584Y-64625775D01*
X94632422Y-64625500D01*
X95741769Y-64625500D01*
X95808808Y-64645185D01*
X95816080Y-64650233D01*
X95883540Y-64700733D01*
X95925411Y-64756667D01*
X95930395Y-64826358D01*
X95896910Y-64887681D01*
X95883540Y-64899266D01*
X95792456Y-64967451D01*
X95792454Y-64967454D01*
X95767856Y-65000312D01*
X95711924Y-65042182D01*
X95668591Y-65050000D01*
X95650000Y-65050000D01*
X95650000Y-65122844D01*
X95656619Y-65184398D01*
X95656620Y-65210909D01*
X95655909Y-65217514D01*
X95655909Y-65217517D01*
X95649500Y-65277127D01*
X95649500Y-65524986D01*
X95649501Y-65650500D01*
X95629817Y-65717539D01*
X95577013Y-65763294D01*
X95525501Y-65774500D01*
X94710452Y-65774500D01*
X94643413Y-65754815D01*
X94622771Y-65738181D01*
X91461819Y-62577228D01*
X91428334Y-62515905D01*
X91425500Y-62489547D01*
X91425500Y-61923149D01*
X91445185Y-61856110D01*
X91478374Y-61821576D01*
X91606877Y-61731598D01*
X91761598Y-61576877D01*
X91887102Y-61397639D01*
X91979575Y-61199330D01*
X92036207Y-60987977D01*
X92055277Y-60770000D01*
X92036207Y-60552023D01*
X91990166Y-60380195D01*
X91979577Y-60340677D01*
X91979576Y-60340676D01*
X91979575Y-60340670D01*
X91887102Y-60142362D01*
X91887100Y-60142359D01*
X91887099Y-60142357D01*
X91761597Y-59963121D01*
X91711819Y-59913343D01*
X91678334Y-59852020D01*
X91675500Y-59825662D01*
X91675500Y-55994377D01*
X91695185Y-55927338D01*
X91734406Y-55888837D01*
X91752571Y-55877633D01*
X91768656Y-55867712D01*
X91892712Y-55743656D01*
X91894752Y-55740347D01*
X91896745Y-55738555D01*
X91897193Y-55737989D01*
X91897289Y-55738065D01*
X91946694Y-55693623D01*
X92015656Y-55682395D01*
X92079740Y-55710234D01*
X92105829Y-55740339D01*
X92107681Y-55743341D01*
X92107683Y-55743344D01*
X92231654Y-55867315D01*
X92380875Y-55959356D01*
X92380880Y-55959358D01*
X92547302Y-56014505D01*
X92547309Y-56014506D01*
X92650019Y-56024999D01*
X92699999Y-56024998D01*
X92700000Y-56024998D01*
X92700000Y-54674000D01*
X92719685Y-54606961D01*
X92772489Y-54561206D01*
X92824000Y-54550000D01*
X93025500Y-54550000D01*
X93092539Y-54569685D01*
G37*
%TD.AperFunction*%
%TA.AperFunction,Conductor*%
G36*
X97567539Y-59670185D02*
G01*
X97613294Y-59722989D01*
X97624500Y-59774500D01*
X97624500Y-60700500D01*
X97604815Y-60767539D01*
X97552011Y-60813294D01*
X97500500Y-60824500D01*
X96102129Y-60824500D01*
X96102123Y-60824501D01*
X96042516Y-60830908D01*
X95907671Y-60881202D01*
X95907664Y-60881206D01*
X95792455Y-60967452D01*
X95792452Y-60967455D01*
X95706206Y-61082664D01*
X95706202Y-61082671D01*
X95655910Y-61217513D01*
X95655909Y-61217517D01*
X95649500Y-61277127D01*
X95649500Y-61277134D01*
X95649500Y-61277135D01*
X95649500Y-61922870D01*
X95649501Y-61922879D01*
X95656367Y-61986751D01*
X95656367Y-62013257D01*
X95655909Y-62017516D01*
X95655909Y-62017517D01*
X95649500Y-62077127D01*
X95649500Y-62077129D01*
X95649500Y-62077133D01*
X95649500Y-62722870D01*
X95649501Y-62722876D01*
X95656619Y-62789092D01*
X95656619Y-62815599D01*
X95650000Y-62877169D01*
X95650000Y-62950000D01*
X95668591Y-62950000D01*
X95735630Y-62969685D01*
X95767855Y-62999686D01*
X95792454Y-63032546D01*
X95883541Y-63100734D01*
X95925411Y-63156666D01*
X95930395Y-63226358D01*
X95896910Y-63287681D01*
X95883540Y-63299265D01*
X95816080Y-63349766D01*
X95750616Y-63374184D01*
X95741769Y-63374500D01*
X94949500Y-63374500D01*
X94882461Y-63354815D01*
X94836706Y-63302011D01*
X94825500Y-63250500D01*
X94825500Y-60710452D01*
X94845185Y-60643413D01*
X94861819Y-60622771D01*
X95797771Y-59686819D01*
X95859094Y-59653334D01*
X95885452Y-59650500D01*
X97500500Y-59650500D01*
X97567539Y-59670185D01*
G37*
%TD.AperFunction*%
%TA.AperFunction,Conductor*%
G36*
X95731157Y-53645185D02*
G01*
X95751798Y-53661818D01*
X95926411Y-53836432D01*
X96073767Y-53983788D01*
X96083592Y-53996051D01*
X96083813Y-53995869D01*
X96088784Y-54001878D01*
X96114787Y-54026295D01*
X96139205Y-54049226D01*
X96160099Y-54070120D01*
X96165581Y-54074373D01*
X96170013Y-54078157D01*
X96203988Y-54110062D01*
X96221546Y-54119714D01*
X96237805Y-54130395D01*
X96253634Y-54142673D01*
X96296408Y-54161182D01*
X96301626Y-54163738D01*
X96342478Y-54186197D01*
X96361886Y-54191180D01*
X96380287Y-54197480D01*
X96398674Y-54205437D01*
X96442058Y-54212308D01*
X96444689Y-54212725D01*
X96450409Y-54213909D01*
X96495551Y-54225500D01*
X96515586Y-54225500D01*
X96534984Y-54227026D01*
X96554764Y-54230159D01*
X96554765Y-54230160D01*
X96554765Y-54230159D01*
X96554766Y-54230160D01*
X96601154Y-54225775D01*
X96606992Y-54225500D01*
X97370936Y-54225500D01*
X97437975Y-54245185D01*
X97483730Y-54297989D01*
X97493674Y-54367147D01*
X97482264Y-54404108D01*
X97405978Y-54559627D01*
X97382579Y-54649999D01*
X97382580Y-54650000D01*
X98204163Y-54650000D01*
X98126736Y-54701736D01*
X98065955Y-54792700D01*
X98044612Y-54900000D01*
X98065955Y-55007300D01*
X98126736Y-55098264D01*
X98204163Y-55150000D01*
X97377869Y-55150000D01*
X97445122Y-55331591D01*
X97445126Y-55331598D01*
X97550019Y-55499883D01*
X97686633Y-55643601D01*
X97686635Y-55643602D01*
X97849390Y-55756884D01*
X98031615Y-55835082D01*
X98225852Y-55875000D01*
X98250000Y-55875000D01*
X98250000Y-55165469D01*
X98297912Y-55175000D01*
X98702088Y-55175000D01*
X98750000Y-55165469D01*
X98750000Y-55872400D01*
X98872277Y-55859967D01*
X98978955Y-55826496D01*
X99048813Y-55825208D01*
X99108277Y-55861893D01*
X99115344Y-55870498D01*
X99142809Y-55907186D01*
X99142814Y-55907191D01*
X99257906Y-55993350D01*
X99257913Y-55993354D01*
X99392620Y-56043596D01*
X99392627Y-56043598D01*
X99452155Y-56049999D01*
X99452172Y-56050000D01*
X99500000Y-56050000D01*
X99500000Y-55889435D01*
X99519685Y-55822396D01*
X99572489Y-55776641D01*
X99641647Y-55766697D01*
X99705203Y-55795722D01*
X99723266Y-55815123D01*
X99792454Y-55907546D01*
X99850311Y-55950858D01*
X99892182Y-56006789D01*
X99899972Y-56049972D01*
X99900000Y-56050000D01*
X99947828Y-56050000D01*
X99947839Y-56049999D01*
X100009395Y-56043380D01*
X100035909Y-56043380D01*
X100042514Y-56044090D01*
X100042517Y-56044091D01*
X100102127Y-56050500D01*
X100597872Y-56050499D01*
X100657483Y-56044091D01*
X100657486Y-56044089D01*
X100661744Y-56043632D01*
X100688254Y-56043632D01*
X100692514Y-56044089D01*
X100692517Y-56044091D01*
X100752127Y-56050500D01*
X101247872Y-56050499D01*
X101307483Y-56044091D01*
X101307486Y-56044089D01*
X101311744Y-56043632D01*
X101338254Y-56043632D01*
X101342514Y-56044089D01*
X101342517Y-56044091D01*
X101402127Y-56050500D01*
X101550500Y-56050499D01*
X101617539Y-56070183D01*
X101663294Y-56122987D01*
X101674500Y-56174499D01*
X101674500Y-56903151D01*
X101654815Y-56970190D01*
X101638181Y-56990832D01*
X100265832Y-58363181D01*
X100204509Y-58396666D01*
X100178151Y-58399500D01*
X96324500Y-58399500D01*
X96257461Y-58379815D01*
X96211706Y-58327011D01*
X96200500Y-58275500D01*
X96200500Y-56857737D01*
X96202224Y-56842123D01*
X96201938Y-56842096D01*
X96202672Y-56834333D01*
X96200500Y-56765202D01*
X96200500Y-56735651D01*
X96200500Y-56735650D01*
X96199629Y-56728759D01*
X96199172Y-56722945D01*
X96197709Y-56676374D01*
X96197709Y-56676372D01*
X96192120Y-56657137D01*
X96188174Y-56638084D01*
X96185664Y-56618208D01*
X96168501Y-56574859D01*
X96166614Y-56569346D01*
X96153617Y-56524610D01*
X96153616Y-56524608D01*
X96143421Y-56507369D01*
X96134860Y-56489893D01*
X96127486Y-56471269D01*
X96127486Y-56471267D01*
X96117474Y-56457488D01*
X96100083Y-56433550D01*
X96096900Y-56428705D01*
X96073170Y-56388579D01*
X96073165Y-56388573D01*
X96059005Y-56374413D01*
X96046370Y-56359620D01*
X96034593Y-56343412D01*
X95998693Y-56313713D01*
X95994381Y-56309790D01*
X94436819Y-54752228D01*
X94403334Y-54690905D01*
X94400500Y-54664547D01*
X94400500Y-54169568D01*
X94402224Y-54153948D01*
X94401939Y-54153922D01*
X94402671Y-54146166D01*
X94402673Y-54146159D01*
X94400500Y-54077011D01*
X94400500Y-54047476D01*
X94399631Y-54040598D01*
X94399172Y-54034769D01*
X94397709Y-53988198D01*
X94392122Y-53968970D01*
X94388174Y-53949910D01*
X94385664Y-53930034D01*
X94385663Y-53930032D01*
X94385663Y-53930030D01*
X94368512Y-53886713D01*
X94366619Y-53881184D01*
X94353618Y-53836435D01*
X94353616Y-53836432D01*
X94343423Y-53819197D01*
X94334858Y-53801714D01*
X94332256Y-53795141D01*
X94325883Y-53725562D01*
X94358139Y-53663584D01*
X94418783Y-53628883D01*
X94447551Y-53625500D01*
X95664118Y-53625500D01*
X95731157Y-53645185D01*
G37*
%TD.AperFunction*%
%TA.AperFunction,Conductor*%
G36*
X99592539Y-54669685D02*
G01*
X99638294Y-54722489D01*
X99649500Y-54774000D01*
X99649500Y-55026000D01*
X99629815Y-55093039D01*
X99577011Y-55138794D01*
X99525500Y-55150000D01*
X98795837Y-55150000D01*
X98873264Y-55098264D01*
X98934045Y-55007300D01*
X98955388Y-54900000D01*
X98934045Y-54792700D01*
X98873264Y-54701736D01*
X98795837Y-54650000D01*
X99525500Y-54650000D01*
X99592539Y-54669685D01*
G37*
%TD.AperFunction*%
%TA.AperFunction,Conductor*%
G36*
X104250000Y-52450000D02*
G01*
X97750000Y-52450000D01*
X97750000Y-51950000D01*
X104250000Y-51950000D01*
X104250000Y-52450000D01*
G37*
%TD.AperFunction*%
%TD*%
M02*
