%TF.GenerationSoftware,KiCad,Pcbnew,7.0.8*%
%TF.CreationDate,2026-03-26T12:38:55-04:00*%
%TF.ProjectId,TransmitterCircuit,5472616e-736d-4697-9474-657243697263,rev?*%
%TF.SameCoordinates,Original*%
%TF.FileFunction,Soldermask,Top*%
%TF.FilePolarity,Negative*%
%FSLAX46Y46*%
G04 Gerber Fmt 4.6, Leading zero omitted, Abs format (unit mm)*
G04 Created by KiCad (PCBNEW 7.0.8) date 2026-03-26 12:38:55*
%MOMM*%
%LPD*%
G01*
G04 APERTURE LIST*
G04 Aperture macros list*
%AMRoundRect*
0 Rectangle with rounded corners*
0 $1 Rounding radius*
0 $2 $3 $4 $5 $6 $7 $8 $9 X,Y pos of 4 corners*
0 Add a 4 corners polygon primitive as box body*
4,1,4,$2,$3,$4,$5,$6,$7,$8,$9,$2,$3,0*
0 Add four circle primitives for the rounded corners*
1,1,$1+$1,$2,$3*
1,1,$1+$1,$4,$5*
1,1,$1+$1,$6,$7*
1,1,$1+$1,$8,$9*
0 Add four rect primitives between the rounded corners*
20,1,$1+$1,$2,$3,$4,$5,0*
20,1,$1+$1,$4,$5,$6,$7,0*
20,1,$1+$1,$6,$7,$8,$9,0*
20,1,$1+$1,$8,$9,$2,$3,0*%
G04 Aperture macros list end*
%ADD10C,0.010000*%
%ADD11RoundRect,0.250000X0.250000X0.475000X-0.250000X0.475000X-0.250000X-0.475000X0.250000X-0.475000X0*%
%ADD12RoundRect,0.250000X-0.250000X-0.475000X0.250000X-0.475000X0.250000X0.475000X-0.250000X0.475000X0*%
%ADD13R,1.700000X1.700000*%
%ADD14O,1.700000X1.700000*%
%ADD15RoundRect,0.102000X0.200000X0.675000X-0.200000X0.675000X-0.200000X-0.675000X0.200000X-0.675000X0*%
%ADD16RoundRect,0.102000X0.750000X0.775000X-0.750000X0.775000X-0.750000X-0.775000X0.750000X-0.775000X0*%
%ADD17O,1.504000X1.154000*%
%ADD18RoundRect,0.250000X-0.262500X-0.450000X0.262500X-0.450000X0.262500X0.450000X-0.262500X0.450000X0*%
%ADD19C,1.500000*%
%ADD20R,1.600000X0.550000*%
%ADD21R,0.550000X1.600000*%
G04 APERTURE END LIST*
%TO.C,J3*%
D10*
X104476000Y-51326000D02*
X104508000Y-51328000D01*
X104539000Y-51332000D01*
X104570000Y-51338000D01*
X104600000Y-51345000D01*
X104630000Y-51354000D01*
X104660000Y-51365000D01*
X104689000Y-51377000D01*
X104717000Y-51390000D01*
X104745000Y-51405000D01*
X104772000Y-51422000D01*
X104798000Y-51440000D01*
X104823000Y-51459000D01*
X104846000Y-51479000D01*
X104869000Y-51501000D01*
X104891000Y-51524000D01*
X104911000Y-51547000D01*
X104930000Y-51572000D01*
X104948000Y-51598000D01*
X104965000Y-51625000D01*
X104980000Y-51653000D01*
X104993000Y-51681000D01*
X105005000Y-51710000D01*
X105016000Y-51740000D01*
X105025000Y-51770000D01*
X105032000Y-51800000D01*
X105038000Y-51831000D01*
X105042000Y-51862000D01*
X105044000Y-51894000D01*
X105045000Y-51925000D01*
X105045000Y-52475000D01*
X105044000Y-52506000D01*
X105042000Y-52538000D01*
X105038000Y-52569000D01*
X105032000Y-52600000D01*
X105025000Y-52630000D01*
X105016000Y-52660000D01*
X105005000Y-52690000D01*
X104993000Y-52719000D01*
X104980000Y-52747000D01*
X104965000Y-52775000D01*
X104948000Y-52802000D01*
X104930000Y-52828000D01*
X104911000Y-52853000D01*
X104891000Y-52876000D01*
X104869000Y-52899000D01*
X104846000Y-52921000D01*
X104823000Y-52941000D01*
X104798000Y-52960000D01*
X104772000Y-52978000D01*
X104745000Y-52995000D01*
X104717000Y-53010000D01*
X104689000Y-53023000D01*
X104660000Y-53035000D01*
X104630000Y-53046000D01*
X104600000Y-53055000D01*
X104570000Y-53062000D01*
X104539000Y-53068000D01*
X104508000Y-53072000D01*
X104476000Y-53074000D01*
X104445000Y-53075000D01*
X103200000Y-53075000D01*
X103200000Y-51325000D01*
X104445000Y-51325000D01*
X104476000Y-51326000D01*
G36*
X104476000Y-51326000D02*
G01*
X104508000Y-51328000D01*
X104539000Y-51332000D01*
X104570000Y-51338000D01*
X104600000Y-51345000D01*
X104630000Y-51354000D01*
X104660000Y-51365000D01*
X104689000Y-51377000D01*
X104717000Y-51390000D01*
X104745000Y-51405000D01*
X104772000Y-51422000D01*
X104798000Y-51440000D01*
X104823000Y-51459000D01*
X104846000Y-51479000D01*
X104869000Y-51501000D01*
X104891000Y-51524000D01*
X104911000Y-51547000D01*
X104930000Y-51572000D01*
X104948000Y-51598000D01*
X104965000Y-51625000D01*
X104980000Y-51653000D01*
X104993000Y-51681000D01*
X105005000Y-51710000D01*
X105016000Y-51740000D01*
X105025000Y-51770000D01*
X105032000Y-51800000D01*
X105038000Y-51831000D01*
X105042000Y-51862000D01*
X105044000Y-51894000D01*
X105045000Y-51925000D01*
X105045000Y-52475000D01*
X105044000Y-52506000D01*
X105042000Y-52538000D01*
X105038000Y-52569000D01*
X105032000Y-52600000D01*
X105025000Y-52630000D01*
X105016000Y-52660000D01*
X105005000Y-52690000D01*
X104993000Y-52719000D01*
X104980000Y-52747000D01*
X104965000Y-52775000D01*
X104948000Y-52802000D01*
X104930000Y-52828000D01*
X104911000Y-52853000D01*
X104891000Y-52876000D01*
X104869000Y-52899000D01*
X104846000Y-52921000D01*
X104823000Y-52941000D01*
X104798000Y-52960000D01*
X104772000Y-52978000D01*
X104745000Y-52995000D01*
X104717000Y-53010000D01*
X104689000Y-53023000D01*
X104660000Y-53035000D01*
X104630000Y-53046000D01*
X104600000Y-53055000D01*
X104570000Y-53062000D01*
X104539000Y-53068000D01*
X104508000Y-53072000D01*
X104476000Y-53074000D01*
X104445000Y-53075000D01*
X103200000Y-53075000D01*
X103200000Y-51325000D01*
X104445000Y-51325000D01*
X104476000Y-51326000D01*
G37*
X98800000Y-53075000D02*
X97555000Y-53075000D01*
X97524000Y-53074000D01*
X97492000Y-53072000D01*
X97461000Y-53068000D01*
X97430000Y-53062000D01*
X97400000Y-53055000D01*
X97370000Y-53046000D01*
X97340000Y-53035000D01*
X97311000Y-53023000D01*
X97283000Y-53010000D01*
X97255000Y-52995000D01*
X97228000Y-52978000D01*
X97202000Y-52960000D01*
X97177000Y-52941000D01*
X97154000Y-52921000D01*
X97131000Y-52899000D01*
X97109000Y-52876000D01*
X97089000Y-52853000D01*
X97070000Y-52828000D01*
X97052000Y-52802000D01*
X97035000Y-52775000D01*
X97020000Y-52747000D01*
X97007000Y-52719000D01*
X96995000Y-52690000D01*
X96984000Y-52660000D01*
X96975000Y-52630000D01*
X96968000Y-52600000D01*
X96962000Y-52569000D01*
X96958000Y-52538000D01*
X96956000Y-52506000D01*
X96955000Y-52475000D01*
X96955000Y-51925000D01*
X96956000Y-51894000D01*
X96958000Y-51862000D01*
X96962000Y-51831000D01*
X96968000Y-51800000D01*
X96975000Y-51770000D01*
X96984000Y-51740000D01*
X96995000Y-51710000D01*
X97007000Y-51681000D01*
X97020000Y-51653000D01*
X97035000Y-51625000D01*
X97052000Y-51598000D01*
X97070000Y-51572000D01*
X97089000Y-51547000D01*
X97109000Y-51524000D01*
X97131000Y-51501000D01*
X97154000Y-51479000D01*
X97177000Y-51459000D01*
X97202000Y-51440000D01*
X97228000Y-51422000D01*
X97255000Y-51405000D01*
X97283000Y-51390000D01*
X97311000Y-51377000D01*
X97340000Y-51365000D01*
X97370000Y-51354000D01*
X97400000Y-51345000D01*
X97430000Y-51338000D01*
X97461000Y-51332000D01*
X97492000Y-51328000D01*
X97524000Y-51326000D01*
X97555000Y-51325000D01*
X98800000Y-51325000D01*
X98800000Y-53075000D01*
G36*
X98800000Y-53075000D02*
G01*
X97555000Y-53075000D01*
X97524000Y-53074000D01*
X97492000Y-53072000D01*
X97461000Y-53068000D01*
X97430000Y-53062000D01*
X97400000Y-53055000D01*
X97370000Y-53046000D01*
X97340000Y-53035000D01*
X97311000Y-53023000D01*
X97283000Y-53010000D01*
X97255000Y-52995000D01*
X97228000Y-52978000D01*
X97202000Y-52960000D01*
X97177000Y-52941000D01*
X97154000Y-52921000D01*
X97131000Y-52899000D01*
X97109000Y-52876000D01*
X97089000Y-52853000D01*
X97070000Y-52828000D01*
X97052000Y-52802000D01*
X97035000Y-52775000D01*
X97020000Y-52747000D01*
X97007000Y-52719000D01*
X96995000Y-52690000D01*
X96984000Y-52660000D01*
X96975000Y-52630000D01*
X96968000Y-52600000D01*
X96962000Y-52569000D01*
X96958000Y-52538000D01*
X96956000Y-52506000D01*
X96955000Y-52475000D01*
X96955000Y-51925000D01*
X96956000Y-51894000D01*
X96958000Y-51862000D01*
X96962000Y-51831000D01*
X96968000Y-51800000D01*
X96975000Y-51770000D01*
X96984000Y-51740000D01*
X96995000Y-51710000D01*
X97007000Y-51681000D01*
X97020000Y-51653000D01*
X97035000Y-51625000D01*
X97052000Y-51598000D01*
X97070000Y-51572000D01*
X97089000Y-51547000D01*
X97109000Y-51524000D01*
X97131000Y-51501000D01*
X97154000Y-51479000D01*
X97177000Y-51459000D01*
X97202000Y-51440000D01*
X97228000Y-51422000D01*
X97255000Y-51405000D01*
X97283000Y-51390000D01*
X97311000Y-51377000D01*
X97340000Y-51365000D01*
X97370000Y-51354000D01*
X97400000Y-51345000D01*
X97430000Y-51338000D01*
X97461000Y-51332000D01*
X97492000Y-51328000D01*
X97524000Y-51326000D01*
X97555000Y-51325000D01*
X98800000Y-51325000D01*
X98800000Y-53075000D01*
G37*
%TD*%
D11*
%TO.C,C2*%
X110550000Y-63000000D03*
X108650000Y-63000000D03*
%TD*%
D12*
%TO.C,C5*%
X108650000Y-65000000D03*
X110550000Y-65000000D03*
%TD*%
%TO.C,C3*%
X91050000Y-54800000D03*
X92950000Y-54800000D03*
%TD*%
%TO.C,C1*%
X108650000Y-61000000D03*
X110550000Y-61000000D03*
%TD*%
D13*
%TO.C,J4*%
X98200000Y-72860000D03*
D14*
X98200000Y-75400000D03*
X98200000Y-77940000D03*
X98200000Y-80480000D03*
%TD*%
D15*
%TO.C,J3*%
X102300000Y-54875000D03*
X101650000Y-54875000D03*
X101000000Y-54875000D03*
X100350000Y-54875000D03*
X99700000Y-54875000D03*
D16*
X100000000Y-52200000D03*
X102000000Y-52200000D03*
D17*
X103500000Y-54900000D03*
X98500000Y-54900000D03*
%TD*%
D11*
%TO.C,C4*%
X92950000Y-71600000D03*
X91050000Y-71600000D03*
%TD*%
D18*
%TO.C,R1*%
X91087500Y-75200000D03*
X92912500Y-75200000D03*
%TD*%
D19*
%TO.C,Y1*%
X90800000Y-65650000D03*
X90800000Y-60770000D03*
%TD*%
D13*
%TO.C,J1*%
X103060000Y-73860000D03*
D14*
X105600000Y-73860000D03*
X103060000Y-76400000D03*
X105600000Y-76400000D03*
X103060000Y-78940000D03*
X105600000Y-78940000D03*
%TD*%
D20*
%TO.C,U1*%
X96950000Y-61600000D03*
X96950000Y-62400000D03*
X96950000Y-63200000D03*
X96950000Y-64000000D03*
X96950000Y-64800000D03*
X96950000Y-65600000D03*
X96950000Y-66400000D03*
X96950000Y-67200000D03*
D21*
X98400000Y-68650000D03*
X99200000Y-68650000D03*
X100000000Y-68650000D03*
X100800000Y-68650000D03*
X101600000Y-68650000D03*
X102400000Y-68650000D03*
X103200000Y-68650000D03*
X104000000Y-68650000D03*
D20*
X105450000Y-67200000D03*
X105450000Y-66400000D03*
X105450000Y-65600000D03*
X105450000Y-64800000D03*
X105450000Y-64000000D03*
X105450000Y-63200000D03*
X105450000Y-62400000D03*
X105450000Y-61600000D03*
D21*
X104000000Y-60150000D03*
X103200000Y-60150000D03*
X102400000Y-60150000D03*
X101600000Y-60150000D03*
X100800000Y-60150000D03*
X100000000Y-60150000D03*
X99200000Y-60150000D03*
X98400000Y-60150000D03*
%TD*%
M02*
