M48
; DRILL file {KiCad 7.0.8} date Thu Mar 26 12:38:55 2026
; FORMAT={-:-/ absolute / inch / decimal}
; #@! TF.CreationDate,2026-03-26T12:38:55-04:00
; #@! TF.GenerationSoftware,Kicad,Pcbnew,7.0.8
; #@! TF.FileFunction,Plated,1,2,PTH
FMAT,2
INCH
; #@! TA.AperFunction,Plated,PTH,ViaDrill
T1C0.0157
; #@! TA.AperFunction,Plated,PTH,ComponentDrill
T2C0.0197
; #@! TA.AperFunction,Plated,PTH,ComponentDrill
T3C0.0217
; #@! TA.AperFunction,Plated,PTH,ComponentDrill
T4C0.0315
; #@! TA.AperFunction,Plated,PTH,ComponentDrill
T5C0.0394
%
G90
G05
T1
X3.4488Y-2.0394
X3.4803Y-3.063
X3.4803Y-3.2598
X3.5669Y-2.0394
X3.5984Y-3.063
X3.5984Y-3.2598
X3.7323Y-2.2913
X3.7323Y-2.7244
X3.7323Y-2.8898
X3.748Y-2.4724
X3.9213Y-2.2283
X4.2205Y-2.5197
X4.2913Y-2.0394
X4.2913Y-2.2205
X4.2913Y-2.8031
X4.2913Y-3.0079
X4.2913Y-3.2047
X4.4094Y-2.0394
X4.4094Y-2.2205
X4.4094Y-2.8031
X4.4094Y-3.0079
X4.4094Y-3.2047
T4
X3.5748Y-2.3925
X3.5748Y-2.5846
T5
X3.8661Y-2.8685
X3.8661Y-2.9685
X3.8661Y-3.0685
X3.8661Y-3.1685
X4.0575Y-2.9079
X4.0575Y-3.0079
X4.0575Y-3.1079
X4.1575Y-2.9079
X4.1575Y-3.0079
X4.1575Y-3.1079
T2
G00X3.8386Y-2.0679
M15
G01X3.8386Y-2.0423
M16
G05
G00X4.1142Y-2.0679
M15
G01X4.1142Y-2.0423
M16
G05
T3
G00X3.8848Y-2.1614
M15
G01X3.8711Y-2.1614
M16
G05
G00X4.0817Y-2.1614
M15
G01X4.0679Y-2.1614
M16
G05
T0
M30
