%TF.GenerationSoftware,KiCad,Pcbnew,7.0.8*%
%TF.CreationDate,2026-03-26T12:38:55-04:00*%
%TF.ProjectId,TransmitterCircuit,5472616e-736d-4697-9474-657243697263,rev?*%
%TF.SameCoordinates,Original*%
%TF.FileFunction,Legend,Top*%
%TF.FilePolarity,Positive*%
%FSLAX46Y46*%
G04 Gerber Fmt 4.6, Leading zero omitted, Abs format (unit mm)*
G04 Created by KiCad (PCBNEW 7.0.8) date 2026-03-26 12:38:55*
%MOMM*%
%LPD*%
G01*
G04 APERTURE LIST*
G04 Aperture macros list*
%AMRoundRect*
0 Rectangle with rounded corners*
0 $1 Rounding radius*
0 $2 $3 $4 $5 $6 $7 $8 $9 X,Y pos of 4 corners*
0 Add a 4 corners polygon primitive as box body*
4,1,4,$2,$3,$4,$5,$6,$7,$8,$9,$2,$3,0*
0 Add four circle primitives for the rounded corners*
1,1,$1+$1,$2,$3*
1,1,$1+$1,$4,$5*
1,1,$1+$1,$6,$7*
1,1,$1+$1,$8,$9*
0 Add four rect primitives between the rounded corners*
20,1,$1+$1,$2,$3,$4,$5,0*
20,1,$1+$1,$4,$5,$6,$7,0*
20,1,$1+$1,$6,$7,$8,$9,0*
20,1,$1+$1,$8,$9,$2,$3,0*%
G04 Aperture macros list end*
%ADD10C,0.150000*%
%ADD11C,0.120000*%
%ADD12C,0.127000*%
%ADD13C,0.200000*%
%ADD14C,0.010000*%
%ADD15RoundRect,0.250000X0.250000X0.475000X-0.250000X0.475000X-0.250000X-0.475000X0.250000X-0.475000X0*%
%ADD16RoundRect,0.250000X-0.250000X-0.475000X0.250000X-0.475000X0.250000X0.475000X-0.250000X0.475000X0*%
%ADD17R,1.700000X1.700000*%
%ADD18O,1.700000X1.700000*%
%ADD19RoundRect,0.102000X0.200000X0.675000X-0.200000X0.675000X-0.200000X-0.675000X0.200000X-0.675000X0*%
%ADD20RoundRect,0.102000X0.750000X0.775000X-0.750000X0.775000X-0.750000X-0.775000X0.750000X-0.775000X0*%
%ADD21O,1.504000X1.154000*%
%ADD22RoundRect,0.250000X-0.262500X-0.450000X0.262500X-0.450000X0.262500X0.450000X-0.262500X0.450000X0*%
%ADD23C,1.500000*%
%ADD24R,1.600000X0.550000*%
%ADD25R,0.550000X1.600000*%
G04 APERTURE END LIST*
D10*
X112233333Y-63359580D02*
X112185714Y-63407200D01*
X112185714Y-63407200D02*
X112042857Y-63454819D01*
X112042857Y-63454819D02*
X111947619Y-63454819D01*
X111947619Y-63454819D02*
X111804762Y-63407200D01*
X111804762Y-63407200D02*
X111709524Y-63311961D01*
X111709524Y-63311961D02*
X111661905Y-63216723D01*
X111661905Y-63216723D02*
X111614286Y-63026247D01*
X111614286Y-63026247D02*
X111614286Y-62883390D01*
X111614286Y-62883390D02*
X111661905Y-62692914D01*
X111661905Y-62692914D02*
X111709524Y-62597676D01*
X111709524Y-62597676D02*
X111804762Y-62502438D01*
X111804762Y-62502438D02*
X111947619Y-62454819D01*
X111947619Y-62454819D02*
X112042857Y-62454819D01*
X112042857Y-62454819D02*
X112185714Y-62502438D01*
X112185714Y-62502438D02*
X112233333Y-62550057D01*
X112614286Y-62550057D02*
X112661905Y-62502438D01*
X112661905Y-62502438D02*
X112757143Y-62454819D01*
X112757143Y-62454819D02*
X112995238Y-62454819D01*
X112995238Y-62454819D02*
X113090476Y-62502438D01*
X113090476Y-62502438D02*
X113138095Y-62550057D01*
X113138095Y-62550057D02*
X113185714Y-62645295D01*
X113185714Y-62645295D02*
X113185714Y-62740533D01*
X113185714Y-62740533D02*
X113138095Y-62883390D01*
X113138095Y-62883390D02*
X112566667Y-63454819D01*
X112566667Y-63454819D02*
X113185714Y-63454819D01*
X112233333Y-65359580D02*
X112185714Y-65407200D01*
X112185714Y-65407200D02*
X112042857Y-65454819D01*
X112042857Y-65454819D02*
X111947619Y-65454819D01*
X111947619Y-65454819D02*
X111804762Y-65407200D01*
X111804762Y-65407200D02*
X111709524Y-65311961D01*
X111709524Y-65311961D02*
X111661905Y-65216723D01*
X111661905Y-65216723D02*
X111614286Y-65026247D01*
X111614286Y-65026247D02*
X111614286Y-64883390D01*
X111614286Y-64883390D02*
X111661905Y-64692914D01*
X111661905Y-64692914D02*
X111709524Y-64597676D01*
X111709524Y-64597676D02*
X111804762Y-64502438D01*
X111804762Y-64502438D02*
X111947619Y-64454819D01*
X111947619Y-64454819D02*
X112042857Y-64454819D01*
X112042857Y-64454819D02*
X112185714Y-64502438D01*
X112185714Y-64502438D02*
X112233333Y-64550057D01*
X113138095Y-64454819D02*
X112661905Y-64454819D01*
X112661905Y-64454819D02*
X112614286Y-64931009D01*
X112614286Y-64931009D02*
X112661905Y-64883390D01*
X112661905Y-64883390D02*
X112757143Y-64835771D01*
X112757143Y-64835771D02*
X112995238Y-64835771D01*
X112995238Y-64835771D02*
X113090476Y-64883390D01*
X113090476Y-64883390D02*
X113138095Y-64931009D01*
X113138095Y-64931009D02*
X113185714Y-65026247D01*
X113185714Y-65026247D02*
X113185714Y-65264342D01*
X113185714Y-65264342D02*
X113138095Y-65359580D01*
X113138095Y-65359580D02*
X113090476Y-65407200D01*
X113090476Y-65407200D02*
X112995238Y-65454819D01*
X112995238Y-65454819D02*
X112757143Y-65454819D01*
X112757143Y-65454819D02*
X112661905Y-65407200D01*
X112661905Y-65407200D02*
X112614286Y-65359580D01*
X91833333Y-52159580D02*
X91785714Y-52207200D01*
X91785714Y-52207200D02*
X91642857Y-52254819D01*
X91642857Y-52254819D02*
X91547619Y-52254819D01*
X91547619Y-52254819D02*
X91404762Y-52207200D01*
X91404762Y-52207200D02*
X91309524Y-52111961D01*
X91309524Y-52111961D02*
X91261905Y-52016723D01*
X91261905Y-52016723D02*
X91214286Y-51826247D01*
X91214286Y-51826247D02*
X91214286Y-51683390D01*
X91214286Y-51683390D02*
X91261905Y-51492914D01*
X91261905Y-51492914D02*
X91309524Y-51397676D01*
X91309524Y-51397676D02*
X91404762Y-51302438D01*
X91404762Y-51302438D02*
X91547619Y-51254819D01*
X91547619Y-51254819D02*
X91642857Y-51254819D01*
X91642857Y-51254819D02*
X91785714Y-51302438D01*
X91785714Y-51302438D02*
X91833333Y-51350057D01*
X92166667Y-51254819D02*
X92785714Y-51254819D01*
X92785714Y-51254819D02*
X92452381Y-51635771D01*
X92452381Y-51635771D02*
X92595238Y-51635771D01*
X92595238Y-51635771D02*
X92690476Y-51683390D01*
X92690476Y-51683390D02*
X92738095Y-51731009D01*
X92738095Y-51731009D02*
X92785714Y-51826247D01*
X92785714Y-51826247D02*
X92785714Y-52064342D01*
X92785714Y-52064342D02*
X92738095Y-52159580D01*
X92738095Y-52159580D02*
X92690476Y-52207200D01*
X92690476Y-52207200D02*
X92595238Y-52254819D01*
X92595238Y-52254819D02*
X92309524Y-52254819D01*
X92309524Y-52254819D02*
X92214286Y-52207200D01*
X92214286Y-52207200D02*
X92166667Y-52159580D01*
X112233333Y-61559580D02*
X112185714Y-61607200D01*
X112185714Y-61607200D02*
X112042857Y-61654819D01*
X112042857Y-61654819D02*
X111947619Y-61654819D01*
X111947619Y-61654819D02*
X111804762Y-61607200D01*
X111804762Y-61607200D02*
X111709524Y-61511961D01*
X111709524Y-61511961D02*
X111661905Y-61416723D01*
X111661905Y-61416723D02*
X111614286Y-61226247D01*
X111614286Y-61226247D02*
X111614286Y-61083390D01*
X111614286Y-61083390D02*
X111661905Y-60892914D01*
X111661905Y-60892914D02*
X111709524Y-60797676D01*
X111709524Y-60797676D02*
X111804762Y-60702438D01*
X111804762Y-60702438D02*
X111947619Y-60654819D01*
X111947619Y-60654819D02*
X112042857Y-60654819D01*
X112042857Y-60654819D02*
X112185714Y-60702438D01*
X112185714Y-60702438D02*
X112233333Y-60750057D01*
X113185714Y-61654819D02*
X112614286Y-61654819D01*
X112900000Y-61654819D02*
X112900000Y-60654819D01*
X112900000Y-60654819D02*
X112804762Y-60797676D01*
X112804762Y-60797676D02*
X112709524Y-60892914D01*
X112709524Y-60892914D02*
X112614286Y-60940533D01*
X97866666Y-69854819D02*
X97866666Y-70569104D01*
X97866666Y-70569104D02*
X97819047Y-70711961D01*
X97819047Y-70711961D02*
X97723809Y-70807200D01*
X97723809Y-70807200D02*
X97580952Y-70854819D01*
X97580952Y-70854819D02*
X97485714Y-70854819D01*
X98771428Y-70188152D02*
X98771428Y-70854819D01*
X98533333Y-69807200D02*
X98295238Y-70521485D01*
X98295238Y-70521485D02*
X98914285Y-70521485D01*
X106066666Y-52654819D02*
X106066666Y-53369104D01*
X106066666Y-53369104D02*
X106019047Y-53511961D01*
X106019047Y-53511961D02*
X105923809Y-53607200D01*
X105923809Y-53607200D02*
X105780952Y-53654819D01*
X105780952Y-53654819D02*
X105685714Y-53654819D01*
X106447619Y-52654819D02*
X107066666Y-52654819D01*
X107066666Y-52654819D02*
X106733333Y-53035771D01*
X106733333Y-53035771D02*
X106876190Y-53035771D01*
X106876190Y-53035771D02*
X106971428Y-53083390D01*
X106971428Y-53083390D02*
X107019047Y-53131009D01*
X107019047Y-53131009D02*
X107066666Y-53226247D01*
X107066666Y-53226247D02*
X107066666Y-53464342D01*
X107066666Y-53464342D02*
X107019047Y-53559580D01*
X107019047Y-53559580D02*
X106971428Y-53607200D01*
X106971428Y-53607200D02*
X106876190Y-53654819D01*
X106876190Y-53654819D02*
X106590476Y-53654819D01*
X106590476Y-53654819D02*
X106495238Y-53607200D01*
X106495238Y-53607200D02*
X106447619Y-53559580D01*
X94833333Y-71959580D02*
X94785714Y-72007200D01*
X94785714Y-72007200D02*
X94642857Y-72054819D01*
X94642857Y-72054819D02*
X94547619Y-72054819D01*
X94547619Y-72054819D02*
X94404762Y-72007200D01*
X94404762Y-72007200D02*
X94309524Y-71911961D01*
X94309524Y-71911961D02*
X94261905Y-71816723D01*
X94261905Y-71816723D02*
X94214286Y-71626247D01*
X94214286Y-71626247D02*
X94214286Y-71483390D01*
X94214286Y-71483390D02*
X94261905Y-71292914D01*
X94261905Y-71292914D02*
X94309524Y-71197676D01*
X94309524Y-71197676D02*
X94404762Y-71102438D01*
X94404762Y-71102438D02*
X94547619Y-71054819D01*
X94547619Y-71054819D02*
X94642857Y-71054819D01*
X94642857Y-71054819D02*
X94785714Y-71102438D01*
X94785714Y-71102438D02*
X94833333Y-71150057D01*
X95690476Y-71388152D02*
X95690476Y-72054819D01*
X95452381Y-71007200D02*
X95214286Y-71721485D01*
X95214286Y-71721485D02*
X95833333Y-71721485D01*
X94833333Y-75854819D02*
X94500000Y-75378628D01*
X94261905Y-75854819D02*
X94261905Y-74854819D01*
X94261905Y-74854819D02*
X94642857Y-74854819D01*
X94642857Y-74854819D02*
X94738095Y-74902438D01*
X94738095Y-74902438D02*
X94785714Y-74950057D01*
X94785714Y-74950057D02*
X94833333Y-75045295D01*
X94833333Y-75045295D02*
X94833333Y-75188152D01*
X94833333Y-75188152D02*
X94785714Y-75283390D01*
X94785714Y-75283390D02*
X94738095Y-75331009D01*
X94738095Y-75331009D02*
X94642857Y-75378628D01*
X94642857Y-75378628D02*
X94261905Y-75378628D01*
X95785714Y-75854819D02*
X95214286Y-75854819D01*
X95500000Y-75854819D02*
X95500000Y-74854819D01*
X95500000Y-74854819D02*
X95404762Y-74997676D01*
X95404762Y-74997676D02*
X95309524Y-75092914D01*
X95309524Y-75092914D02*
X95214286Y-75140533D01*
X87253628Y-63686190D02*
X87729819Y-63686190D01*
X86729819Y-64019523D02*
X87253628Y-63686190D01*
X87253628Y-63686190D02*
X86729819Y-63352857D01*
X87729819Y-62495714D02*
X87729819Y-63067142D01*
X87729819Y-62781428D02*
X86729819Y-62781428D01*
X86729819Y-62781428D02*
X86872676Y-62876666D01*
X86872676Y-62876666D02*
X86967914Y-62971904D01*
X86967914Y-62971904D02*
X87015533Y-63067142D01*
X104066666Y-81254819D02*
X104066666Y-81969104D01*
X104066666Y-81969104D02*
X104019047Y-82111961D01*
X104019047Y-82111961D02*
X103923809Y-82207200D01*
X103923809Y-82207200D02*
X103780952Y-82254819D01*
X103780952Y-82254819D02*
X103685714Y-82254819D01*
X105066666Y-82254819D02*
X104495238Y-82254819D01*
X104780952Y-82254819D02*
X104780952Y-81254819D01*
X104780952Y-81254819D02*
X104685714Y-81397676D01*
X104685714Y-81397676D02*
X104590476Y-81492914D01*
X104590476Y-81492914D02*
X104495238Y-81540533D01*
X98638095Y-57254819D02*
X98638095Y-58064342D01*
X98638095Y-58064342D02*
X98685714Y-58159580D01*
X98685714Y-58159580D02*
X98733333Y-58207200D01*
X98733333Y-58207200D02*
X98828571Y-58254819D01*
X98828571Y-58254819D02*
X99019047Y-58254819D01*
X99019047Y-58254819D02*
X99114285Y-58207200D01*
X99114285Y-58207200D02*
X99161904Y-58159580D01*
X99161904Y-58159580D02*
X99209523Y-58064342D01*
X99209523Y-58064342D02*
X99209523Y-57254819D01*
X100209523Y-58254819D02*
X99638095Y-58254819D01*
X99923809Y-58254819D02*
X99923809Y-57254819D01*
X99923809Y-57254819D02*
X99828571Y-57397676D01*
X99828571Y-57397676D02*
X99733333Y-57492914D01*
X99733333Y-57492914D02*
X99638095Y-57540533D01*
D11*
%TO.C,C2*%
X109861252Y-63735000D02*
X109338748Y-63735000D01*
X109861252Y-62265000D02*
X109338748Y-62265000D01*
%TO.C,C5*%
X109338748Y-64265000D02*
X109861252Y-64265000D01*
X109338748Y-65735000D02*
X109861252Y-65735000D01*
%TO.C,C3*%
X91738748Y-54065000D02*
X92261252Y-54065000D01*
X91738748Y-55535000D02*
X92261252Y-55535000D01*
%TO.C,C1*%
X109338748Y-60265000D02*
X109861252Y-60265000D01*
X109338748Y-61735000D02*
X109861252Y-61735000D01*
%TO.C,J4*%
X96870000Y-74130000D02*
X96870000Y-81810000D01*
X96870000Y-74130000D02*
X99530000Y-74130000D01*
X96870000Y-81810000D02*
X99530000Y-81810000D01*
X98200000Y-71530000D02*
X99530000Y-71530000D01*
X99530000Y-71530000D02*
X99530000Y-72860000D01*
X99530000Y-74130000D02*
X99530000Y-81810000D01*
D12*
%TO.C,J3*%
X104700000Y-55050000D02*
X104470000Y-55050000D01*
X104700000Y-53300000D02*
X104700000Y-55050000D01*
X104700000Y-50750000D02*
X104700000Y-51100000D01*
X97530000Y-55050000D02*
X97300000Y-55050000D01*
X97300000Y-55050000D02*
X97300000Y-53300000D01*
X97300000Y-51100000D02*
X97300000Y-50750000D01*
D13*
X102400000Y-56200000D02*
G75*
G03*
X102400000Y-56200000I-100000J0D01*
G01*
D11*
%TO.C,C4*%
X92261252Y-72335000D02*
X91738748Y-72335000D01*
X92261252Y-70865000D02*
X91738748Y-70865000D01*
%TO.C,R1*%
X91772936Y-74465000D02*
X92227064Y-74465000D01*
X91772936Y-75935000D02*
X92227064Y-75935000D01*
%TO.C,Y1*%
X88275000Y-66335000D02*
X88275000Y-60085000D01*
X93325000Y-66335000D02*
X93325000Y-60085000D01*
X88275000Y-66335000D02*
G75*
G03*
X93325000Y-66335000I2525000J0D01*
G01*
X93325000Y-60085000D02*
G75*
G03*
X88275000Y-60085000I-2525000J0D01*
G01*
%TO.C,J1*%
X101730000Y-72530000D02*
X103060000Y-72530000D01*
X101730000Y-73860000D02*
X101730000Y-72530000D01*
X101730000Y-75130000D02*
X101730000Y-80270000D01*
X101730000Y-75130000D02*
X104330000Y-75130000D01*
X101730000Y-80270000D02*
X106930000Y-80270000D01*
X104330000Y-72530000D02*
X106930000Y-72530000D01*
X104330000Y-75130000D02*
X104330000Y-72530000D01*
X106930000Y-72530000D02*
X106930000Y-80270000D01*
D10*
%TO.C,U1*%
X97575000Y-60775000D02*
X97575000Y-61000000D01*
X97575000Y-60775000D02*
X97900000Y-60775000D01*
X97575000Y-61000000D02*
X96150000Y-61000000D01*
X97575000Y-68025000D02*
X97575000Y-67700000D01*
X97575000Y-68025000D02*
X97900000Y-68025000D01*
X104825000Y-60775000D02*
X104500000Y-60775000D01*
X104825000Y-60775000D02*
X104825000Y-61100000D01*
X104825000Y-68025000D02*
X104500000Y-68025000D01*
X104825000Y-68025000D02*
X104825000Y-67700000D01*
%TD*%
%LPC*%
%TO.C,J3*%
D14*
X104476000Y-51326000D02*
X104508000Y-51328000D01*
X104539000Y-51332000D01*
X104570000Y-51338000D01*
X104600000Y-51345000D01*
X104630000Y-51354000D01*
X104660000Y-51365000D01*
X104689000Y-51377000D01*
X104717000Y-51390000D01*
X104745000Y-51405000D01*
X104772000Y-51422000D01*
X104798000Y-51440000D01*
X104823000Y-51459000D01*
X104846000Y-51479000D01*
X104869000Y-51501000D01*
X104891000Y-51524000D01*
X104911000Y-51547000D01*
X104930000Y-51572000D01*
X104948000Y-51598000D01*
X104965000Y-51625000D01*
X104980000Y-51653000D01*
X104993000Y-51681000D01*
X105005000Y-51710000D01*
X105016000Y-51740000D01*
X105025000Y-51770000D01*
X105032000Y-51800000D01*
X105038000Y-51831000D01*
X105042000Y-51862000D01*
X105044000Y-51894000D01*
X105045000Y-51925000D01*
X105045000Y-52475000D01*
X105044000Y-52506000D01*
X105042000Y-52538000D01*
X105038000Y-52569000D01*
X105032000Y-52600000D01*
X105025000Y-52630000D01*
X105016000Y-52660000D01*
X105005000Y-52690000D01*
X104993000Y-52719000D01*
X104980000Y-52747000D01*
X104965000Y-52775000D01*
X104948000Y-52802000D01*
X104930000Y-52828000D01*
X104911000Y-52853000D01*
X104891000Y-52876000D01*
X104869000Y-52899000D01*
X104846000Y-52921000D01*
X104823000Y-52941000D01*
X104798000Y-52960000D01*
X104772000Y-52978000D01*
X104745000Y-52995000D01*
X104717000Y-53010000D01*
X104689000Y-53023000D01*
X104660000Y-53035000D01*
X104630000Y-53046000D01*
X104600000Y-53055000D01*
X104570000Y-53062000D01*
X104539000Y-53068000D01*
X104508000Y-53072000D01*
X104476000Y-53074000D01*
X104445000Y-53075000D01*
X103200000Y-53075000D01*
X103200000Y-51325000D01*
X104445000Y-51325000D01*
X104476000Y-51326000D01*
G36*
X104476000Y-51326000D02*
G01*
X104508000Y-51328000D01*
X104539000Y-51332000D01*
X104570000Y-51338000D01*
X104600000Y-51345000D01*
X104630000Y-51354000D01*
X104660000Y-51365000D01*
X104689000Y-51377000D01*
X104717000Y-51390000D01*
X104745000Y-51405000D01*
X104772000Y-51422000D01*
X104798000Y-51440000D01*
X104823000Y-51459000D01*
X104846000Y-51479000D01*
X104869000Y-51501000D01*
X104891000Y-51524000D01*
X104911000Y-51547000D01*
X104930000Y-51572000D01*
X104948000Y-51598000D01*
X104965000Y-51625000D01*
X104980000Y-51653000D01*
X104993000Y-51681000D01*
X105005000Y-51710000D01*
X105016000Y-51740000D01*
X105025000Y-51770000D01*
X105032000Y-51800000D01*
X105038000Y-51831000D01*
X105042000Y-51862000D01*
X105044000Y-51894000D01*
X105045000Y-51925000D01*
X105045000Y-52475000D01*
X105044000Y-52506000D01*
X105042000Y-52538000D01*
X105038000Y-52569000D01*
X105032000Y-52600000D01*
X105025000Y-52630000D01*
X105016000Y-52660000D01*
X105005000Y-52690000D01*
X104993000Y-52719000D01*
X104980000Y-52747000D01*
X104965000Y-52775000D01*
X104948000Y-52802000D01*
X104930000Y-52828000D01*
X104911000Y-52853000D01*
X104891000Y-52876000D01*
X104869000Y-52899000D01*
X104846000Y-52921000D01*
X104823000Y-52941000D01*
X104798000Y-52960000D01*
X104772000Y-52978000D01*
X104745000Y-52995000D01*
X104717000Y-53010000D01*
X104689000Y-53023000D01*
X104660000Y-53035000D01*
X104630000Y-53046000D01*
X104600000Y-53055000D01*
X104570000Y-53062000D01*
X104539000Y-53068000D01*
X104508000Y-53072000D01*
X104476000Y-53074000D01*
X104445000Y-53075000D01*
X103200000Y-53075000D01*
X103200000Y-51325000D01*
X104445000Y-51325000D01*
X104476000Y-51326000D01*
G37*
X98800000Y-53075000D02*
X97555000Y-53075000D01*
X97524000Y-53074000D01*
X97492000Y-53072000D01*
X97461000Y-53068000D01*
X97430000Y-53062000D01*
X97400000Y-53055000D01*
X97370000Y-53046000D01*
X97340000Y-53035000D01*
X97311000Y-53023000D01*
X97283000Y-53010000D01*
X97255000Y-52995000D01*
X97228000Y-52978000D01*
X97202000Y-52960000D01*
X97177000Y-52941000D01*
X97154000Y-52921000D01*
X97131000Y-52899000D01*
X97109000Y-52876000D01*
X97089000Y-52853000D01*
X97070000Y-52828000D01*
X97052000Y-52802000D01*
X97035000Y-52775000D01*
X97020000Y-52747000D01*
X97007000Y-52719000D01*
X96995000Y-52690000D01*
X96984000Y-52660000D01*
X96975000Y-52630000D01*
X96968000Y-52600000D01*
X96962000Y-52569000D01*
X96958000Y-52538000D01*
X96956000Y-52506000D01*
X96955000Y-52475000D01*
X96955000Y-51925000D01*
X96956000Y-51894000D01*
X96958000Y-51862000D01*
X96962000Y-51831000D01*
X96968000Y-51800000D01*
X96975000Y-51770000D01*
X96984000Y-51740000D01*
X96995000Y-51710000D01*
X97007000Y-51681000D01*
X97020000Y-51653000D01*
X97035000Y-51625000D01*
X97052000Y-51598000D01*
X97070000Y-51572000D01*
X97089000Y-51547000D01*
X97109000Y-51524000D01*
X97131000Y-51501000D01*
X97154000Y-51479000D01*
X97177000Y-51459000D01*
X97202000Y-51440000D01*
X97228000Y-51422000D01*
X97255000Y-51405000D01*
X97283000Y-51390000D01*
X97311000Y-51377000D01*
X97340000Y-51365000D01*
X97370000Y-51354000D01*
X97400000Y-51345000D01*
X97430000Y-51338000D01*
X97461000Y-51332000D01*
X97492000Y-51328000D01*
X97524000Y-51326000D01*
X97555000Y-51325000D01*
X98800000Y-51325000D01*
X98800000Y-53075000D01*
G36*
X98800000Y-53075000D02*
G01*
X97555000Y-53075000D01*
X97524000Y-53074000D01*
X97492000Y-53072000D01*
X97461000Y-53068000D01*
X97430000Y-53062000D01*
X97400000Y-53055000D01*
X97370000Y-53046000D01*
X97340000Y-53035000D01*
X97311000Y-53023000D01*
X97283000Y-53010000D01*
X97255000Y-52995000D01*
X97228000Y-52978000D01*
X97202000Y-52960000D01*
X97177000Y-52941000D01*
X97154000Y-52921000D01*
X97131000Y-52899000D01*
X97109000Y-52876000D01*
X97089000Y-52853000D01*
X97070000Y-52828000D01*
X97052000Y-52802000D01*
X97035000Y-52775000D01*
X97020000Y-52747000D01*
X97007000Y-52719000D01*
X96995000Y-52690000D01*
X96984000Y-52660000D01*
X96975000Y-52630000D01*
X96968000Y-52600000D01*
X96962000Y-52569000D01*
X96958000Y-52538000D01*
X96956000Y-52506000D01*
X96955000Y-52475000D01*
X96955000Y-51925000D01*
X96956000Y-51894000D01*
X96958000Y-51862000D01*
X96962000Y-51831000D01*
X96968000Y-51800000D01*
X96975000Y-51770000D01*
X96984000Y-51740000D01*
X96995000Y-51710000D01*
X97007000Y-51681000D01*
X97020000Y-51653000D01*
X97035000Y-51625000D01*
X97052000Y-51598000D01*
X97070000Y-51572000D01*
X97089000Y-51547000D01*
X97109000Y-51524000D01*
X97131000Y-51501000D01*
X97154000Y-51479000D01*
X97177000Y-51459000D01*
X97202000Y-51440000D01*
X97228000Y-51422000D01*
X97255000Y-51405000D01*
X97283000Y-51390000D01*
X97311000Y-51377000D01*
X97340000Y-51365000D01*
X97370000Y-51354000D01*
X97400000Y-51345000D01*
X97430000Y-51338000D01*
X97461000Y-51332000D01*
X97492000Y-51328000D01*
X97524000Y-51326000D01*
X97555000Y-51325000D01*
X98800000Y-51325000D01*
X98800000Y-53075000D01*
G37*
%TD*%
D15*
%TO.C,C2*%
X110550000Y-63000000D03*
X108650000Y-63000000D03*
%TD*%
D16*
%TO.C,C5*%
X108650000Y-65000000D03*
X110550000Y-65000000D03*
%TD*%
%TO.C,C3*%
X91050000Y-54800000D03*
X92950000Y-54800000D03*
%TD*%
%TO.C,C1*%
X108650000Y-61000000D03*
X110550000Y-61000000D03*
%TD*%
D17*
%TO.C,J4*%
X98200000Y-72860000D03*
D18*
X98200000Y-75400000D03*
X98200000Y-77940000D03*
X98200000Y-80480000D03*
%TD*%
D19*
%TO.C,J3*%
X102300000Y-54875000D03*
X101650000Y-54875000D03*
X101000000Y-54875000D03*
X100350000Y-54875000D03*
X99700000Y-54875000D03*
D20*
X100000000Y-52200000D03*
X102000000Y-52200000D03*
D21*
X103500000Y-54900000D03*
X98500000Y-54900000D03*
%TD*%
D15*
%TO.C,C4*%
X92950000Y-71600000D03*
X91050000Y-71600000D03*
%TD*%
D22*
%TO.C,R1*%
X91087500Y-75200000D03*
X92912500Y-75200000D03*
%TD*%
D23*
%TO.C,Y1*%
X90800000Y-65650000D03*
X90800000Y-60770000D03*
%TD*%
D17*
%TO.C,J1*%
X103060000Y-73860000D03*
D18*
X105600000Y-73860000D03*
X103060000Y-76400000D03*
X105600000Y-76400000D03*
X103060000Y-78940000D03*
X105600000Y-78940000D03*
%TD*%
D24*
%TO.C,U1*%
X96950000Y-61600000D03*
X96950000Y-62400000D03*
X96950000Y-63200000D03*
X96950000Y-64000000D03*
X96950000Y-64800000D03*
X96950000Y-65600000D03*
X96950000Y-66400000D03*
X96950000Y-67200000D03*
D25*
X98400000Y-68650000D03*
X99200000Y-68650000D03*
X100000000Y-68650000D03*
X100800000Y-68650000D03*
X101600000Y-68650000D03*
X102400000Y-68650000D03*
X103200000Y-68650000D03*
X104000000Y-68650000D03*
D24*
X105450000Y-67200000D03*
X105450000Y-66400000D03*
X105450000Y-65600000D03*
X105450000Y-64800000D03*
X105450000Y-64000000D03*
X105450000Y-63200000D03*
X105450000Y-62400000D03*
X105450000Y-61600000D03*
D25*
X104000000Y-60150000D03*
X103200000Y-60150000D03*
X102400000Y-60150000D03*
X101600000Y-60150000D03*
X100800000Y-60150000D03*
X100000000Y-60150000D03*
X99200000Y-60150000D03*
X98400000Y-60150000D03*
%TD*%
%LPD*%
M02*
